<?xml version="1.0" encoding="utf-8" standalone="no"?>
<!DOCTYPE svg PUBLIC "-//W3C//DTD SVG 1.1//EN"
  "http://www.w3.org/Graphics/SVG/1.1/DTD/svg11.dtd">
<!-- Created with matplotlib (https://matplotlib.org/) -->
<svg height="272.125984pt" version="1.1" viewBox="0 0 362.834646 272.125984" width="362.834646pt" xmlns="http://www.w3.org/2000/svg" xmlns:xlink="http://www.w3.org/1999/xlink">
 <defs>
  <style type="text/css">
*{stroke-linecap:butt;stroke-linejoin:round;}
  </style>
 </defs>
 <g id="figure_1">
  <g id="patch_1">
   <path d="M 0 272.125984 
L 362.834646 272.125984 
L 362.834646 0 
L 0 0 
z
" style="fill:#ffffff;"/>
  </g>
  <g id="axes_1">
   <g id="patch_2">
    <path d="M 45.354331 238.110236 
L 326.551181 238.110236 
L 326.551181 32.655118 
L 45.354331 32.655118 
z
" style="fill:#ffffff;"/>
   </g>
   <g id="patch_3">
    <path clip-path="url(#pf0f8c5a971)" d="M 58.136006 238.110236 
L 63.248676 238.110236 
L 63.248676 237.934746 
L 58.136006 237.934746 
z
" style="fill:#edf8b1;stroke:#000000;stroke-linejoin:miter;"/>
   </g>
   <g id="patch_4">
    <path clip-path="url(#pf0f8c5a971)" d="M 63.248676 238.110236 
L 68.361346 238.110236 
L 68.361346 237.092393 
L 63.248676 237.092393 
z
" style="fill:#edf8b1;stroke:#000000;stroke-linejoin:miter;"/>
   </g>
   <g id="patch_5">
    <path clip-path="url(#pf0f8c5a971)" d="M 68.361346 238.110236 
L 73.474016 238.110236 
L 73.474016 235.653374 
L 68.361346 235.653374 
z
" style="fill:#edf8b1;stroke:#000000;stroke-linejoin:miter;"/>
   </g>
   <g id="patch_6">
    <path clip-path="url(#pf0f8c5a971)" d="M 73.474016 238.110236 
L 78.586686 238.110236 
L 78.586686 234.038864 
L 73.474016 234.038864 
z
" style="fill:#edf8b1;stroke:#000000;stroke-linejoin:miter;"/>
   </g>
   <g id="patch_7">
    <path clip-path="url(#pf0f8c5a971)" d="M 78.586686 238.110236 
L 83.699356 238.110236 
L 83.699356 230.00259 
L 78.586686 230.00259 
z
" style="fill:#edf8b1;stroke:#000000;stroke-linejoin:miter;"/>
   </g>
   <g id="patch_8">
    <path clip-path="url(#pf0f8c5a971)" d="M 83.699356 238.110236 
L 88.812026 238.110236 
L 88.812026 229.265532 
L 83.699356 229.265532 
z
" style="fill:#edf8b1;stroke:#000000;stroke-linejoin:miter;"/>
   </g>
   <g id="patch_9">
    <path clip-path="url(#pf0f8c5a971)" d="M 88.812026 238.110236 
L 93.924696 238.110236 
L 93.924696 230.915139 
L 88.812026 230.915139 
z
" style="fill:#edf8b1;stroke:#000000;stroke-linejoin:miter;"/>
   </g>
   <g id="patch_10">
    <path clip-path="url(#pf0f8c5a971)" d="M 93.924696 238.110236 
L 99.037366 238.110236 
L 99.037366 232.389257 
L 93.924696 232.389257 
z
" style="fill:#edf8b1;stroke:#000000;stroke-linejoin:miter;"/>
   </g>
   <g id="patch_11">
    <path clip-path="url(#pf0f8c5a971)" d="M 99.037366 238.110236 
L 104.150036 238.110236 
L 104.150036 233.056119 
L 99.037366 233.056119 
z
" style="fill:#edf8b1;stroke:#000000;stroke-linejoin:miter;"/>
   </g>
   <g id="patch_12">
    <path clip-path="url(#pf0f8c5a971)" d="M 104.150036 238.110236 
L 109.262706 238.110236 
L 109.262706 232.003178 
L 104.150036 232.003178 
z
" style="fill:#edf8b1;stroke:#000000;stroke-linejoin:miter;"/>
   </g>
   <g id="patch_13">
    <path clip-path="url(#pf0f8c5a971)" d="M 109.262706 238.110236 
L 114.375376 238.110236 
L 114.375376 228.563571 
L 109.262706 228.563571 
z
" style="fill:#edf8b1;stroke:#000000;stroke-linejoin:miter;"/>
   </g>
   <g id="patch_14">
    <path clip-path="url(#pf0f8c5a971)" d="M 114.375376 238.110236 
L 119.488046 238.110236 
L 119.488046 225.088866 
L 114.375376 225.088866 
z
" style="fill:#edf8b1;stroke:#000000;stroke-linejoin:miter;"/>
   </g>
   <g id="patch_15">
    <path clip-path="url(#pf0f8c5a971)" d="M 119.488046 238.110236 
L 124.600716 238.110236 
L 124.600716 226.352395 
L 119.488046 226.352395 
z
" style="fill:#edf8b1;stroke:#000000;stroke-linejoin:miter;"/>
   </g>
   <g id="patch_16">
    <path clip-path="url(#pf0f8c5a971)" d="M 124.600716 238.110236 
L 129.713386 238.110236 
L 129.713386 226.773571 
L 124.600716 226.773571 
z
" style="fill:#edf8b1;stroke:#000000;stroke-linejoin:miter;"/>
   </g>
   <g id="patch_17">
    <path clip-path="url(#pf0f8c5a971)" d="M 129.713386 238.110236 
L 134.826056 238.110236 
L 134.826056 228.002002 
L 129.713386 228.002002 
z
" style="fill:#edf8b1;stroke:#000000;stroke-linejoin:miter;"/>
   </g>
   <g id="patch_18">
    <path clip-path="url(#pf0f8c5a971)" d="M 134.826056 238.110236 
L 139.938726 238.110236 
L 139.938726 229.511218 
L 134.826056 229.511218 
z
" style="fill:#edf8b1;stroke:#000000;stroke-linejoin:miter;"/>
   </g>
   <g id="patch_19">
    <path clip-path="url(#pf0f8c5a971)" d="M 139.938726 238.110236 
L 145.051396 238.110236 
L 145.051396 223.369062 
L 139.938726 223.369062 
z
" style="fill:#edf8b1;stroke:#000000;stroke-linejoin:miter;"/>
   </g>
   <g id="patch_20">
    <path clip-path="url(#pf0f8c5a971)" d="M 145.051396 238.110236 
L 150.164066 238.110236 
L 150.164066 229.30063 
L 145.051396 229.30063 
z
" style="fill:#edf8b1;stroke:#000000;stroke-linejoin:miter;"/>
   </g>
   <g id="patch_21">
    <path clip-path="url(#pf0f8c5a971)" d="M 150.164066 238.110236 
L 155.276736 238.110236 
L 155.276736 230.388669 
L 150.164066 230.388669 
z
" style="fill:#edf8b1;stroke:#000000;stroke-linejoin:miter;"/>
   </g>
   <g id="patch_22">
    <path clip-path="url(#pf0f8c5a971)" d="M 155.276736 238.110236 
L 160.389406 238.110236 
L 160.389406 231.79259 
L 155.276736 231.79259 
z
" style="fill:#edf8b1;stroke:#000000;stroke-linejoin:miter;"/>
   </g>
   <g id="patch_23">
    <path clip-path="url(#pf0f8c5a971)" d="M 160.389406 238.110236 
L 165.502076 238.110236 
L 165.502076 233.372002 
L 160.389406 233.372002 
z
" style="fill:#edf8b1;stroke:#000000;stroke-linejoin:miter;"/>
   </g>
   <g id="patch_24">
    <path clip-path="url(#pf0f8c5a971)" d="M 165.502076 238.110236 
L 170.614746 238.110236 
L 170.614746 234.811021 
L 165.502076 234.811021 
z
" style="fill:#edf8b1;stroke:#000000;stroke-linejoin:miter;"/>
   </g>
   <g id="patch_25">
    <path clip-path="url(#pf0f8c5a971)" d="M 170.614746 238.110236 
L 175.727416 238.110236 
L 175.727416 233.056119 
L 170.614746 233.056119 
z
" style="fill:#edf8b1;stroke:#000000;stroke-linejoin:miter;"/>
   </g>
   <g id="patch_26">
    <path clip-path="url(#pf0f8c5a971)" d="M 175.727416 238.110236 
L 180.840086 238.110236 
L 180.840086 233.652786 
L 175.727416 233.652786 
z
" style="fill:#edf8b1;stroke:#000000;stroke-linejoin:miter;"/>
   </g>
   <g id="patch_27">
    <path clip-path="url(#pf0f8c5a971)" d="M 180.840086 238.110236 
L 185.952756 238.110236 
L 185.952756 235.126903 
L 180.840086 235.126903 
z
" style="fill:#edf8b1;stroke:#000000;stroke-linejoin:miter;"/>
   </g>
   <g id="patch_28">
    <path clip-path="url(#pf0f8c5a971)" d="M 185.952756 238.110236 
L 191.065426 238.110236 
L 191.065426 236.109648 
L 185.952756 236.109648 
z
" style="fill:#edf8b1;stroke:#000000;stroke-linejoin:miter;"/>
   </g>
   <g id="patch_29">
    <path clip-path="url(#pf0f8c5a971)" d="M 191.065426 238.110236 
L 196.178096 238.110236 
L 196.178096 236.25004 
L 191.065426 236.25004 
z
" style="fill:#edf8b1;stroke:#000000;stroke-linejoin:miter;"/>
   </g>
   <g id="patch_30">
    <path clip-path="url(#pf0f8c5a971)" d="M 196.178096 238.110236 
L 201.290766 238.110236 
L 201.290766 236.671217 
L 196.178096 236.671217 
z
" style="fill:#edf8b1;stroke:#000000;stroke-linejoin:miter;"/>
   </g>
   <g id="patch_31">
    <path clip-path="url(#pf0f8c5a971)" d="M 201.290766 238.110236 
L 206.403436 238.110236 
L 206.403436 236.706315 
L 201.290766 236.706315 
z
" style="fill:#edf8b1;stroke:#000000;stroke-linejoin:miter;"/>
   </g>
   <g id="patch_32">
    <path clip-path="url(#pf0f8c5a971)" d="M 206.403436 238.110236 
L 211.516106 238.110236 
L 211.516106 236.811609 
L 206.403436 236.811609 
z
" style="fill:#edf8b1;stroke:#000000;stroke-linejoin:miter;"/>
   </g>
   <g id="patch_33">
    <path clip-path="url(#pf0f8c5a971)" d="M 211.516106 238.110236 
L 216.628776 238.110236 
L 216.628776 237.197687 
L 211.516106 237.197687 
z
" style="fill:#edf8b1;stroke:#000000;stroke-linejoin:miter;"/>
   </g>
   <g id="patch_34">
    <path clip-path="url(#pf0f8c5a971)" d="M 216.628776 238.110236 
L 221.741446 238.110236 
L 221.741446 237.408276 
L 216.628776 237.408276 
z
" style="fill:#edf8b1;stroke:#000000;stroke-linejoin:miter;"/>
   </g>
   <g id="patch_35">
    <path clip-path="url(#pf0f8c5a971)" d="M 221.741446 238.110236 
L 226.854116 238.110236 
L 226.854116 237.794354 
L 221.741446 237.794354 
z
" style="fill:#edf8b1;stroke:#000000;stroke-linejoin:miter;"/>
   </g>
   <g id="patch_36">
    <path clip-path="url(#pf0f8c5a971)" d="M 226.854116 238.110236 
L 231.966786 238.110236 
L 231.966786 237.86455 
L 226.854116 237.86455 
z
" style="fill:#edf8b1;stroke:#000000;stroke-linejoin:miter;"/>
   </g>
   <g id="patch_37">
    <path clip-path="url(#pf0f8c5a971)" d="M 231.966786 238.110236 
L 237.079456 238.110236 
L 237.079456 237.969844 
L 231.966786 237.969844 
z
" style="fill:#edf8b1;stroke:#000000;stroke-linejoin:miter;"/>
   </g>
   <g id="patch_38">
    <path clip-path="url(#pf0f8c5a971)" d="M 237.079456 238.110236 
L 242.192126 238.110236 
L 242.192126 237.899648 
L 237.079456 237.899648 
z
" style="fill:#edf8b1;stroke:#000000;stroke-linejoin:miter;"/>
   </g>
   <g id="patch_39">
    <path clip-path="url(#pf0f8c5a971)" d="M 242.192126 238.110236 
L 247.304796 238.110236 
L 247.304796 238.004942 
L 242.192126 238.004942 
z
" style="fill:#edf8b1;stroke:#000000;stroke-linejoin:miter;"/>
   </g>
   <g id="patch_40">
    <path clip-path="url(#pf0f8c5a971)" d="M 247.304796 238.110236 
L 252.417466 238.110236 
L 252.417466 237.969844 
L 247.304796 237.969844 
z
" style="fill:#edf8b1;stroke:#000000;stroke-linejoin:miter;"/>
   </g>
   <g id="patch_41">
    <path clip-path="url(#pf0f8c5a971)" d="M 252.417466 238.110236 
L 257.530136 238.110236 
L 257.530136 238.004942 
L 252.417466 238.004942 
z
" style="fill:#edf8b1;stroke:#000000;stroke-linejoin:miter;"/>
   </g>
   <g id="patch_42">
    <path clip-path="url(#pf0f8c5a971)" d="M 257.530136 238.110236 
L 262.642806 238.110236 
L 262.642806 238.075138 
L 257.530136 238.075138 
z
" style="fill:#edf8b1;stroke:#000000;stroke-linejoin:miter;"/>
   </g>
   <g id="patch_43">
    <path clip-path="url(#pf0f8c5a971)" d="M 262.642806 238.110236 
L 267.755476 238.110236 
L 267.755476 238.075138 
L 262.642806 238.075138 
z
" style="fill:#edf8b1;stroke:#000000;stroke-linejoin:miter;"/>
   </g>
   <g id="patch_44">
    <path clip-path="url(#pf0f8c5a971)" d="M 267.755476 238.110236 
L 272.868146 238.110236 
L 272.868146 238.110236 
L 267.755476 238.110236 
z
" style="fill:#edf8b1;stroke:#000000;stroke-linejoin:miter;"/>
   </g>
   <g id="patch_45">
    <path clip-path="url(#pf0f8c5a971)" d="M 272.868146 238.110236 
L 277.980816 238.110236 
L 277.980816 238.04004 
L 272.868146 238.04004 
z
" style="fill:#edf8b1;stroke:#000000;stroke-linejoin:miter;"/>
   </g>
   <g id="patch_46">
    <path clip-path="url(#pf0f8c5a971)" d="M 277.980816 238.110236 
L 283.093486 238.110236 
L 283.093486 238.110236 
L 277.980816 238.110236 
z
" style="fill:#edf8b1;stroke:#000000;stroke-linejoin:miter;"/>
   </g>
   <g id="patch_47">
    <path clip-path="url(#pf0f8c5a971)" d="M 283.093486 238.110236 
L 288.206156 238.110236 
L 288.206156 238.075138 
L 283.093486 238.075138 
z
" style="fill:#edf8b1;stroke:#000000;stroke-linejoin:miter;"/>
   </g>
   <g id="patch_48">
    <path clip-path="url(#pf0f8c5a971)" d="M 288.206156 238.110236 
L 293.318826 238.110236 
L 293.318826 238.110236 
L 288.206156 238.110236 
z
" style="fill:#edf8b1;stroke:#000000;stroke-linejoin:miter;"/>
   </g>
   <g id="patch_49">
    <path clip-path="url(#pf0f8c5a971)" d="M 293.318826 238.110236 
L 298.431496 238.110236 
L 298.431496 238.110236 
L 293.318826 238.110236 
z
" style="fill:#edf8b1;stroke:#000000;stroke-linejoin:miter;"/>
   </g>
   <g id="patch_50">
    <path clip-path="url(#pf0f8c5a971)" d="M 298.431496 238.110236 
L 303.544166 238.110236 
L 303.544166 238.110236 
L 298.431496 238.110236 
z
" style="fill:#edf8b1;stroke:#000000;stroke-linejoin:miter;"/>
   </g>
   <g id="patch_51">
    <path clip-path="url(#pf0f8c5a971)" d="M 303.544166 238.110236 
L 308.656836 238.110236 
L 308.656836 238.075138 
L 303.544166 238.075138 
z
" style="fill:#edf8b1;stroke:#000000;stroke-linejoin:miter;"/>
   </g>
   <g id="patch_52">
    <path clip-path="url(#pf0f8c5a971)" d="M 308.656836 238.110236 
L 313.769506 238.110236 
L 313.769506 238.04004 
L 308.656836 238.04004 
z
" style="fill:#edf8b1;stroke:#000000;stroke-linejoin:miter;"/>
   </g>
   <g id="patch_53">
    <path clip-path="url(#pf0f8c5a971)" d="M 58.136006 237.934746 
L 63.248676 237.934746 
L 63.248676 236.07455 
L 58.136006 236.07455 
z
" style="fill:#7fcdbb;stroke:#000000;stroke-linejoin:miter;"/>
   </g>
   <g id="patch_54">
    <path clip-path="url(#pf0f8c5a971)" d="M 63.248676 237.092393 
L 68.361346 237.092393 
L 68.361346 233.828276 
L 63.248676 233.828276 
z
" style="fill:#7fcdbb;stroke:#000000;stroke-linejoin:miter;"/>
   </g>
   <g id="patch_55">
    <path clip-path="url(#pf0f8c5a971)" d="M 68.361346 235.653374 
L 73.474016 235.653374 
L 73.474016 233.477296 
L 68.361346 233.477296 
z
" style="fill:#7fcdbb;stroke:#000000;stroke-linejoin:miter;"/>
   </g>
   <g id="patch_56">
    <path clip-path="url(#pf0f8c5a971)" d="M 73.474016 234.038864 
L 78.586686 234.038864 
L 78.586686 230.950237 
L 73.474016 230.950237 
z
" style="fill:#7fcdbb;stroke:#000000;stroke-linejoin:miter;"/>
   </g>
   <g id="patch_57">
    <path clip-path="url(#pf0f8c5a971)" d="M 78.586686 230.00259 
L 83.699356 230.00259 
L 83.699356 225.229258 
L 78.586686 225.229258 
z
" style="fill:#7fcdbb;stroke:#000000;stroke-linejoin:miter;"/>
   </g>
   <g id="patch_58">
    <path clip-path="url(#pf0f8c5a971)" d="M 83.699356 229.265532 
L 88.812026 229.265532 
L 88.812026 220.069847 
L 83.699356 220.069847 
z
" style="fill:#7fcdbb;stroke:#000000;stroke-linejoin:miter;"/>
   </g>
   <g id="patch_59">
    <path clip-path="url(#pf0f8c5a971)" d="M 88.812026 230.915139 
L 93.924696 230.915139 
L 93.924696 217.893768 
L 88.812026 217.893768 
z
" style="fill:#7fcdbb;stroke:#000000;stroke-linejoin:miter;"/>
   </g>
   <g id="patch_60">
    <path clip-path="url(#pf0f8c5a971)" d="M 93.924696 232.389257 
L 99.037366 232.389257 
L 99.037366 219.1222 
L 93.924696 219.1222 
z
" style="fill:#7fcdbb;stroke:#000000;stroke-linejoin:miter;"/>
   </g>
   <g id="patch_61">
    <path clip-path="url(#pf0f8c5a971)" d="M 99.037366 233.056119 
L 104.150036 233.056119 
L 104.150036 218.736121 
L 99.037366 218.736121 
z
" style="fill:#7fcdbb;stroke:#000000;stroke-linejoin:miter;"/>
   </g>
   <g id="patch_62">
    <path clip-path="url(#pf0f8c5a971)" d="M 104.150036 232.003178 
L 109.262706 232.003178 
L 109.262706 215.507102 
L 104.150036 215.507102 
z
" style="fill:#7fcdbb;stroke:#000000;stroke-linejoin:miter;"/>
   </g>
   <g id="patch_63">
    <path clip-path="url(#pf0f8c5a971)" d="M 109.262706 228.563571 
L 114.375376 228.563571 
L 114.375376 209.786123 
L 109.262706 209.786123 
z
" style="fill:#7fcdbb;stroke:#000000;stroke-linejoin:miter;"/>
   </g>
   <g id="patch_64">
    <path clip-path="url(#pf0f8c5a971)" d="M 114.375376 225.088866 
L 119.488046 225.088866 
L 119.488046 204.170437 
L 114.375376 204.170437 
z
" style="fill:#7fcdbb;stroke:#000000;stroke-linejoin:miter;"/>
   </g>
   <g id="patch_65">
    <path clip-path="url(#pf0f8c5a971)" d="M 119.488046 226.352395 
L 124.600716 226.352395 
L 124.600716 203.643967 
L 119.488046 203.643967 
z
" style="fill:#7fcdbb;stroke:#000000;stroke-linejoin:miter;"/>
   </g>
   <g id="patch_66">
    <path clip-path="url(#pf0f8c5a971)" d="M 124.600716 226.773571 
L 129.713386 226.773571 
L 129.713386 199.29181 
L 124.600716 199.29181 
z
" style="fill:#7fcdbb;stroke:#000000;stroke-linejoin:miter;"/>
   </g>
   <g id="patch_67">
    <path clip-path="url(#pf0f8c5a971)" d="M 129.713386 228.002002 
L 134.826056 228.002002 
L 134.826056 195.18534 
L 129.713386 195.18534 
z
" style="fill:#7fcdbb;stroke:#000000;stroke-linejoin:miter;"/>
   </g>
   <g id="patch_68">
    <path clip-path="url(#pf0f8c5a971)" d="M 134.826056 229.511218 
L 139.938726 229.511218 
L 139.938726 189.323969 
L 134.826056 189.323969 
z
" style="fill:#7fcdbb;stroke:#000000;stroke-linejoin:miter;"/>
   </g>
   <g id="patch_69">
    <path clip-path="url(#pf0f8c5a971)" d="M 139.938726 223.369062 
L 145.051396 223.369062 
L 145.051396 176.583382 
L 139.938726 176.583382 
z
" style="fill:#7fcdbb;stroke:#000000;stroke-linejoin:miter;"/>
   </g>
   <g id="patch_70">
    <path clip-path="url(#pf0f8c5a971)" d="M 145.051396 229.30063 
L 150.164066 229.30063 
L 150.164066 173.389461 
L 145.051396 173.389461 
z
" style="fill:#7fcdbb;stroke:#000000;stroke-linejoin:miter;"/>
   </g>
   <g id="patch_71">
    <path clip-path="url(#pf0f8c5a971)" d="M 150.164066 230.388669 
L 155.276736 230.388669 
L 155.276736 180.619656 
L 150.164066 180.619656 
z
" style="fill:#7fcdbb;stroke:#000000;stroke-linejoin:miter;"/>
   </g>
   <g id="patch_72">
    <path clip-path="url(#pf0f8c5a971)" d="M 155.276736 231.79259 
L 160.389406 231.79259 
L 160.389406 171.143187 
L 155.276736 171.143187 
z
" style="fill:#7fcdbb;stroke:#000000;stroke-linejoin:miter;"/>
   </g>
   <g id="patch_73">
    <path clip-path="url(#pf0f8c5a971)" d="M 160.389406 233.372002 
L 165.502076 233.372002 
L 165.502076 155.840444 
L 160.389406 155.840444 
z
" style="fill:#7fcdbb;stroke:#000000;stroke-linejoin:miter;"/>
   </g>
   <g id="patch_74">
    <path clip-path="url(#pf0f8c5a971)" d="M 165.502076 234.811021 
L 170.614746 234.811021 
L 170.614746 146.434171 
L 165.502076 146.434171 
z
" style="fill:#7fcdbb;stroke:#000000;stroke-linejoin:miter;"/>
   </g>
   <g id="patch_75">
    <path clip-path="url(#pf0f8c5a971)" d="M 170.614746 233.056119 
L 175.727416 233.056119 
L 175.727416 158.929071 
L 170.614746 158.929071 
z
" style="fill:#7fcdbb;stroke:#000000;stroke-linejoin:miter;"/>
   </g>
   <g id="patch_76">
    <path clip-path="url(#pf0f8c5a971)" d="M 175.727416 233.652786 
L 180.840086 233.652786 
L 180.840086 187.14789 
L 175.727416 187.14789 
z
" style="fill:#7fcdbb;stroke:#000000;stroke-linejoin:miter;"/>
   </g>
   <g id="patch_77">
    <path clip-path="url(#pf0f8c5a971)" d="M 180.840086 235.126903 
L 185.952756 235.126903 
L 185.952756 180.970636 
L 180.840086 180.970636 
z
" style="fill:#7fcdbb;stroke:#000000;stroke-linejoin:miter;"/>
   </g>
   <g id="patch_78">
    <path clip-path="url(#pf0f8c5a971)" d="M 185.952756 236.109648 
L 191.065426 236.109648 
L 191.065426 180.058088 
L 185.952756 180.058088 
z
" style="fill:#7fcdbb;stroke:#000000;stroke-linejoin:miter;"/>
   </g>
   <g id="patch_79">
    <path clip-path="url(#pf0f8c5a971)" d="M 191.065426 236.25004 
L 196.178096 236.25004 
L 196.178096 196.132987 
L 191.065426 196.132987 
z
" style="fill:#7fcdbb;stroke:#000000;stroke-linejoin:miter;"/>
   </g>
   <g id="patch_80">
    <path clip-path="url(#pf0f8c5a971)" d="M 196.178096 236.671217 
L 201.290766 236.671217 
L 201.290766 203.819457 
L 196.178096 203.819457 
z
" style="fill:#7fcdbb;stroke:#000000;stroke-linejoin:miter;"/>
   </g>
   <g id="patch_81">
    <path clip-path="url(#pf0f8c5a971)" d="M 201.290766 236.706315 
L 206.403436 236.706315 
L 206.403436 213.190632 
L 201.290766 213.190632 
z
" style="fill:#7fcdbb;stroke:#000000;stroke-linejoin:miter;"/>
   </g>
   <g id="patch_82">
    <path clip-path="url(#pf0f8c5a971)" d="M 206.403436 236.811609 
L 211.516106 236.811609 
L 211.516106 221.333376 
L 206.403436 221.333376 
z
" style="fill:#7fcdbb;stroke:#000000;stroke-linejoin:miter;"/>
   </g>
   <g id="patch_83">
    <path clip-path="url(#pf0f8c5a971)" d="M 211.516106 237.197687 
L 216.628776 237.197687 
L 216.628776 228.739061 
L 211.516106 228.739061 
z
" style="fill:#7fcdbb;stroke:#000000;stroke-linejoin:miter;"/>
   </g>
   <g id="patch_84">
    <path clip-path="url(#pf0f8c5a971)" d="M 216.628776 237.408276 
L 221.741446 237.408276 
L 221.741446 234.530237 
L 216.628776 234.530237 
z
" style="fill:#7fcdbb;stroke:#000000;stroke-linejoin:miter;"/>
   </g>
   <g id="patch_85">
    <path clip-path="url(#pf0f8c5a971)" d="M 221.741446 237.794354 
L 226.854116 237.794354 
L 226.854116 236.25004 
L 221.741446 236.25004 
z
" style="fill:#7fcdbb;stroke:#000000;stroke-linejoin:miter;"/>
   </g>
   <g id="patch_86">
    <path clip-path="url(#pf0f8c5a971)" d="M 226.854116 237.86455 
L 231.966786 237.86455 
L 231.966786 237.092393 
L 226.854116 237.092393 
z
" style="fill:#7fcdbb;stroke:#000000;stroke-linejoin:miter;"/>
   </g>
   <g id="patch_87">
    <path clip-path="url(#pf0f8c5a971)" d="M 231.966786 237.969844 
L 237.079456 237.969844 
L 237.079456 237.408276 
L 231.966786 237.408276 
z
" style="fill:#7fcdbb;stroke:#000000;stroke-linejoin:miter;"/>
   </g>
   <g id="patch_88">
    <path clip-path="url(#pf0f8c5a971)" d="M 237.079456 237.899648 
L 242.192126 237.899648 
L 242.192126 237.618864 
L 237.079456 237.618864 
z
" style="fill:#7fcdbb;stroke:#000000;stroke-linejoin:miter;"/>
   </g>
   <g id="patch_89">
    <path clip-path="url(#pf0f8c5a971)" d="M 242.192126 238.004942 
L 247.304796 238.004942 
L 247.304796 237.653962 
L 242.192126 237.653962 
z
" style="fill:#7fcdbb;stroke:#000000;stroke-linejoin:miter;"/>
   </g>
   <g id="patch_90">
    <path clip-path="url(#pf0f8c5a971)" d="M 247.304796 237.969844 
L 252.417466 237.969844 
L 252.417466 237.548668 
L 247.304796 237.548668 
z
" style="fill:#7fcdbb;stroke:#000000;stroke-linejoin:miter;"/>
   </g>
   <g id="patch_91">
    <path clip-path="url(#pf0f8c5a971)" d="M 252.417466 238.004942 
L 257.530136 238.004942 
L 257.530136 237.759256 
L 252.417466 237.759256 
z
" style="fill:#7fcdbb;stroke:#000000;stroke-linejoin:miter;"/>
   </g>
   <g id="patch_92">
    <path clip-path="url(#pf0f8c5a971)" d="M 257.530136 238.075138 
L 262.642806 238.075138 
L 262.642806 238.004942 
L 257.530136 238.004942 
z
" style="fill:#7fcdbb;stroke:#000000;stroke-linejoin:miter;"/>
   </g>
   <g id="patch_93">
    <path clip-path="url(#pf0f8c5a971)" d="M 262.642806 238.075138 
L 267.755476 238.075138 
L 267.755476 238.075138 
L 262.642806 238.075138 
z
" style="fill:#7fcdbb;stroke:#000000;stroke-linejoin:miter;"/>
   </g>
   <g id="patch_94">
    <path clip-path="url(#pf0f8c5a971)" d="M 267.755476 238.110236 
L 272.868146 238.110236 
L 272.868146 238.075138 
L 267.755476 238.075138 
z
" style="fill:#7fcdbb;stroke:#000000;stroke-linejoin:miter;"/>
   </g>
   <g id="patch_95">
    <path clip-path="url(#pf0f8c5a971)" d="M 272.868146 238.04004 
L 277.980816 238.04004 
L 277.980816 238.04004 
L 272.868146 238.04004 
z
" style="fill:#7fcdbb;stroke:#000000;stroke-linejoin:miter;"/>
   </g>
   <g id="patch_96">
    <path clip-path="url(#pf0f8c5a971)" d="M 277.980816 238.110236 
L 283.093486 238.110236 
L 283.093486 238.110236 
L 277.980816 238.110236 
z
" style="fill:#7fcdbb;stroke:#000000;stroke-linejoin:miter;"/>
   </g>
   <g id="patch_97">
    <path clip-path="url(#pf0f8c5a971)" d="M 283.093486 238.075138 
L 288.206156 238.075138 
L 288.206156 238.075138 
L 283.093486 238.075138 
z
" style="fill:#7fcdbb;stroke:#000000;stroke-linejoin:miter;"/>
   </g>
   <g id="patch_98">
    <path clip-path="url(#pf0f8c5a971)" d="M 288.206156 238.110236 
L 293.318826 238.110236 
L 293.318826 238.110236 
L 288.206156 238.110236 
z
" style="fill:#7fcdbb;stroke:#000000;stroke-linejoin:miter;"/>
   </g>
   <g id="patch_99">
    <path clip-path="url(#pf0f8c5a971)" d="M 293.318826 238.110236 
L 298.431496 238.110236 
L 298.431496 238.110236 
L 293.318826 238.110236 
z
" style="fill:#7fcdbb;stroke:#000000;stroke-linejoin:miter;"/>
   </g>
   <g id="patch_100">
    <path clip-path="url(#pf0f8c5a971)" d="M 298.431496 238.110236 
L 303.544166 238.110236 
L 303.544166 238.110236 
L 298.431496 238.110236 
z
" style="fill:#7fcdbb;stroke:#000000;stroke-linejoin:miter;"/>
   </g>
   <g id="patch_101">
    <path clip-path="url(#pf0f8c5a971)" d="M 303.544166 238.075138 
L 308.656836 238.075138 
L 308.656836 238.075138 
L 303.544166 238.075138 
z
" style="fill:#7fcdbb;stroke:#000000;stroke-linejoin:miter;"/>
   </g>
   <g id="patch_102">
    <path clip-path="url(#pf0f8c5a971)" d="M 308.656836 238.04004 
L 313.769506 238.04004 
L 313.769506 238.04004 
L 308.656836 238.04004 
z
" style="fill:#7fcdbb;stroke:#000000;stroke-linejoin:miter;"/>
   </g>
   <g id="patch_103">
    <path clip-path="url(#pf0f8c5a971)" d="M 58.136006 236.07455 
L 63.248676 236.07455 
L 63.248676 235.793766 
L 58.136006 235.793766 
z
" style="fill:#2c7fb8;stroke:#000000;stroke-linejoin:miter;"/>
   </g>
   <g id="patch_104">
    <path clip-path="url(#pf0f8c5a971)" d="M 63.248676 233.828276 
L 68.361346 233.828276 
L 68.361346 232.950825 
L 63.248676 232.950825 
z
" style="fill:#2c7fb8;stroke:#000000;stroke-linejoin:miter;"/>
   </g>
   <g id="patch_105">
    <path clip-path="url(#pf0f8c5a971)" d="M 68.361346 233.477296 
L 73.474016 233.477296 
L 73.474016 228.528473 
L 68.361346 228.528473 
z
" style="fill:#2c7fb8;stroke:#000000;stroke-linejoin:miter;"/>
   </g>
   <g id="patch_106">
    <path clip-path="url(#pf0f8c5a971)" d="M 73.474016 230.950237 
L 78.586686 230.950237 
L 78.586686 222.772395 
L 73.474016 222.772395 
z
" style="fill:#2c7fb8;stroke:#000000;stroke-linejoin:miter;"/>
   </g>
   <g id="patch_107">
    <path clip-path="url(#pf0f8c5a971)" d="M 78.586686 225.229258 
L 83.699356 225.229258 
L 83.699356 217.788474 
L 78.586686 217.788474 
z
" style="fill:#2c7fb8;stroke:#000000;stroke-linejoin:miter;"/>
   </g>
   <g id="patch_108">
    <path clip-path="url(#pf0f8c5a971)" d="M 83.699356 220.069847 
L 88.812026 220.069847 
L 88.812026 212.102593 
L 83.699356 212.102593 
z
" style="fill:#2c7fb8;stroke:#000000;stroke-linejoin:miter;"/>
   </g>
   <g id="patch_109">
    <path clip-path="url(#pf0f8c5a971)" d="M 88.812026 217.893768 
L 93.924696 217.893768 
L 93.924696 209.11926 
L 88.812026 209.11926 
z
" style="fill:#2c7fb8;stroke:#000000;stroke-linejoin:miter;"/>
   </g>
   <g id="patch_110">
    <path clip-path="url(#pf0f8c5a971)" d="M 93.924696 219.1222 
L 99.037366 219.1222 
L 99.037366 204.205535 
L 93.924696 204.205535 
z
" style="fill:#2c7fb8;stroke:#000000;stroke-linejoin:miter;"/>
   </g>
   <g id="patch_111">
    <path clip-path="url(#pf0f8c5a971)" d="M 99.037366 218.736121 
L 104.150036 218.736121 
L 104.150036 205.258476 
L 99.037366 205.258476 
z
" style="fill:#2c7fb8;stroke:#000000;stroke-linejoin:miter;"/>
   </g>
   <g id="patch_112">
    <path clip-path="url(#pf0f8c5a971)" d="M 104.150036 215.507102 
L 109.262706 215.507102 
L 109.262706 197.15083 
L 104.150036 197.15083 
z
" style="fill:#2c7fb8;stroke:#000000;stroke-linejoin:miter;"/>
   </g>
   <g id="patch_113">
    <path clip-path="url(#pf0f8c5a971)" d="M 109.262706 209.786123 
L 114.375376 209.786123 
L 114.375376 191.324557 
L 109.262706 191.324557 
z
" style="fill:#2c7fb8;stroke:#000000;stroke-linejoin:miter;"/>
   </g>
   <g id="patch_114">
    <path clip-path="url(#pf0f8c5a971)" d="M 114.375376 204.170437 
L 119.488046 204.170437 
L 119.488046 183.04142 
L 114.375376 183.04142 
z
" style="fill:#2c7fb8;stroke:#000000;stroke-linejoin:miter;"/>
   </g>
   <g id="patch_115">
    <path clip-path="url(#pf0f8c5a971)" d="M 119.488046 203.643967 
L 124.600716 203.643967 
L 124.600716 180.163382 
L 119.488046 180.163382 
z
" style="fill:#2c7fb8;stroke:#000000;stroke-linejoin:miter;"/>
   </g>
   <g id="patch_116">
    <path clip-path="url(#pf0f8c5a971)" d="M 124.600716 199.29181 
L 129.713386 199.29181 
L 129.713386 166.404952 
L 124.600716 166.404952 
z
" style="fill:#2c7fb8;stroke:#000000;stroke-linejoin:miter;"/>
   </g>
   <g id="patch_117">
    <path clip-path="url(#pf0f8c5a971)" d="M 129.713386 195.18534 
L 134.826056 195.18534 
L 134.826056 159.84162 
L 129.713386 159.84162 
z
" style="fill:#2c7fb8;stroke:#000000;stroke-linejoin:miter;"/>
   </g>
   <g id="patch_118">
    <path clip-path="url(#pf0f8c5a971)" d="M 134.826056 189.323969 
L 139.938726 189.323969 
L 139.938726 147.487112 
L 134.826056 147.487112 
z
" style="fill:#2c7fb8;stroke:#000000;stroke-linejoin:miter;"/>
   </g>
   <g id="patch_119">
    <path clip-path="url(#pf0f8c5a971)" d="M 139.938726 176.583382 
L 145.051396 176.583382 
L 145.051396 141.380054 
L 139.938726 141.380054 
z
" style="fill:#2c7fb8;stroke:#000000;stroke-linejoin:miter;"/>
   </g>
   <g id="patch_120">
    <path clip-path="url(#pf0f8c5a971)" d="M 145.051396 173.389461 
L 150.164066 173.389461 
L 150.164066 130.92084 
L 145.051396 130.92084 
z
" style="fill:#2c7fb8;stroke:#000000;stroke-linejoin:miter;"/>
   </g>
   <g id="patch_121">
    <path clip-path="url(#pf0f8c5a971)" d="M 150.164066 180.619656 
L 155.276736 180.619656 
L 155.276736 136.115349 
L 150.164066 136.115349 
z
" style="fill:#2c7fb8;stroke:#000000;stroke-linejoin:miter;"/>
   </g>
   <g id="patch_122">
    <path clip-path="url(#pf0f8c5a971)" d="M 155.276736 171.143187 
L 160.389406 171.143187 
L 160.389406 112.248685 
L 155.276736 112.248685 
z
" style="fill:#2c7fb8;stroke:#000000;stroke-linejoin:miter;"/>
   </g>
   <g id="patch_123">
    <path clip-path="url(#pf0f8c5a971)" d="M 160.389406 155.840444 
L 165.502076 155.840444 
L 165.502076 64.234574 
L 160.389406 64.234574 
z
" style="fill:#2c7fb8;stroke:#000000;stroke-linejoin:miter;"/>
   </g>
   <g id="patch_124">
    <path clip-path="url(#pf0f8c5a971)" d="M 165.502076 146.434171 
L 170.614746 146.434171 
L 170.614746 42.438695 
L 165.502076 42.438695 
z
" style="fill:#2c7fb8;stroke:#000000;stroke-linejoin:miter;"/>
   </g>
   <g id="patch_125">
    <path clip-path="url(#pf0f8c5a971)" d="M 170.614746 158.929071 
L 175.727416 158.929071 
L 175.727416 58.969869 
L 170.614746 58.969869 
z
" style="fill:#2c7fb8;stroke:#000000;stroke-linejoin:miter;"/>
   </g>
   <g id="patch_126">
    <path clip-path="url(#pf0f8c5a971)" d="M 175.727416 187.14789 
L 180.840086 187.14789 
L 180.840086 127.586526 
L 175.727416 127.586526 
z
" style="fill:#2c7fb8;stroke:#000000;stroke-linejoin:miter;"/>
   </g>
   <g id="patch_127">
    <path clip-path="url(#pf0f8c5a971)" d="M 180.840086 180.970636 
L 185.952756 180.970636 
L 185.952756 151.45319 
L 180.840086 151.45319 
z
" style="fill:#2c7fb8;stroke:#000000;stroke-linejoin:miter;"/>
   </g>
   <g id="patch_128">
    <path clip-path="url(#pf0f8c5a971)" d="M 185.952756 180.058088 
L 191.065426 180.058088 
L 191.065426 158.297306 
L 185.952756 158.297306 
z
" style="fill:#2c7fb8;stroke:#000000;stroke-linejoin:miter;"/>
   </g>
   <g id="patch_129">
    <path clip-path="url(#pf0f8c5a971)" d="M 191.065426 196.132987 
L 196.178096 196.132987 
L 196.178096 186.656518 
L 191.065426 186.656518 
z
" style="fill:#2c7fb8;stroke:#000000;stroke-linejoin:miter;"/>
   </g>
   <g id="patch_130">
    <path clip-path="url(#pf0f8c5a971)" d="M 196.178096 203.819457 
L 201.290766 203.819457 
L 201.290766 199.29181 
L 196.178096 199.29181 
z
" style="fill:#2c7fb8;stroke:#000000;stroke-linejoin:miter;"/>
   </g>
   <g id="patch_131">
    <path clip-path="url(#pf0f8c5a971)" d="M 201.290766 213.190632 
L 206.403436 213.190632 
L 206.403436 210.663573 
L 201.290766 210.663573 
z
" style="fill:#2c7fb8;stroke:#000000;stroke-linejoin:miter;"/>
   </g>
   <g id="patch_132">
    <path clip-path="url(#pf0f8c5a971)" d="M 206.403436 221.333376 
L 211.516106 221.333376 
L 211.516106 219.578474 
L 206.403436 219.578474 
z
" style="fill:#2c7fb8;stroke:#000000;stroke-linejoin:miter;"/>
   </g>
   <g id="patch_133">
    <path clip-path="url(#pf0f8c5a971)" d="M 211.516106 228.739061 
L 216.628776 228.739061 
L 216.628776 227.791414 
L 211.516106 227.791414 
z
" style="fill:#2c7fb8;stroke:#000000;stroke-linejoin:miter;"/>
   </g>
   <g id="patch_134">
    <path clip-path="url(#pf0f8c5a971)" d="M 216.628776 234.530237 
L 221.741446 234.530237 
L 221.741446 234.214354 
L 216.628776 234.214354 
z
" style="fill:#2c7fb8;stroke:#000000;stroke-linejoin:miter;"/>
   </g>
   <g id="patch_135">
    <path clip-path="url(#pf0f8c5a971)" d="M 221.741446 236.25004 
L 226.854116 236.25004 
L 226.854116 236.179844 
L 221.741446 236.179844 
z
" style="fill:#2c7fb8;stroke:#000000;stroke-linejoin:miter;"/>
   </g>
   <g id="patch_136">
    <path clip-path="url(#pf0f8c5a971)" d="M 226.854116 237.092393 
L 231.966786 237.092393 
L 231.966786 236.952001 
L 226.854116 236.952001 
z
" style="fill:#2c7fb8;stroke:#000000;stroke-linejoin:miter;"/>
   </g>
   <g id="patch_137">
    <path clip-path="url(#pf0f8c5a971)" d="M 231.966786 237.408276 
L 237.079456 237.408276 
L 237.079456 237.408276 
L 231.966786 237.408276 
z
" style="fill:#2c7fb8;stroke:#000000;stroke-linejoin:miter;"/>
   </g>
   <g id="patch_138">
    <path clip-path="url(#pf0f8c5a971)" d="M 237.079456 237.618864 
L 242.192126 237.618864 
L 242.192126 237.51357 
L 237.079456 237.51357 
z
" style="fill:#2c7fb8;stroke:#000000;stroke-linejoin:miter;"/>
   </g>
   <g id="patch_139">
    <path clip-path="url(#pf0f8c5a971)" d="M 242.192126 237.653962 
L 247.304796 237.653962 
L 247.304796 237.653962 
L 242.192126 237.653962 
z
" style="fill:#2c7fb8;stroke:#000000;stroke-linejoin:miter;"/>
   </g>
   <g id="patch_140">
    <path clip-path="url(#pf0f8c5a971)" d="M 247.304796 237.548668 
L 252.417466 237.548668 
L 252.417466 237.548668 
L 247.304796 237.548668 
z
" style="fill:#2c7fb8;stroke:#000000;stroke-linejoin:miter;"/>
   </g>
   <g id="patch_141">
    <path clip-path="url(#pf0f8c5a971)" d="M 252.417466 237.759256 
L 257.530136 237.759256 
L 257.530136 237.759256 
L 252.417466 237.759256 
z
" style="fill:#2c7fb8;stroke:#000000;stroke-linejoin:miter;"/>
   </g>
   <g id="patch_142">
    <path clip-path="url(#pf0f8c5a971)" d="M 257.530136 238.004942 
L 262.642806 238.004942 
L 262.642806 238.004942 
L 257.530136 238.004942 
z
" style="fill:#2c7fb8;stroke:#000000;stroke-linejoin:miter;"/>
   </g>
   <g id="patch_143">
    <path clip-path="url(#pf0f8c5a971)" d="M 262.642806 238.075138 
L 267.755476 238.075138 
L 267.755476 238.075138 
L 262.642806 238.075138 
z
" style="fill:#2c7fb8;stroke:#000000;stroke-linejoin:miter;"/>
   </g>
   <g id="patch_144">
    <path clip-path="url(#pf0f8c5a971)" d="M 267.755476 238.075138 
L 272.868146 238.075138 
L 272.868146 238.075138 
L 267.755476 238.075138 
z
" style="fill:#2c7fb8;stroke:#000000;stroke-linejoin:miter;"/>
   </g>
   <g id="patch_145">
    <path clip-path="url(#pf0f8c5a971)" d="M 272.868146 238.04004 
L 277.980816 238.04004 
L 277.980816 238.04004 
L 272.868146 238.04004 
z
" style="fill:#2c7fb8;stroke:#000000;stroke-linejoin:miter;"/>
   </g>
   <g id="patch_146">
    <path clip-path="url(#pf0f8c5a971)" d="M 277.980816 238.110236 
L 283.093486 238.110236 
L 283.093486 238.110236 
L 277.980816 238.110236 
z
" style="fill:#2c7fb8;stroke:#000000;stroke-linejoin:miter;"/>
   </g>
   <g id="patch_147">
    <path clip-path="url(#pf0f8c5a971)" d="M 283.093486 238.075138 
L 288.206156 238.075138 
L 288.206156 238.075138 
L 283.093486 238.075138 
z
" style="fill:#2c7fb8;stroke:#000000;stroke-linejoin:miter;"/>
   </g>
   <g id="patch_148">
    <path clip-path="url(#pf0f8c5a971)" d="M 288.206156 238.110236 
L 293.318826 238.110236 
L 293.318826 238.110236 
L 288.206156 238.110236 
z
" style="fill:#2c7fb8;stroke:#000000;stroke-linejoin:miter;"/>
   </g>
   <g id="patch_149">
    <path clip-path="url(#pf0f8c5a971)" d="M 293.318826 238.110236 
L 298.431496 238.110236 
L 298.431496 238.110236 
L 293.318826 238.110236 
z
" style="fill:#2c7fb8;stroke:#000000;stroke-linejoin:miter;"/>
   </g>
   <g id="patch_150">
    <path clip-path="url(#pf0f8c5a971)" d="M 298.431496 238.110236 
L 303.544166 238.110236 
L 303.544166 238.110236 
L 298.431496 238.110236 
z
" style="fill:#2c7fb8;stroke:#000000;stroke-linejoin:miter;"/>
   </g>
   <g id="patch_151">
    <path clip-path="url(#pf0f8c5a971)" d="M 303.544166 238.075138 
L 308.656836 238.075138 
L 308.656836 238.075138 
L 303.544166 238.075138 
z
" style="fill:#2c7fb8;stroke:#000000;stroke-linejoin:miter;"/>
   </g>
   <g id="patch_152">
    <path clip-path="url(#pf0f8c5a971)" d="M 308.656836 238.04004 
L 313.769506 238.04004 
L 313.769506 238.04004 
L 308.656836 238.04004 
z
" style="fill:#2c7fb8;stroke:#000000;stroke-linejoin:miter;"/>
   </g>
   <g id="matplotlib.axis_1">
    <g id="xtick_1">
     <g id="line2d_1">
      <defs>
       <path d="M 0 0 
L 0 3.5 
" id="m33be31a0ee" style="stroke:#000000;stroke-width:0.8;"/>
      </defs>
      <g>
       <use style="stroke:#000000;stroke-width:0.8;" x="59.629403" xlink:href="#m33be31a0ee" y="238.110236"/>
      </g>
     </g>
     <g id="text_1">
      <!-- 500 -->
      <defs>
       <path d="M 10.796875 72.90625 
L 49.515625 72.90625 
L 49.515625 64.59375 
L 19.828125 64.59375 
L 19.828125 46.734375 
Q 21.96875 47.46875 24.109375 47.828125 
Q 26.265625 48.1875 28.421875 48.1875 
Q 40.625 48.1875 47.75 41.5 
Q 54.890625 34.8125 54.890625 23.390625 
Q 54.890625 11.625 47.5625 5.09375 
Q 40.234375 -1.421875 26.90625 -1.421875 
Q 22.3125 -1.421875 17.546875 -0.640625 
Q 12.796875 0.140625 7.71875 1.703125 
L 7.71875 11.625 
Q 12.109375 9.234375 16.796875 8.0625 
Q 21.484375 6.890625 26.703125 6.890625 
Q 35.15625 6.890625 40.078125 11.328125 
Q 45.015625 15.765625 45.015625 23.390625 
Q 45.015625 31 40.078125 35.4375 
Q 35.15625 39.890625 26.703125 39.890625 
Q 22.75 39.890625 18.8125 39.015625 
Q 14.890625 38.140625 10.796875 36.28125 
z
" id="DejaVuSans-53"/>
       <path d="M 31.78125 66.40625 
Q 24.171875 66.40625 20.328125 58.90625 
Q 16.5 51.421875 16.5 36.375 
Q 16.5 21.390625 20.328125 13.890625 
Q 24.171875 6.390625 31.78125 6.390625 
Q 39.453125 6.390625 43.28125 13.890625 
Q 47.125 21.390625 47.125 36.375 
Q 47.125 51.421875 43.28125 58.90625 
Q 39.453125 66.40625 31.78125 66.40625 
z
M 31.78125 74.21875 
Q 44.046875 74.21875 50.515625 64.515625 
Q 56.984375 54.828125 56.984375 36.375 
Q 56.984375 17.96875 50.515625 8.265625 
Q 44.046875 -1.421875 31.78125 -1.421875 
Q 19.53125 -1.421875 13.0625 8.265625 
Q 6.59375 17.96875 6.59375 36.375 
Q 6.59375 54.828125 13.0625 64.515625 
Q 19.53125 74.21875 31.78125 74.21875 
z
" id="DejaVuSans-48"/>
      </defs>
      <g transform="translate(51.994403 251.188986)scale(0.08 -0.08)">
       <use xlink:href="#DejaVuSans-53"/>
       <use x="63.623047" xlink:href="#DejaVuSans-48"/>
       <use x="127.246094" xlink:href="#DejaVuSans-48"/>
      </g>
     </g>
    </g>
    <g id="xtick_2">
     <g id="line2d_2">
      <g>
       <use style="stroke:#000000;stroke-width:0.8;" x="99.84487" xlink:href="#m33be31a0ee" y="238.110236"/>
      </g>
     </g>
     <g id="text_2">
      <!-- 1000 -->
      <defs>
       <path d="M 12.40625 8.296875 
L 28.515625 8.296875 
L 28.515625 63.921875 
L 10.984375 60.40625 
L 10.984375 69.390625 
L 28.421875 72.90625 
L 38.28125 72.90625 
L 38.28125 8.296875 
L 54.390625 8.296875 
L 54.390625 0 
L 12.40625 0 
z
" id="DejaVuSans-49"/>
      </defs>
      <g transform="translate(89.66487 251.188986)scale(0.08 -0.08)">
       <use xlink:href="#DejaVuSans-49"/>
       <use x="63.623047" xlink:href="#DejaVuSans-48"/>
       <use x="127.246094" xlink:href="#DejaVuSans-48"/>
       <use x="190.869141" xlink:href="#DejaVuSans-48"/>
      </g>
     </g>
    </g>
    <g id="xtick_3">
     <g id="line2d_3">
      <g>
       <use style="stroke:#000000;stroke-width:0.8;" x="140.060337" xlink:href="#m33be31a0ee" y="238.110236"/>
      </g>
     </g>
     <g id="text_3">
      <!-- 1500 -->
      <g transform="translate(129.880337 251.188986)scale(0.08 -0.08)">
       <use xlink:href="#DejaVuSans-49"/>
       <use x="63.623047" xlink:href="#DejaVuSans-53"/>
       <use x="127.246094" xlink:href="#DejaVuSans-48"/>
       <use x="190.869141" xlink:href="#DejaVuSans-48"/>
      </g>
     </g>
    </g>
    <g id="xtick_4">
     <g id="line2d_4">
      <g>
       <use style="stroke:#000000;stroke-width:0.8;" x="180.275805" xlink:href="#m33be31a0ee" y="238.110236"/>
      </g>
     </g>
     <g id="text_4">
      <!-- 2000 -->
      <defs>
       <path d="M 19.1875 8.296875 
L 53.609375 8.296875 
L 53.609375 0 
L 7.328125 0 
L 7.328125 8.296875 
Q 12.9375 14.109375 22.625 23.890625 
Q 32.328125 33.6875 34.8125 36.53125 
Q 39.546875 41.84375 41.421875 45.53125 
Q 43.3125 49.21875 43.3125 52.78125 
Q 43.3125 58.59375 39.234375 62.25 
Q 35.15625 65.921875 28.609375 65.921875 
Q 23.96875 65.921875 18.8125 64.3125 
Q 13.671875 62.703125 7.8125 59.421875 
L 7.8125 69.390625 
Q 13.765625 71.78125 18.9375 73 
Q 24.125 74.21875 28.421875 74.21875 
Q 39.75 74.21875 46.484375 68.546875 
Q 53.21875 62.890625 53.21875 53.421875 
Q 53.21875 48.921875 51.53125 44.890625 
Q 49.859375 40.875 45.40625 35.40625 
Q 44.1875 33.984375 37.640625 27.21875 
Q 31.109375 20.453125 19.1875 8.296875 
z
" id="DejaVuSans-50"/>
      </defs>
      <g transform="translate(170.095805 251.188986)scale(0.08 -0.08)">
       <use xlink:href="#DejaVuSans-50"/>
       <use x="63.623047" xlink:href="#DejaVuSans-48"/>
       <use x="127.246094" xlink:href="#DejaVuSans-48"/>
       <use x="190.869141" xlink:href="#DejaVuSans-48"/>
      </g>
     </g>
    </g>
    <g id="xtick_5">
     <g id="line2d_5">
      <g>
       <use style="stroke:#000000;stroke-width:0.8;" x="220.491272" xlink:href="#m33be31a0ee" y="238.110236"/>
      </g>
     </g>
     <g id="text_5">
      <!-- 2500 -->
      <g transform="translate(210.311272 251.188986)scale(0.08 -0.08)">
       <use xlink:href="#DejaVuSans-50"/>
       <use x="63.623047" xlink:href="#DejaVuSans-53"/>
       <use x="127.246094" xlink:href="#DejaVuSans-48"/>
       <use x="190.869141" xlink:href="#DejaVuSans-48"/>
      </g>
     </g>
    </g>
    <g id="xtick_6">
     <g id="line2d_6">
      <g>
       <use style="stroke:#000000;stroke-width:0.8;" x="260.706739" xlink:href="#m33be31a0ee" y="238.110236"/>
      </g>
     </g>
     <g id="text_6">
      <!-- 3000 -->
      <defs>
       <path d="M 40.578125 39.3125 
Q 47.65625 37.796875 51.625 33 
Q 55.609375 28.21875 55.609375 21.1875 
Q 55.609375 10.40625 48.1875 4.484375 
Q 40.765625 -1.421875 27.09375 -1.421875 
Q 22.515625 -1.421875 17.65625 -0.515625 
Q 12.796875 0.390625 7.625 2.203125 
L 7.625 11.71875 
Q 11.71875 9.328125 16.59375 8.109375 
Q 21.484375 6.890625 26.8125 6.890625 
Q 36.078125 6.890625 40.9375 10.546875 
Q 45.796875 14.203125 45.796875 21.1875 
Q 45.796875 27.640625 41.28125 31.265625 
Q 36.765625 34.90625 28.71875 34.90625 
L 20.21875 34.90625 
L 20.21875 43.015625 
L 29.109375 43.015625 
Q 36.375 43.015625 40.234375 45.921875 
Q 44.09375 48.828125 44.09375 54.296875 
Q 44.09375 59.90625 40.109375 62.90625 
Q 36.140625 65.921875 28.71875 65.921875 
Q 24.65625 65.921875 20.015625 65.03125 
Q 15.375 64.15625 9.8125 62.3125 
L 9.8125 71.09375 
Q 15.4375 72.65625 20.34375 73.4375 
Q 25.25 74.21875 29.59375 74.21875 
Q 40.828125 74.21875 47.359375 69.109375 
Q 53.90625 64.015625 53.90625 55.328125 
Q 53.90625 49.265625 50.4375 45.09375 
Q 46.96875 40.921875 40.578125 39.3125 
z
" id="DejaVuSans-51"/>
      </defs>
      <g transform="translate(250.526739 251.188986)scale(0.08 -0.08)">
       <use xlink:href="#DejaVuSans-51"/>
       <use x="63.623047" xlink:href="#DejaVuSans-48"/>
       <use x="127.246094" xlink:href="#DejaVuSans-48"/>
       <use x="190.869141" xlink:href="#DejaVuSans-48"/>
      </g>
     </g>
    </g>
    <g id="xtick_7">
     <g id="line2d_7">
      <g>
       <use style="stroke:#000000;stroke-width:0.8;" x="300.922207" xlink:href="#m33be31a0ee" y="238.110236"/>
      </g>
     </g>
     <g id="text_7">
      <!-- 3500 -->
      <g transform="translate(290.742207 251.188986)scale(0.08 -0.08)">
       <use xlink:href="#DejaVuSans-51"/>
       <use x="63.623047" xlink:href="#DejaVuSans-53"/>
       <use x="127.246094" xlink:href="#DejaVuSans-48"/>
       <use x="190.869141" xlink:href="#DejaVuSans-48"/>
      </g>
     </g>
    </g>
    <g id="text_8">
     <!-- Trips [Trip/Block] -->
     <defs>
      <path d="M -0.296875 72.90625 
L 61.375 72.90625 
L 61.375 64.59375 
L 35.5 64.59375 
L 35.5 0 
L 25.59375 0 
L 25.59375 64.59375 
L -0.296875 64.59375 
z
" id="DejaVuSans-84"/>
      <path d="M 41.109375 46.296875 
Q 39.59375 47.171875 37.8125 47.578125 
Q 36.03125 48 33.890625 48 
Q 26.265625 48 22.1875 43.046875 
Q 18.109375 38.09375 18.109375 28.8125 
L 18.109375 0 
L 9.078125 0 
L 9.078125 54.6875 
L 18.109375 54.6875 
L 18.109375 46.1875 
Q 20.953125 51.171875 25.484375 53.578125 
Q 30.03125 56 36.53125 56 
Q 37.453125 56 38.578125 55.875 
Q 39.703125 55.765625 41.0625 55.515625 
z
" id="DejaVuSans-114"/>
      <path d="M 9.421875 54.6875 
L 18.40625 54.6875 
L 18.40625 0 
L 9.421875 0 
z
M 9.421875 75.984375 
L 18.40625 75.984375 
L 18.40625 64.59375 
L 9.421875 64.59375 
z
" id="DejaVuSans-105"/>
      <path d="M 18.109375 8.203125 
L 18.109375 -20.796875 
L 9.078125 -20.796875 
L 9.078125 54.6875 
L 18.109375 54.6875 
L 18.109375 46.390625 
Q 20.953125 51.265625 25.265625 53.625 
Q 29.59375 56 35.59375 56 
Q 45.5625 56 51.78125 48.09375 
Q 58.015625 40.1875 58.015625 27.296875 
Q 58.015625 14.40625 51.78125 6.484375 
Q 45.5625 -1.421875 35.59375 -1.421875 
Q 29.59375 -1.421875 25.265625 0.953125 
Q 20.953125 3.328125 18.109375 8.203125 
z
M 48.6875 27.296875 
Q 48.6875 37.203125 44.609375 42.84375 
Q 40.53125 48.484375 33.40625 48.484375 
Q 26.265625 48.484375 22.1875 42.84375 
Q 18.109375 37.203125 18.109375 27.296875 
Q 18.109375 17.390625 22.1875 11.75 
Q 26.265625 6.109375 33.40625 6.109375 
Q 40.53125 6.109375 44.609375 11.75 
Q 48.6875 17.390625 48.6875 27.296875 
z
" id="DejaVuSans-112"/>
      <path d="M 44.28125 53.078125 
L 44.28125 44.578125 
Q 40.484375 46.53125 36.375 47.5 
Q 32.28125 48.484375 27.875 48.484375 
Q 21.1875 48.484375 17.84375 46.4375 
Q 14.5 44.390625 14.5 40.28125 
Q 14.5 37.15625 16.890625 35.375 
Q 19.28125 33.59375 26.515625 31.984375 
L 29.59375 31.296875 
Q 39.15625 29.25 43.1875 25.515625 
Q 47.21875 21.78125 47.21875 15.09375 
Q 47.21875 7.46875 41.1875 3.015625 
Q 35.15625 -1.421875 24.609375 -1.421875 
Q 20.21875 -1.421875 15.453125 -0.5625 
Q 10.6875 0.296875 5.421875 2 
L 5.421875 11.28125 
Q 10.40625 8.6875 15.234375 7.390625 
Q 20.0625 6.109375 24.8125 6.109375 
Q 31.15625 6.109375 34.5625 8.28125 
Q 37.984375 10.453125 37.984375 14.40625 
Q 37.984375 18.0625 35.515625 20.015625 
Q 33.0625 21.96875 24.703125 23.78125 
L 21.578125 24.515625 
Q 13.234375 26.265625 9.515625 29.90625 
Q 5.8125 33.546875 5.8125 39.890625 
Q 5.8125 47.609375 11.28125 51.796875 
Q 16.75 56 26.8125 56 
Q 31.78125 56 36.171875 55.265625 
Q 40.578125 54.546875 44.28125 53.078125 
z
" id="DejaVuSans-115"/>
      <path id="DejaVuSans-32"/>
      <path d="M 8.59375 75.984375 
L 29.296875 75.984375 
L 29.296875 69 
L 17.578125 69 
L 17.578125 -6.203125 
L 29.296875 -6.203125 
L 29.296875 -13.1875 
L 8.59375 -13.1875 
z
" id="DejaVuSans-91"/>
      <path d="M 25.390625 72.90625 
L 33.6875 72.90625 
L 8.296875 -9.28125 
L 0 -9.28125 
z
" id="DejaVuSans-47"/>
      <path d="M 19.671875 34.8125 
L 19.671875 8.109375 
L 35.5 8.109375 
Q 43.453125 8.109375 47.28125 11.40625 
Q 51.125 14.703125 51.125 21.484375 
Q 51.125 28.328125 47.28125 31.5625 
Q 43.453125 34.8125 35.5 34.8125 
z
M 19.671875 64.796875 
L 19.671875 42.828125 
L 34.28125 42.828125 
Q 41.5 42.828125 45.03125 45.53125 
Q 48.578125 48.25 48.578125 53.8125 
Q 48.578125 59.328125 45.03125 62.0625 
Q 41.5 64.796875 34.28125 64.796875 
z
M 9.8125 72.90625 
L 35.015625 72.90625 
Q 46.296875 72.90625 52.390625 68.21875 
Q 58.5 63.53125 58.5 54.890625 
Q 58.5 48.1875 55.375 44.234375 
Q 52.25 40.28125 46.1875 39.3125 
Q 53.46875 37.75 57.5 32.78125 
Q 61.53125 27.828125 61.53125 20.40625 
Q 61.53125 10.640625 54.890625 5.3125 
Q 48.25 0 35.984375 0 
L 9.8125 0 
z
" id="DejaVuSans-66"/>
      <path d="M 9.421875 75.984375 
L 18.40625 75.984375 
L 18.40625 0 
L 9.421875 0 
z
" id="DejaVuSans-108"/>
      <path d="M 30.609375 48.390625 
Q 23.390625 48.390625 19.1875 42.75 
Q 14.984375 37.109375 14.984375 27.296875 
Q 14.984375 17.484375 19.15625 11.84375 
Q 23.34375 6.203125 30.609375 6.203125 
Q 37.796875 6.203125 41.984375 11.859375 
Q 46.1875 17.53125 46.1875 27.296875 
Q 46.1875 37.015625 41.984375 42.703125 
Q 37.796875 48.390625 30.609375 48.390625 
z
M 30.609375 56 
Q 42.328125 56 49.015625 48.375 
Q 55.71875 40.765625 55.71875 27.296875 
Q 55.71875 13.875 49.015625 6.21875 
Q 42.328125 -1.421875 30.609375 -1.421875 
Q 18.84375 -1.421875 12.171875 6.21875 
Q 5.515625 13.875 5.515625 27.296875 
Q 5.515625 40.765625 12.171875 48.375 
Q 18.84375 56 30.609375 56 
z
" id="DejaVuSans-111"/>
      <path d="M 48.78125 52.59375 
L 48.78125 44.1875 
Q 44.96875 46.296875 41.140625 47.34375 
Q 37.3125 48.390625 33.40625 48.390625 
Q 24.65625 48.390625 19.8125 42.84375 
Q 14.984375 37.3125 14.984375 27.296875 
Q 14.984375 17.28125 19.8125 11.734375 
Q 24.65625 6.203125 33.40625 6.203125 
Q 37.3125 6.203125 41.140625 7.25 
Q 44.96875 8.296875 48.78125 10.40625 
L 48.78125 2.09375 
Q 45.015625 0.34375 40.984375 -0.53125 
Q 36.96875 -1.421875 32.421875 -1.421875 
Q 20.0625 -1.421875 12.78125 6.34375 
Q 5.515625 14.109375 5.515625 27.296875 
Q 5.515625 40.671875 12.859375 48.328125 
Q 20.21875 56 33.015625 56 
Q 37.15625 56 41.109375 55.140625 
Q 45.0625 54.296875 48.78125 52.59375 
z
" id="DejaVuSans-99"/>
      <path d="M 9.078125 75.984375 
L 18.109375 75.984375 
L 18.109375 31.109375 
L 44.921875 54.6875 
L 56.390625 54.6875 
L 27.390625 29.109375 
L 57.625 0 
L 45.90625 0 
L 18.109375 26.703125 
L 18.109375 0 
L 9.078125 0 
z
" id="DejaVuSans-107"/>
      <path d="M 30.421875 75.984375 
L 30.421875 -13.1875 
L 9.71875 -13.1875 
L 9.71875 -6.203125 
L 21.390625 -6.203125 
L 21.390625 69 
L 9.71875 69 
L 9.71875 75.984375 
z
" id="DejaVuSans-93"/>
     </defs>
     <g transform="translate(143.326193 264.451174)scale(0.1 -0.1)">
      <use xlink:href="#DejaVuSans-84"/>
      <use x="60.865234" xlink:href="#DejaVuSans-114"/>
      <use x="101.978516" xlink:href="#DejaVuSans-105"/>
      <use x="129.761719" xlink:href="#DejaVuSans-112"/>
      <use x="193.238281" xlink:href="#DejaVuSans-115"/>
      <use x="245.337891" xlink:href="#DejaVuSans-32"/>
      <use x="277.125" xlink:href="#DejaVuSans-91"/>
      <use x="316.138672" xlink:href="#DejaVuSans-84"/>
      <use x="377.003906" xlink:href="#DejaVuSans-114"/>
      <use x="418.117188" xlink:href="#DejaVuSans-105"/>
      <use x="445.900391" xlink:href="#DejaVuSans-112"/>
      <use x="509.376953" xlink:href="#DejaVuSans-47"/>
      <use x="543.068359" xlink:href="#DejaVuSans-66"/>
      <use x="611.671875" xlink:href="#DejaVuSans-108"/>
      <use x="639.455078" xlink:href="#DejaVuSans-111"/>
      <use x="700.636719" xlink:href="#DejaVuSans-99"/>
      <use x="755.617188" xlink:href="#DejaVuSans-107"/>
      <use x="813.527344" xlink:href="#DejaVuSans-93"/>
     </g>
    </g>
   </g>
   <g id="matplotlib.axis_2">
    <g id="ytick_1">
     <g id="line2d_8">
      <defs>
       <path d="M 0 0 
L -3.5 0 
" id="ma3014eeb4c" style="stroke:#000000;stroke-width:0.8;"/>
      </defs>
      <g>
       <use style="stroke:#000000;stroke-width:0.8;" x="45.354331" xlink:href="#ma3014eeb4c" y="238.110236"/>
      </g>
     </g>
     <g id="text_9">
      <!-- 0 -->
      <g transform="translate(33.264331 241.149611)scale(0.08 -0.08)">
       <use xlink:href="#DejaVuSans-48"/>
      </g>
     </g>
    </g>
    <g id="ytick_2">
     <g id="line2d_9">
      <g>
       <use style="stroke:#000000;stroke-width:0.8;" x="45.354331" xlink:href="#ma3014eeb4c" y="203.012202"/>
      </g>
     </g>
     <g id="text_10">
      <!-- 1000 -->
      <g transform="translate(17.994331 206.051577)scale(0.08 -0.08)">
       <use xlink:href="#DejaVuSans-49"/>
       <use x="63.623047" xlink:href="#DejaVuSans-48"/>
       <use x="127.246094" xlink:href="#DejaVuSans-48"/>
       <use x="190.869141" xlink:href="#DejaVuSans-48"/>
      </g>
     </g>
    </g>
    <g id="ytick_3">
     <g id="line2d_10">
      <g>
       <use style="stroke:#000000;stroke-width:0.8;" x="45.354331" xlink:href="#ma3014eeb4c" y="167.914168"/>
      </g>
     </g>
     <g id="text_11">
      <!-- 2000 -->
      <g transform="translate(17.994331 170.953543)scale(0.08 -0.08)">
       <use xlink:href="#DejaVuSans-50"/>
       <use x="63.623047" xlink:href="#DejaVuSans-48"/>
       <use x="127.246094" xlink:href="#DejaVuSans-48"/>
       <use x="190.869141" xlink:href="#DejaVuSans-48"/>
      </g>
     </g>
    </g>
    <g id="ytick_4">
     <g id="line2d_11">
      <g>
       <use style="stroke:#000000;stroke-width:0.8;" x="45.354331" xlink:href="#ma3014eeb4c" y="132.816133"/>
      </g>
     </g>
     <g id="text_12">
      <!-- 3000 -->
      <g transform="translate(17.994331 135.855508)scale(0.08 -0.08)">
       <use xlink:href="#DejaVuSans-51"/>
       <use x="63.623047" xlink:href="#DejaVuSans-48"/>
       <use x="127.246094" xlink:href="#DejaVuSans-48"/>
       <use x="190.869141" xlink:href="#DejaVuSans-48"/>
      </g>
     </g>
    </g>
    <g id="ytick_5">
     <g id="line2d_12">
      <g>
       <use style="stroke:#000000;stroke-width:0.8;" x="45.354331" xlink:href="#ma3014eeb4c" y="97.718099"/>
      </g>
     </g>
     <g id="text_13">
      <!-- 4000 -->
      <defs>
       <path d="M 37.796875 64.3125 
L 12.890625 25.390625 
L 37.796875 25.390625 
z
M 35.203125 72.90625 
L 47.609375 72.90625 
L 47.609375 25.390625 
L 58.015625 25.390625 
L 58.015625 17.1875 
L 47.609375 17.1875 
L 47.609375 0 
L 37.796875 0 
L 37.796875 17.1875 
L 4.890625 17.1875 
L 4.890625 26.703125 
z
" id="DejaVuSans-52"/>
      </defs>
      <g transform="translate(17.994331 100.757474)scale(0.08 -0.08)">
       <use xlink:href="#DejaVuSans-52"/>
       <use x="63.623047" xlink:href="#DejaVuSans-48"/>
       <use x="127.246094" xlink:href="#DejaVuSans-48"/>
       <use x="190.869141" xlink:href="#DejaVuSans-48"/>
      </g>
     </g>
    </g>
    <g id="ytick_6">
     <g id="line2d_13">
      <g>
       <use style="stroke:#000000;stroke-width:0.8;" x="45.354331" xlink:href="#ma3014eeb4c" y="62.620065"/>
      </g>
     </g>
     <g id="text_14">
      <!-- 5000 -->
      <g transform="translate(17.994331 65.65944)scale(0.08 -0.08)">
       <use xlink:href="#DejaVuSans-53"/>
       <use x="63.623047" xlink:href="#DejaVuSans-48"/>
       <use x="127.246094" xlink:href="#DejaVuSans-48"/>
       <use x="190.869141" xlink:href="#DejaVuSans-48"/>
      </g>
     </g>
    </g>
    <g id="text_15">
     <!-- Frequency -->
     <defs>
      <path d="M 9.8125 72.90625 
L 51.703125 72.90625 
L 51.703125 64.59375 
L 19.671875 64.59375 
L 19.671875 43.109375 
L 48.578125 43.109375 
L 48.578125 34.8125 
L 19.671875 34.8125 
L 19.671875 0 
L 9.8125 0 
z
" id="DejaVuSans-70"/>
      <path d="M 56.203125 29.59375 
L 56.203125 25.203125 
L 14.890625 25.203125 
Q 15.484375 15.921875 20.484375 11.0625 
Q 25.484375 6.203125 34.421875 6.203125 
Q 39.59375 6.203125 44.453125 7.46875 
Q 49.3125 8.734375 54.109375 11.28125 
L 54.109375 2.78125 
Q 49.265625 0.734375 44.1875 -0.34375 
Q 39.109375 -1.421875 33.890625 -1.421875 
Q 20.796875 -1.421875 13.15625 6.1875 
Q 5.515625 13.8125 5.515625 26.8125 
Q 5.515625 40.234375 12.765625 48.109375 
Q 20.015625 56 32.328125 56 
Q 43.359375 56 49.78125 48.890625 
Q 56.203125 41.796875 56.203125 29.59375 
z
M 47.21875 32.234375 
Q 47.125 39.59375 43.09375 43.984375 
Q 39.0625 48.390625 32.421875 48.390625 
Q 24.90625 48.390625 20.390625 44.140625 
Q 15.875 39.890625 15.1875 32.171875 
z
" id="DejaVuSans-101"/>
      <path d="M 14.796875 27.296875 
Q 14.796875 17.390625 18.875 11.75 
Q 22.953125 6.109375 30.078125 6.109375 
Q 37.203125 6.109375 41.296875 11.75 
Q 45.40625 17.390625 45.40625 27.296875 
Q 45.40625 37.203125 41.296875 42.84375 
Q 37.203125 48.484375 30.078125 48.484375 
Q 22.953125 48.484375 18.875 42.84375 
Q 14.796875 37.203125 14.796875 27.296875 
z
M 45.40625 8.203125 
Q 42.578125 3.328125 38.25 0.953125 
Q 33.9375 -1.421875 27.875 -1.421875 
Q 17.96875 -1.421875 11.734375 6.484375 
Q 5.515625 14.40625 5.515625 27.296875 
Q 5.515625 40.1875 11.734375 48.09375 
Q 17.96875 56 27.875 56 
Q 33.9375 56 38.25 53.625 
Q 42.578125 51.265625 45.40625 46.390625 
L 45.40625 54.6875 
L 54.390625 54.6875 
L 54.390625 -20.796875 
L 45.40625 -20.796875 
z
" id="DejaVuSans-113"/>
      <path d="M 8.5 21.578125 
L 8.5 54.6875 
L 17.484375 54.6875 
L 17.484375 21.921875 
Q 17.484375 14.15625 20.5 10.265625 
Q 23.53125 6.390625 29.59375 6.390625 
Q 36.859375 6.390625 41.078125 11.03125 
Q 45.3125 15.671875 45.3125 23.6875 
L 45.3125 54.6875 
L 54.296875 54.6875 
L 54.296875 0 
L 45.3125 0 
L 45.3125 8.40625 
Q 42.046875 3.421875 37.71875 1 
Q 33.40625 -1.421875 27.6875 -1.421875 
Q 18.265625 -1.421875 13.375 4.4375 
Q 8.5 10.296875 8.5 21.578125 
z
M 31.109375 56 
z
" id="DejaVuSans-117"/>
      <path d="M 54.890625 33.015625 
L 54.890625 0 
L 45.90625 0 
L 45.90625 32.71875 
Q 45.90625 40.484375 42.875 44.328125 
Q 39.84375 48.1875 33.796875 48.1875 
Q 26.515625 48.1875 22.3125 43.546875 
Q 18.109375 38.921875 18.109375 30.90625 
L 18.109375 0 
L 9.078125 0 
L 9.078125 54.6875 
L 18.109375 54.6875 
L 18.109375 46.1875 
Q 21.34375 51.125 25.703125 53.5625 
Q 30.078125 56 35.796875 56 
Q 45.21875 56 50.046875 50.171875 
Q 54.890625 44.34375 54.890625 33.015625 
z
" id="DejaVuSans-110"/>
      <path d="M 32.171875 -5.078125 
Q 28.375 -14.84375 24.75 -17.8125 
Q 21.140625 -20.796875 15.09375 -20.796875 
L 7.90625 -20.796875 
L 7.90625 -13.28125 
L 13.1875 -13.28125 
Q 16.890625 -13.28125 18.9375 -11.515625 
Q 21 -9.765625 23.484375 -3.21875 
L 25.09375 0.875 
L 2.984375 54.6875 
L 12.5 54.6875 
L 29.59375 11.921875 
L 46.6875 54.6875 
L 56.203125 54.6875 
z
" id="DejaVuSans-121"/>
     </defs>
     <g transform="translate(11.914643 161.680333)rotate(-90)scale(0.1 -0.1)">
      <use xlink:href="#DejaVuSans-70"/>
      <use x="57.410156" xlink:href="#DejaVuSans-114"/>
      <use x="98.492188" xlink:href="#DejaVuSans-101"/>
      <use x="160.015625" xlink:href="#DejaVuSans-113"/>
      <use x="223.492188" xlink:href="#DejaVuSans-117"/>
      <use x="286.871094" xlink:href="#DejaVuSans-101"/>
      <use x="348.394531" xlink:href="#DejaVuSans-110"/>
      <use x="411.773438" xlink:href="#DejaVuSans-99"/>
      <use x="466.753906" xlink:href="#DejaVuSans-121"/>
     </g>
    </g>
   </g>
   <g id="patch_153">
    <path d="M 45.354331 238.110236 
L 45.354331 32.655118 
" style="fill:none;stroke:#000000;stroke-linecap:square;stroke-linejoin:miter;stroke-width:0.8;"/>
   </g>
   <g id="patch_154">
    <path d="M 326.551181 238.110236 
L 326.551181 32.655118 
" style="fill:none;stroke:#000000;stroke-linecap:square;stroke-linejoin:miter;stroke-width:0.8;"/>
   </g>
   <g id="patch_155">
    <path d="M 45.354331 238.110236 
L 326.551181 238.110236 
" style="fill:none;stroke:#000000;stroke-linecap:square;stroke-linejoin:miter;stroke-width:0.8;"/>
   </g>
   <g id="patch_156">
    <path d="M 45.354331 32.655118 
L 326.551181 32.655118 
" style="fill:none;stroke:#000000;stroke-linecap:square;stroke-linejoin:miter;stroke-width:0.8;"/>
   </g>
   <g id="legend_1">
    <g id="patch_157">
     <path d="M 263.362431 74.282618 
L 320.951181 74.282618 
Q 322.551181 74.282618 322.551181 72.682618 
L 322.551181 38.255118 
Q 322.551181 36.655118 320.951181 36.655118 
L 263.362431 36.655118 
Q 261.762431 36.655118 261.762431 38.255118 
L 261.762431 72.682618 
Q 261.762431 74.282618 263.362431 74.282618 
z
" style="fill:#ffffff;opacity:0.8;stroke:#cccccc;stroke-linejoin:miter;"/>
    </g>
    <g id="patch_158">
     <path d="M 264.962431 45.933868 
L 280.962431 45.933868 
L 280.962431 40.333868 
L 264.962431 40.333868 
z
" style="fill:#edf8b1;stroke:#000000;stroke-linejoin:miter;"/>
    </g>
    <g id="text_16">
     <!-- High -->
     <defs>
      <path d="M 9.8125 72.90625 
L 19.671875 72.90625 
L 19.671875 43.015625 
L 55.515625 43.015625 
L 55.515625 72.90625 
L 65.375 72.90625 
L 65.375 0 
L 55.515625 0 
L 55.515625 34.71875 
L 19.671875 34.71875 
L 19.671875 0 
L 9.8125 0 
z
" id="DejaVuSans-72"/>
      <path d="M 45.40625 27.984375 
Q 45.40625 37.75 41.375 43.109375 
Q 37.359375 48.484375 30.078125 48.484375 
Q 22.859375 48.484375 18.828125 43.109375 
Q 14.796875 37.75 14.796875 27.984375 
Q 14.796875 18.265625 18.828125 12.890625 
Q 22.859375 7.515625 30.078125 7.515625 
Q 37.359375 7.515625 41.375 12.890625 
Q 45.40625 18.265625 45.40625 27.984375 
z
M 54.390625 6.78125 
Q 54.390625 -7.171875 48.1875 -13.984375 
Q 42 -20.796875 29.203125 -20.796875 
Q 24.46875 -20.796875 20.265625 -20.09375 
Q 16.0625 -19.390625 12.109375 -17.921875 
L 12.109375 -9.1875 
Q 16.0625 -11.328125 19.921875 -12.34375 
Q 23.78125 -13.375 27.78125 -13.375 
Q 36.625 -13.375 41.015625 -8.765625 
Q 45.40625 -4.15625 45.40625 5.171875 
L 45.40625 9.625 
Q 42.625 4.78125 38.28125 2.390625 
Q 33.9375 0 27.875 0 
Q 17.828125 0 11.671875 7.65625 
Q 5.515625 15.328125 5.515625 27.984375 
Q 5.515625 40.671875 11.671875 48.328125 
Q 17.828125 56 27.875 56 
Q 33.9375 56 38.28125 53.609375 
Q 42.625 51.21875 45.40625 46.390625 
L 45.40625 54.6875 
L 54.390625 54.6875 
z
" id="DejaVuSans-103"/>
      <path d="M 54.890625 33.015625 
L 54.890625 0 
L 45.90625 0 
L 45.90625 32.71875 
Q 45.90625 40.484375 42.875 44.328125 
Q 39.84375 48.1875 33.796875 48.1875 
Q 26.515625 48.1875 22.3125 43.546875 
Q 18.109375 38.921875 18.109375 30.90625 
L 18.109375 0 
L 9.078125 0 
L 9.078125 75.984375 
L 18.109375 75.984375 
L 18.109375 46.1875 
Q 21.34375 51.125 25.703125 53.5625 
Q 30.078125 56 35.796875 56 
Q 45.21875 56 50.046875 50.171875 
Q 54.890625 44.34375 54.890625 33.015625 
z
" id="DejaVuSans-104"/>
     </defs>
     <g transform="translate(287.362431 45.933868)scale(0.08 -0.08)">
      <use xlink:href="#DejaVuSans-72"/>
      <use x="75.195312" xlink:href="#DejaVuSans-105"/>
      <use x="102.978516" xlink:href="#DejaVuSans-103"/>
      <use x="166.455078" xlink:href="#DejaVuSans-104"/>
     </g>
    </g>
    <g id="patch_159">
     <path d="M 264.962431 57.676368 
L 280.962431 57.676368 
L 280.962431 52.076368 
L 264.962431 52.076368 
z
" style="fill:#7fcdbb;stroke:#000000;stroke-linejoin:miter;"/>
    </g>
    <g id="text_17">
     <!-- Medium -->
     <defs>
      <path d="M 9.8125 72.90625 
L 24.515625 72.90625 
L 43.109375 23.296875 
L 61.8125 72.90625 
L 76.515625 72.90625 
L 76.515625 0 
L 66.890625 0 
L 66.890625 64.015625 
L 48.09375 14.015625 
L 38.1875 14.015625 
L 19.390625 64.015625 
L 19.390625 0 
L 9.8125 0 
z
" id="DejaVuSans-77"/>
      <path d="M 45.40625 46.390625 
L 45.40625 75.984375 
L 54.390625 75.984375 
L 54.390625 0 
L 45.40625 0 
L 45.40625 8.203125 
Q 42.578125 3.328125 38.25 0.953125 
Q 33.9375 -1.421875 27.875 -1.421875 
Q 17.96875 -1.421875 11.734375 6.484375 
Q 5.515625 14.40625 5.515625 27.296875 
Q 5.515625 40.1875 11.734375 48.09375 
Q 17.96875 56 27.875 56 
Q 33.9375 56 38.25 53.625 
Q 42.578125 51.265625 45.40625 46.390625 
z
M 14.796875 27.296875 
Q 14.796875 17.390625 18.875 11.75 
Q 22.953125 6.109375 30.078125 6.109375 
Q 37.203125 6.109375 41.296875 11.75 
Q 45.40625 17.390625 45.40625 27.296875 
Q 45.40625 37.203125 41.296875 42.84375 
Q 37.203125 48.484375 30.078125 48.484375 
Q 22.953125 48.484375 18.875 42.84375 
Q 14.796875 37.203125 14.796875 27.296875 
z
" id="DejaVuSans-100"/>
      <path d="M 52 44.1875 
Q 55.375 50.25 60.0625 53.125 
Q 64.75 56 71.09375 56 
Q 79.640625 56 84.28125 50.015625 
Q 88.921875 44.046875 88.921875 33.015625 
L 88.921875 0 
L 79.890625 0 
L 79.890625 32.71875 
Q 79.890625 40.578125 77.09375 44.375 
Q 74.3125 48.1875 68.609375 48.1875 
Q 61.625 48.1875 57.5625 43.546875 
Q 53.515625 38.921875 53.515625 30.90625 
L 53.515625 0 
L 44.484375 0 
L 44.484375 32.71875 
Q 44.484375 40.625 41.703125 44.40625 
Q 38.921875 48.1875 33.109375 48.1875 
Q 26.21875 48.1875 22.15625 43.53125 
Q 18.109375 38.875 18.109375 30.90625 
L 18.109375 0 
L 9.078125 0 
L 9.078125 54.6875 
L 18.109375 54.6875 
L 18.109375 46.1875 
Q 21.1875 51.21875 25.484375 53.609375 
Q 29.78125 56 35.6875 56 
Q 41.65625 56 45.828125 52.96875 
Q 50 49.953125 52 44.1875 
z
" id="DejaVuSans-109"/>
     </defs>
     <g transform="translate(287.362431 57.676368)scale(0.08 -0.08)">
      <use xlink:href="#DejaVuSans-77"/>
      <use x="86.279297" xlink:href="#DejaVuSans-101"/>
      <use x="147.802734" xlink:href="#DejaVuSans-100"/>
      <use x="211.279297" xlink:href="#DejaVuSans-105"/>
      <use x="239.0625" xlink:href="#DejaVuSans-117"/>
      <use x="302.441406" xlink:href="#DejaVuSans-109"/>
     </g>
    </g>
    <g id="patch_160">
     <path d="M 264.962431 69.418868 
L 280.962431 69.418868 
L 280.962431 63.818868 
L 264.962431 63.818868 
z
" style="fill:#2c7fb8;stroke:#000000;stroke-linejoin:miter;"/>
    </g>
    <g id="text_18">
     <!-- Low -->
     <defs>
      <path d="M 9.8125 72.90625 
L 19.671875 72.90625 
L 19.671875 8.296875 
L 55.171875 8.296875 
L 55.171875 0 
L 9.8125 0 
z
" id="DejaVuSans-76"/>
      <path d="M 4.203125 54.6875 
L 13.1875 54.6875 
L 24.421875 12.015625 
L 35.59375 54.6875 
L 46.1875 54.6875 
L 57.421875 12.015625 
L 68.609375 54.6875 
L 77.59375 54.6875 
L 63.28125 0 
L 52.6875 0 
L 40.921875 44.828125 
L 29.109375 0 
L 18.5 0 
z
" id="DejaVuSans-119"/>
     </defs>
     <g transform="translate(287.362431 69.418868)scale(0.08 -0.08)">
      <use xlink:href="#DejaVuSans-76"/>
      <use x="55.697266" xlink:href="#DejaVuSans-111"/>
      <use x="116.878906" xlink:href="#DejaVuSans-119"/>
     </g>
    </g>
   </g>
  </g>
 </g>
 <defs>
  <clipPath id="pf0f8c5a971">
   <rect height="205.455118" width="281.19685" x="45.354331" y="32.655118"/>
  </clipPath>
 </defs>
</svg>
