<?xml version="1.0" encoding="utf-8" standalone="no"?>
<!DOCTYPE svg PUBLIC "-//W3C//DTD SVG 1.1//EN"
  "http://www.w3.org/Graphics/SVG/1.1/DTD/svg11.dtd">
<!-- Created with matplotlib (https://matplotlib.org/) -->
<svg height="288pt" version="1.1" viewBox="0 0 432 288" width="432pt" xmlns="http://www.w3.org/2000/svg" xmlns:xlink="http://www.w3.org/1999/xlink">
 <defs>
  <style type="text/css">
*{stroke-linecap:butt;stroke-linejoin:round;}
  </style>
 </defs>
 <g id="figure_1">
  <g id="patch_1">
   <path d="M 0 288 
L 432 288 
L 432 0 
L 0 0 
z
" style="fill:#ffffff;"/>
  </g>
  <g id="axes_1">
   <g id="patch_2">
    <path d="M 54 252 
L 388.8 252 
L 388.8 34.56 
L 54 34.56 
z
" style="fill:#ffffff;"/>
   </g>
   <g id="patch_3">
    <path clip-path="url(#pd981e96042)" d="M 69.218182 252 
L 75.305455 252 
L 75.305455 251.702356 
L 69.218182 251.702356 
z
" style="fill:#edf8b1;stroke:#000000;stroke-linejoin:miter;"/>
   </g>
   <g id="patch_4">
    <path clip-path="url(#pd981e96042)" d="M 75.305455 252 
L 81.392727 252 
L 81.392727 246.23315 
L 75.305455 246.23315 
z
" style="fill:#edf8b1;stroke:#000000;stroke-linejoin:miter;"/>
   </g>
   <g id="patch_5">
    <path clip-path="url(#pd981e96042)" d="M 81.392727 252 
L 87.48 252 
L 87.48 236.968985 
L 81.392727 236.968985 
z
" style="fill:#edf8b1;stroke:#000000;stroke-linejoin:miter;"/>
   </g>
   <g id="patch_6">
    <path clip-path="url(#pd981e96042)" d="M 87.48 252 
L 93.567273 252 
L 93.567273 216.133915 
L 87.48 216.133915 
z
" style="fill:#edf8b1;stroke:#000000;stroke-linejoin:miter;"/>
   </g>
   <g id="patch_7">
    <path clip-path="url(#pd981e96042)" d="M 93.567273 252 
L 99.654545 252 
L 99.654545 206.200051 
L 93.567273 206.200051 
z
" style="fill:#edf8b1;stroke:#000000;stroke-linejoin:miter;"/>
   </g>
   <g id="patch_8">
    <path clip-path="url(#pd981e96042)" d="M 99.654545 252 
L 105.741818 252 
L 105.741818 206.86975 
L 99.654545 206.86975 
z
" style="fill:#edf8b1;stroke:#000000;stroke-linejoin:miter;"/>
   </g>
   <g id="patch_9">
    <path clip-path="url(#pd981e96042)" d="M 105.741818 252 
L 111.829091 252 
L 111.829091 217.064052 
L 105.741818 217.064052 
z
" style="fill:#edf8b1;stroke:#000000;stroke-linejoin:miter;"/>
   </g>
   <g id="patch_10">
    <path clip-path="url(#pd981e96042)" d="M 111.829091 252 
L 117.916364 252 
L 117.916364 217.845367 
L 111.829091 217.845367 
z
" style="fill:#edf8b1;stroke:#000000;stroke-linejoin:miter;"/>
   </g>
   <g id="patch_11">
    <path clip-path="url(#pd981e96042)" d="M 117.916364 252 
L 124.003636 252 
L 124.003636 231.723012 
L 117.916364 231.723012 
z
" style="fill:#edf8b1;stroke:#000000;stroke-linejoin:miter;"/>
   </g>
   <g id="patch_12">
    <path clip-path="url(#pd981e96042)" d="M 124.003636 252 
L 130.090909 252 
L 130.090909 225.063231 
L 124.003636 225.063231 
z
" style="fill:#edf8b1;stroke:#000000;stroke-linejoin:miter;"/>
   </g>
   <g id="patch_13">
    <path clip-path="url(#pd981e96042)" d="M 130.090909 252 
L 136.178182 252 
L 136.178182 229.26745 
L 130.090909 229.26745 
z
" style="fill:#edf8b1;stroke:#000000;stroke-linejoin:miter;"/>
   </g>
   <g id="patch_14">
    <path clip-path="url(#pd981e96042)" d="M 136.178182 252 
L 142.265455 252 
L 142.265455 245.786684 
L 136.178182 245.786684 
z
" style="fill:#edf8b1;stroke:#000000;stroke-linejoin:miter;"/>
   </g>
   <g id="patch_15">
    <path clip-path="url(#pd981e96042)" d="M 142.265455 252 
L 148.352727 252 
L 148.352727 248.465479 
L 142.265455 248.465479 
z
" style="fill:#edf8b1;stroke:#000000;stroke-linejoin:miter;"/>
   </g>
   <g id="patch_16">
    <path clip-path="url(#pd981e96042)" d="M 148.352727 252 
L 154.44 252 
L 154.44 250.548986 
L 148.352727 250.548986 
z
" style="fill:#edf8b1;stroke:#000000;stroke-linejoin:miter;"/>
   </g>
   <g id="patch_17">
    <path clip-path="url(#pd981e96042)" d="M 154.44 252 
L 160.527273 252 
L 160.527273 251.293096 
L 154.44 251.293096 
z
" style="fill:#edf8b1;stroke:#000000;stroke-linejoin:miter;"/>
   </g>
   <g id="patch_18">
    <path clip-path="url(#pd981e96042)" d="M 160.527273 252 
L 166.614545 252 
L 166.614545 251.441918 
L 160.527273 251.441918 
z
" style="fill:#edf8b1;stroke:#000000;stroke-linejoin:miter;"/>
   </g>
   <g id="patch_19">
    <path clip-path="url(#pd981e96042)" d="M 166.614545 252 
L 172.701818 252 
L 172.701818 251.627945 
L 166.614545 251.627945 
z
" style="fill:#edf8b1;stroke:#000000;stroke-linejoin:miter;"/>
   </g>
   <g id="patch_20">
    <path clip-path="url(#pd981e96042)" d="M 172.701818 252 
L 178.789091 252 
L 178.789091 251.813973 
L 172.701818 251.813973 
z
" style="fill:#edf8b1;stroke:#000000;stroke-linejoin:miter;"/>
   </g>
   <g id="patch_21">
    <path clip-path="url(#pd981e96042)" d="M 178.789091 252 
L 184.876364 252 
L 184.876364 251.813973 
L 178.789091 251.813973 
z
" style="fill:#edf8b1;stroke:#000000;stroke-linejoin:miter;"/>
   </g>
   <g id="patch_22">
    <path clip-path="url(#pd981e96042)" d="M 184.876364 252 
L 190.963636 252 
L 190.963636 251.776767 
L 184.876364 251.776767 
z
" style="fill:#edf8b1;stroke:#000000;stroke-linejoin:miter;"/>
   </g>
   <g id="patch_23">
    <path clip-path="url(#pd981e96042)" d="M 190.963636 252 
L 197.050909 252 
L 197.050909 251.813973 
L 190.963636 251.813973 
z
" style="fill:#edf8b1;stroke:#000000;stroke-linejoin:miter;"/>
   </g>
   <g id="patch_24">
    <path clip-path="url(#pd981e96042)" d="M 197.050909 252 
L 203.138182 252 
L 203.138182 252 
L 197.050909 252 
z
" style="fill:#edf8b1;stroke:#000000;stroke-linejoin:miter;"/>
   </g>
   <g id="patch_25">
    <path clip-path="url(#pd981e96042)" d="M 203.138182 252 
L 209.225455 252 
L 209.225455 252 
L 203.138182 252 
z
" style="fill:#edf8b1;stroke:#000000;stroke-linejoin:miter;"/>
   </g>
   <g id="patch_26">
    <path clip-path="url(#pd981e96042)" d="M 209.225455 252 
L 215.312727 252 
L 215.312727 252 
L 209.225455 252 
z
" style="fill:#edf8b1;stroke:#000000;stroke-linejoin:miter;"/>
   </g>
   <g id="patch_27">
    <path clip-path="url(#pd981e96042)" d="M 215.312727 252 
L 221.4 252 
L 221.4 252 
L 215.312727 252 
z
" style="fill:#edf8b1;stroke:#000000;stroke-linejoin:miter;"/>
   </g>
   <g id="patch_28">
    <path clip-path="url(#pd981e96042)" d="M 221.4 252 
L 227.487273 252 
L 227.487273 252 
L 221.4 252 
z
" style="fill:#edf8b1;stroke:#000000;stroke-linejoin:miter;"/>
   </g>
   <g id="patch_29">
    <path clip-path="url(#pd981e96042)" d="M 227.487273 252 
L 233.574545 252 
L 233.574545 252 
L 227.487273 252 
z
" style="fill:#edf8b1;stroke:#000000;stroke-linejoin:miter;"/>
   </g>
   <g id="patch_30">
    <path clip-path="url(#pd981e96042)" d="M 233.574545 252 
L 239.661818 252 
L 239.661818 252 
L 233.574545 252 
z
" style="fill:#edf8b1;stroke:#000000;stroke-linejoin:miter;"/>
   </g>
   <g id="patch_31">
    <path clip-path="url(#pd981e96042)" d="M 239.661818 252 
L 245.749091 252 
L 245.749091 252 
L 239.661818 252 
z
" style="fill:#edf8b1;stroke:#000000;stroke-linejoin:miter;"/>
   </g>
   <g id="patch_32">
    <path clip-path="url(#pd981e96042)" d="M 245.749091 252 
L 251.836364 252 
L 251.836364 252 
L 245.749091 252 
z
" style="fill:#edf8b1;stroke:#000000;stroke-linejoin:miter;"/>
   </g>
   <g id="patch_33">
    <path clip-path="url(#pd981e96042)" d="M 251.836364 252 
L 257.923636 252 
L 257.923636 252 
L 251.836364 252 
z
" style="fill:#edf8b1;stroke:#000000;stroke-linejoin:miter;"/>
   </g>
   <g id="patch_34">
    <path clip-path="url(#pd981e96042)" d="M 257.923636 252 
L 264.010909 252 
L 264.010909 252 
L 257.923636 252 
z
" style="fill:#edf8b1;stroke:#000000;stroke-linejoin:miter;"/>
   </g>
   <g id="patch_35">
    <path clip-path="url(#pd981e96042)" d="M 264.010909 252 
L 270.098182 252 
L 270.098182 252 
L 264.010909 252 
z
" style="fill:#edf8b1;stroke:#000000;stroke-linejoin:miter;"/>
   </g>
   <g id="patch_36">
    <path clip-path="url(#pd981e96042)" d="M 270.098182 252 
L 276.185455 252 
L 276.185455 252 
L 270.098182 252 
z
" style="fill:#edf8b1;stroke:#000000;stroke-linejoin:miter;"/>
   </g>
   <g id="patch_37">
    <path clip-path="url(#pd981e96042)" d="M 276.185455 252 
L 282.272727 252 
L 282.272727 252 
L 276.185455 252 
z
" style="fill:#edf8b1;stroke:#000000;stroke-linejoin:miter;"/>
   </g>
   <g id="patch_38">
    <path clip-path="url(#pd981e96042)" d="M 282.272727 252 
L 288.36 252 
L 288.36 252 
L 282.272727 252 
z
" style="fill:#edf8b1;stroke:#000000;stroke-linejoin:miter;"/>
   </g>
   <g id="patch_39">
    <path clip-path="url(#pd981e96042)" d="M 288.36 252 
L 294.447273 252 
L 294.447273 252 
L 288.36 252 
z
" style="fill:#edf8b1;stroke:#000000;stroke-linejoin:miter;"/>
   </g>
   <g id="patch_40">
    <path clip-path="url(#pd981e96042)" d="M 294.447273 252 
L 300.534545 252 
L 300.534545 252 
L 294.447273 252 
z
" style="fill:#edf8b1;stroke:#000000;stroke-linejoin:miter;"/>
   </g>
   <g id="patch_41">
    <path clip-path="url(#pd981e96042)" d="M 300.534545 252 
L 306.621818 252 
L 306.621818 252 
L 300.534545 252 
z
" style="fill:#edf8b1;stroke:#000000;stroke-linejoin:miter;"/>
   </g>
   <g id="patch_42">
    <path clip-path="url(#pd981e96042)" d="M 306.621818 252 
L 312.709091 252 
L 312.709091 252 
L 306.621818 252 
z
" style="fill:#edf8b1;stroke:#000000;stroke-linejoin:miter;"/>
   </g>
   <g id="patch_43">
    <path clip-path="url(#pd981e96042)" d="M 312.709091 252 
L 318.796364 252 
L 318.796364 252 
L 312.709091 252 
z
" style="fill:#edf8b1;stroke:#000000;stroke-linejoin:miter;"/>
   </g>
   <g id="patch_44">
    <path clip-path="url(#pd981e96042)" d="M 318.796364 252 
L 324.883636 252 
L 324.883636 252 
L 318.796364 252 
z
" style="fill:#edf8b1;stroke:#000000;stroke-linejoin:miter;"/>
   </g>
   <g id="patch_45">
    <path clip-path="url(#pd981e96042)" d="M 324.883636 252 
L 330.970909 252 
L 330.970909 252 
L 324.883636 252 
z
" style="fill:#edf8b1;stroke:#000000;stroke-linejoin:miter;"/>
   </g>
   <g id="patch_46">
    <path clip-path="url(#pd981e96042)" d="M 330.970909 252 
L 337.058182 252 
L 337.058182 252 
L 330.970909 252 
z
" style="fill:#edf8b1;stroke:#000000;stroke-linejoin:miter;"/>
   </g>
   <g id="patch_47">
    <path clip-path="url(#pd981e96042)" d="M 337.058182 252 
L 343.145455 252 
L 343.145455 252 
L 337.058182 252 
z
" style="fill:#edf8b1;stroke:#000000;stroke-linejoin:miter;"/>
   </g>
   <g id="patch_48">
    <path clip-path="url(#pd981e96042)" d="M 343.145455 252 
L 349.232727 252 
L 349.232727 252 
L 343.145455 252 
z
" style="fill:#edf8b1;stroke:#000000;stroke-linejoin:miter;"/>
   </g>
   <g id="patch_49">
    <path clip-path="url(#pd981e96042)" d="M 349.232727 252 
L 355.32 252 
L 355.32 252 
L 349.232727 252 
z
" style="fill:#edf8b1;stroke:#000000;stroke-linejoin:miter;"/>
   </g>
   <g id="patch_50">
    <path clip-path="url(#pd981e96042)" d="M 355.32 252 
L 361.407273 252 
L 361.407273 252 
L 355.32 252 
z
" style="fill:#edf8b1;stroke:#000000;stroke-linejoin:miter;"/>
   </g>
   <g id="patch_51">
    <path clip-path="url(#pd981e96042)" d="M 361.407273 252 
L 367.494545 252 
L 367.494545 252 
L 361.407273 252 
z
" style="fill:#edf8b1;stroke:#000000;stroke-linejoin:miter;"/>
   </g>
   <g id="patch_52">
    <path clip-path="url(#pd981e96042)" d="M 367.494545 252 
L 373.581818 252 
L 373.581818 252 
L 367.494545 252 
z
" style="fill:#edf8b1;stroke:#000000;stroke-linejoin:miter;"/>
   </g>
   <g id="patch_53">
    <path clip-path="url(#pd981e96042)" d="M 69.218182 251.702356 
L 75.305455 251.702356 
L 75.305455 251.665151 
L 69.218182 251.665151 
z
" style="fill:#7fcdbb;stroke:#000000;stroke-linejoin:miter;"/>
   </g>
   <g id="patch_54">
    <path clip-path="url(#pd981e96042)" d="M 75.305455 246.23315 
L 81.392727 246.23315 
L 81.392727 246.009917 
L 75.305455 246.009917 
z
" style="fill:#7fcdbb;stroke:#000000;stroke-linejoin:miter;"/>
   </g>
   <g id="patch_55">
    <path clip-path="url(#pd981e96042)" d="M 81.392727 236.968985 
L 87.48 236.968985 
L 87.48 235.666793 
L 81.392727 235.666793 
z
" style="fill:#7fcdbb;stroke:#000000;stroke-linejoin:miter;"/>
   </g>
   <g id="patch_56">
    <path clip-path="url(#pd981e96042)" d="M 87.48 216.133915 
L 93.567273 216.133915 
L 93.567273 208.209147 
L 87.48 208.209147 
z
" style="fill:#7fcdbb;stroke:#000000;stroke-linejoin:miter;"/>
   </g>
   <g id="patch_57">
    <path clip-path="url(#pd981e96042)" d="M 93.567273 206.200051 
L 99.654545 206.200051 
L 99.654545 190.424927 
L 93.567273 190.424927 
z
" style="fill:#7fcdbb;stroke:#000000;stroke-linejoin:miter;"/>
   </g>
   <g id="patch_58">
    <path clip-path="url(#pd981e96042)" d="M 99.654545 206.86975 
L 105.741818 206.86975 
L 105.741818 176.212433 
L 99.654545 176.212433 
z
" style="fill:#7fcdbb;stroke:#000000;stroke-linejoin:miter;"/>
   </g>
   <g id="patch_59">
    <path clip-path="url(#pd981e96042)" d="M 105.741818 217.064052 
L 111.829091 217.064052 
L 111.829091 167.655172 
L 105.741818 167.655172 
z
" style="fill:#7fcdbb;stroke:#000000;stroke-linejoin:miter;"/>
   </g>
   <g id="patch_60">
    <path clip-path="url(#pd981e96042)" d="M 111.829091 217.845367 
L 117.916364 217.845367 
L 117.916364 149.759335 
L 111.829091 149.759335 
z
" style="fill:#7fcdbb;stroke:#000000;stroke-linejoin:miter;"/>
   </g>
   <g id="patch_61">
    <path clip-path="url(#pd981e96042)" d="M 117.916364 231.723012 
L 124.003636 231.723012 
L 124.003636 131.044977 
L 117.916364 131.044977 
z
" style="fill:#7fcdbb;stroke:#000000;stroke-linejoin:miter;"/>
   </g>
   <g id="patch_62">
    <path clip-path="url(#pd981e96042)" d="M 124.003636 225.063231 
L 130.090909 225.063231 
L 130.090909 94.174344 
L 124.003636 94.174344 
z
" style="fill:#7fcdbb;stroke:#000000;stroke-linejoin:miter;"/>
   </g>
   <g id="patch_63">
    <path clip-path="url(#pd981e96042)" d="M 130.090909 229.26745 
L 136.178182 229.26745 
L 136.178182 102.35955 
L 130.090909 102.35955 
z
" style="fill:#7fcdbb;stroke:#000000;stroke-linejoin:miter;"/>
   </g>
   <g id="patch_64">
    <path clip-path="url(#pd981e96042)" d="M 136.178182 245.786684 
L 142.265455 245.786684 
L 142.265455 152.996212 
L 136.178182 152.996212 
z
" style="fill:#7fcdbb;stroke:#000000;stroke-linejoin:miter;"/>
   </g>
   <g id="patch_65">
    <path clip-path="url(#pd981e96042)" d="M 142.265455 248.465479 
L 148.352727 248.465479 
L 148.352727 178.184323 
L 142.265455 178.184323 
z
" style="fill:#7fcdbb;stroke:#000000;stroke-linejoin:miter;"/>
   </g>
   <g id="patch_66">
    <path clip-path="url(#pd981e96042)" d="M 148.352727 250.548986 
L 154.44 250.548986 
L 154.44 194.145475 
L 148.352727 194.145475 
z
" style="fill:#7fcdbb;stroke:#000000;stroke-linejoin:miter;"/>
   </g>
   <g id="patch_67">
    <path clip-path="url(#pd981e96042)" d="M 154.44 251.293096 
L 160.527273 251.293096 
L 160.527273 201.1029 
L 154.44 201.1029 
z
" style="fill:#7fcdbb;stroke:#000000;stroke-linejoin:miter;"/>
   </g>
   <g id="patch_68">
    <path clip-path="url(#pd981e96042)" d="M 160.527273 251.441918 
L 166.614545 251.441918 
L 166.614545 204.525805 
L 160.527273 204.525805 
z
" style="fill:#7fcdbb;stroke:#000000;stroke-linejoin:miter;"/>
   </g>
   <g id="patch_69">
    <path clip-path="url(#pd981e96042)" d="M 166.614545 251.627945 
L 172.701818 251.627945 
L 172.701818 196.601037 
L 166.614545 196.601037 
z
" style="fill:#7fcdbb;stroke:#000000;stroke-linejoin:miter;"/>
   </g>
   <g id="patch_70">
    <path clip-path="url(#pd981e96042)" d="M 172.701818 251.813973 
L 178.789091 251.813973 
L 178.789091 198.3869 
L 172.701818 198.3869 
z
" style="fill:#7fcdbb;stroke:#000000;stroke-linejoin:miter;"/>
   </g>
   <g id="patch_71">
    <path clip-path="url(#pd981e96042)" d="M 178.789091 251.813973 
L 184.876364 251.813973 
L 184.876364 212.190134 
L 178.789091 212.190134 
z
" style="fill:#7fcdbb;stroke:#000000;stroke-linejoin:miter;"/>
   </g>
   <g id="patch_72">
    <path clip-path="url(#pd981e96042)" d="M 184.876364 251.776767 
L 190.963636 251.776767 
L 190.963636 231.276546 
L 184.876364 231.276546 
z
" style="fill:#7fcdbb;stroke:#000000;stroke-linejoin:miter;"/>
   </g>
   <g id="patch_73">
    <path clip-path="url(#pd981e96042)" d="M 190.963636 251.813973 
L 197.050909 251.813973 
L 197.050909 241.508054 
L 190.963636 241.508054 
z
" style="fill:#7fcdbb;stroke:#000000;stroke-linejoin:miter;"/>
   </g>
   <g id="patch_74">
    <path clip-path="url(#pd981e96042)" d="M 197.050909 252 
L 203.138182 252 
L 203.138182 246.865643 
L 197.050909 246.865643 
z
" style="fill:#7fcdbb;stroke:#000000;stroke-linejoin:miter;"/>
   </g>
   <g id="patch_75">
    <path clip-path="url(#pd981e96042)" d="M 203.138182 252 
L 209.225455 252 
L 209.225455 247.609753 
L 203.138182 247.609753 
z
" style="fill:#7fcdbb;stroke:#000000;stroke-linejoin:miter;"/>
   </g>
   <g id="patch_76">
    <path clip-path="url(#pd981e96042)" d="M 209.225455 252 
L 215.312727 252 
L 215.312727 248.688712 
L 209.225455 248.688712 
z
" style="fill:#7fcdbb;stroke:#000000;stroke-linejoin:miter;"/>
   </g>
   <g id="patch_77">
    <path clip-path="url(#pd981e96042)" d="M 215.312727 252 
L 221.4 252 
L 221.4 248.465479 
L 215.312727 248.465479 
z
" style="fill:#7fcdbb;stroke:#000000;stroke-linejoin:miter;"/>
   </g>
   <g id="patch_78">
    <path clip-path="url(#pd981e96042)" d="M 221.4 252 
L 227.487273 252 
L 227.487273 249.284 
L 221.4 249.284 
z
" style="fill:#7fcdbb;stroke:#000000;stroke-linejoin:miter;"/>
   </g>
   <g id="patch_79">
    <path clip-path="url(#pd981e96042)" d="M 227.487273 252 
L 233.574545 252 
L 233.574545 251.107068 
L 227.487273 251.107068 
z
" style="fill:#7fcdbb;stroke:#000000;stroke-linejoin:miter;"/>
   </g>
   <g id="patch_80">
    <path clip-path="url(#pd981e96042)" d="M 233.574545 252 
L 239.661818 252 
L 239.661818 251.404712 
L 233.574545 251.404712 
z
" style="fill:#7fcdbb;stroke:#000000;stroke-linejoin:miter;"/>
   </g>
   <g id="patch_81">
    <path clip-path="url(#pd981e96042)" d="M 239.661818 252 
L 245.749091 252 
L 245.749091 251.739562 
L 239.661818 251.739562 
z
" style="fill:#7fcdbb;stroke:#000000;stroke-linejoin:miter;"/>
   </g>
   <g id="patch_82">
    <path clip-path="url(#pd981e96042)" d="M 245.749091 252 
L 251.836364 252 
L 251.836364 251.739562 
L 245.749091 251.739562 
z
" style="fill:#7fcdbb;stroke:#000000;stroke-linejoin:miter;"/>
   </g>
   <g id="patch_83">
    <path clip-path="url(#pd981e96042)" d="M 251.836364 252 
L 257.923636 252 
L 257.923636 251.813973 
L 251.836364 251.813973 
z
" style="fill:#7fcdbb;stroke:#000000;stroke-linejoin:miter;"/>
   </g>
   <g id="patch_84">
    <path clip-path="url(#pd981e96042)" d="M 257.923636 252 
L 264.010909 252 
L 264.010909 251.888384 
L 257.923636 251.888384 
z
" style="fill:#7fcdbb;stroke:#000000;stroke-linejoin:miter;"/>
   </g>
   <g id="patch_85">
    <path clip-path="url(#pd981e96042)" d="M 264.010909 252 
L 270.098182 252 
L 270.098182 251.925589 
L 264.010909 251.925589 
z
" style="fill:#7fcdbb;stroke:#000000;stroke-linejoin:miter;"/>
   </g>
   <g id="patch_86">
    <path clip-path="url(#pd981e96042)" d="M 270.098182 252 
L 276.185455 252 
L 276.185455 252 
L 270.098182 252 
z
" style="fill:#7fcdbb;stroke:#000000;stroke-linejoin:miter;"/>
   </g>
   <g id="patch_87">
    <path clip-path="url(#pd981e96042)" d="M 276.185455 252 
L 282.272727 252 
L 282.272727 252 
L 276.185455 252 
z
" style="fill:#7fcdbb;stroke:#000000;stroke-linejoin:miter;"/>
   </g>
   <g id="patch_88">
    <path clip-path="url(#pd981e96042)" d="M 282.272727 252 
L 288.36 252 
L 288.36 252 
L 282.272727 252 
z
" style="fill:#7fcdbb;stroke:#000000;stroke-linejoin:miter;"/>
   </g>
   <g id="patch_89">
    <path clip-path="url(#pd981e96042)" d="M 288.36 252 
L 294.447273 252 
L 294.447273 252 
L 288.36 252 
z
" style="fill:#7fcdbb;stroke:#000000;stroke-linejoin:miter;"/>
   </g>
   <g id="patch_90">
    <path clip-path="url(#pd981e96042)" d="M 294.447273 252 
L 300.534545 252 
L 300.534545 252 
L 294.447273 252 
z
" style="fill:#7fcdbb;stroke:#000000;stroke-linejoin:miter;"/>
   </g>
   <g id="patch_91">
    <path clip-path="url(#pd981e96042)" d="M 300.534545 252 
L 306.621818 252 
L 306.621818 252 
L 300.534545 252 
z
" style="fill:#7fcdbb;stroke:#000000;stroke-linejoin:miter;"/>
   </g>
   <g id="patch_92">
    <path clip-path="url(#pd981e96042)" d="M 306.621818 252 
L 312.709091 252 
L 312.709091 252 
L 306.621818 252 
z
" style="fill:#7fcdbb;stroke:#000000;stroke-linejoin:miter;"/>
   </g>
   <g id="patch_93">
    <path clip-path="url(#pd981e96042)" d="M 312.709091 252 
L 318.796364 252 
L 318.796364 251.962795 
L 312.709091 251.962795 
z
" style="fill:#7fcdbb;stroke:#000000;stroke-linejoin:miter;"/>
   </g>
   <g id="patch_94">
    <path clip-path="url(#pd981e96042)" d="M 318.796364 252 
L 324.883636 252 
L 324.883636 252 
L 318.796364 252 
z
" style="fill:#7fcdbb;stroke:#000000;stroke-linejoin:miter;"/>
   </g>
   <g id="patch_95">
    <path clip-path="url(#pd981e96042)" d="M 324.883636 252 
L 330.970909 252 
L 330.970909 252 
L 324.883636 252 
z
" style="fill:#7fcdbb;stroke:#000000;stroke-linejoin:miter;"/>
   </g>
   <g id="patch_96">
    <path clip-path="url(#pd981e96042)" d="M 330.970909 252 
L 337.058182 252 
L 337.058182 252 
L 330.970909 252 
z
" style="fill:#7fcdbb;stroke:#000000;stroke-linejoin:miter;"/>
   </g>
   <g id="patch_97">
    <path clip-path="url(#pd981e96042)" d="M 337.058182 252 
L 343.145455 252 
L 343.145455 252 
L 337.058182 252 
z
" style="fill:#7fcdbb;stroke:#000000;stroke-linejoin:miter;"/>
   </g>
   <g id="patch_98">
    <path clip-path="url(#pd981e96042)" d="M 343.145455 252 
L 349.232727 252 
L 349.232727 252 
L 343.145455 252 
z
" style="fill:#7fcdbb;stroke:#000000;stroke-linejoin:miter;"/>
   </g>
   <g id="patch_99">
    <path clip-path="url(#pd981e96042)" d="M 349.232727 252 
L 355.32 252 
L 355.32 252 
L 349.232727 252 
z
" style="fill:#7fcdbb;stroke:#000000;stroke-linejoin:miter;"/>
   </g>
   <g id="patch_100">
    <path clip-path="url(#pd981e96042)" d="M 355.32 252 
L 361.407273 252 
L 361.407273 252 
L 355.32 252 
z
" style="fill:#7fcdbb;stroke:#000000;stroke-linejoin:miter;"/>
   </g>
   <g id="patch_101">
    <path clip-path="url(#pd981e96042)" d="M 361.407273 252 
L 367.494545 252 
L 367.494545 252 
L 361.407273 252 
z
" style="fill:#7fcdbb;stroke:#000000;stroke-linejoin:miter;"/>
   </g>
   <g id="patch_102">
    <path clip-path="url(#pd981e96042)" d="M 367.494545 252 
L 373.581818 252 
L 373.581818 252 
L 367.494545 252 
z
" style="fill:#7fcdbb;stroke:#000000;stroke-linejoin:miter;"/>
   </g>
   <g id="patch_103">
    <path clip-path="url(#pd981e96042)" d="M 69.218182 251.665151 
L 75.305455 251.665151 
L 75.305455 251.627945 
L 69.218182 251.627945 
z
" style="fill:#2c7fb8;stroke:#000000;stroke-linejoin:miter;"/>
   </g>
   <g id="patch_104">
    <path clip-path="url(#pd981e96042)" d="M 75.305455 246.009917 
L 81.392727 246.009917 
L 81.392727 245.637863 
L 75.305455 245.637863 
z
" style="fill:#2c7fb8;stroke:#000000;stroke-linejoin:miter;"/>
   </g>
   <g id="patch_105">
    <path clip-path="url(#pd981e96042)" d="M 81.392727 235.666793 
L 87.48 235.666793 
L 87.48 234.848273 
L 81.392727 234.848273 
z
" style="fill:#2c7fb8;stroke:#000000;stroke-linejoin:miter;"/>
   </g>
   <g id="patch_106">
    <path clip-path="url(#pd981e96042)" d="M 87.48 208.209147 
L 93.567273 208.209147 
L 93.567273 203.74449 
L 87.48 203.74449 
z
" style="fill:#2c7fb8;stroke:#000000;stroke-linejoin:miter;"/>
   </g>
   <g id="patch_107">
    <path clip-path="url(#pd981e96042)" d="M 93.567273 190.424927 
L 99.654545 190.424927 
L 99.654545 181.793255 
L 93.567273 181.793255 
z
" style="fill:#2c7fb8;stroke:#000000;stroke-linejoin:miter;"/>
   </g>
   <g id="patch_108">
    <path clip-path="url(#pd981e96042)" d="M 99.654545 176.212433 
L 105.741818 176.212433 
L 105.741818 149.536102 
L 99.654545 149.536102 
z
" style="fill:#2c7fb8;stroke:#000000;stroke-linejoin:miter;"/>
   </g>
   <g id="patch_109">
    <path clip-path="url(#pd981e96042)" d="M 105.741818 167.655172 
L 111.829091 167.655172 
L 111.829091 108.758893 
L 105.741818 108.758893 
z
" style="fill:#2c7fb8;stroke:#000000;stroke-linejoin:miter;"/>
   </g>
   <g id="patch_110">
    <path clip-path="url(#pd981e96042)" d="M 111.829091 149.759335 
L 117.916364 149.759335 
L 117.916364 53.248314 
L 111.829091 53.248314 
z
" style="fill:#2c7fb8;stroke:#000000;stroke-linejoin:miter;"/>
   </g>
   <g id="patch_111">
    <path clip-path="url(#pd981e96042)" d="M 117.916364 131.044977 
L 124.003636 131.044977 
L 124.003636 62.735712 
L 117.916364 62.735712 
z
" style="fill:#2c7fb8;stroke:#000000;stroke-linejoin:miter;"/>
   </g>
   <g id="patch_112">
    <path clip-path="url(#pd981e96042)" d="M 124.003636 94.174344 
L 130.090909 94.174344 
L 130.090909 44.914286 
L 124.003636 44.914286 
z
" style="fill:#2c7fb8;stroke:#000000;stroke-linejoin:miter;"/>
   </g>
   <g id="patch_113">
    <path clip-path="url(#pd981e96042)" d="M 130.090909 102.35955 
L 136.178182 102.35955 
L 136.178182 60.577794 
L 130.090909 60.577794 
z
" style="fill:#2c7fb8;stroke:#000000;stroke-linejoin:miter;"/>
   </g>
   <g id="patch_114">
    <path clip-path="url(#pd981e96042)" d="M 136.178182 152.996212 
L 142.265455 152.996212 
L 142.265455 115.04662 
L 136.178182 115.04662 
z
" style="fill:#2c7fb8;stroke:#000000;stroke-linejoin:miter;"/>
   </g>
   <g id="patch_115">
    <path clip-path="url(#pd981e96042)" d="M 142.265455 178.184323 
L 148.352727 178.184323 
L 148.352727 140.867224 
L 142.265455 140.867224 
z
" style="fill:#2c7fb8;stroke:#000000;stroke-linejoin:miter;"/>
   </g>
   <g id="patch_116">
    <path clip-path="url(#pd981e96042)" d="M 148.352727 194.145475 
L 154.44 194.145475 
L 154.44 156.493527 
L 148.352727 156.493527 
z
" style="fill:#2c7fb8;stroke:#000000;stroke-linejoin:miter;"/>
   </g>
   <g id="patch_117">
    <path clip-path="url(#pd981e96042)" d="M 154.44 201.1029 
L 160.527273 201.1029 
L 160.527273 159.321144 
L 154.44 159.321144 
z
" style="fill:#2c7fb8;stroke:#000000;stroke-linejoin:miter;"/>
   </g>
   <g id="patch_118">
    <path clip-path="url(#pd981e96042)" d="M 160.527273 204.525805 
L 166.614545 204.525805 
L 166.614545 153.591499 
L 160.527273 153.591499 
z
" style="fill:#2c7fb8;stroke:#000000;stroke-linejoin:miter;"/>
   </g>
   <g id="patch_119">
    <path clip-path="url(#pd981e96042)" d="M 166.614545 196.601037 
L 172.701818 196.601037 
L 172.701818 141.64854 
L 166.614545 141.64854 
z
" style="fill:#2c7fb8;stroke:#000000;stroke-linejoin:miter;"/>
   </g>
   <g id="patch_120">
    <path clip-path="url(#pd981e96042)" d="M 172.701818 198.3869 
L 178.789091 198.3869 
L 178.789091 143.434403 
L 172.701818 143.434403 
z
" style="fill:#2c7fb8;stroke:#000000;stroke-linejoin:miter;"/>
   </g>
   <g id="patch_121">
    <path clip-path="url(#pd981e96042)" d="M 178.789091 212.190134 
L 184.876364 212.190134 
L 184.876364 156.71676 
L 178.789091 156.71676 
z
" style="fill:#2c7fb8;stroke:#000000;stroke-linejoin:miter;"/>
   </g>
   <g id="patch_122">
    <path clip-path="url(#pd981e96042)" d="M 184.876364 231.276546 
L 190.963636 231.276546 
L 190.963636 174.83583 
L 184.876364 174.83583 
z
" style="fill:#2c7fb8;stroke:#000000;stroke-linejoin:miter;"/>
   </g>
   <g id="patch_123">
    <path clip-path="url(#pd981e96042)" d="M 190.963636 241.508054 
L 197.050909 241.508054 
L 197.050909 188.415831 
L 190.963636 188.415831 
z
" style="fill:#2c7fb8;stroke:#000000;stroke-linejoin:miter;"/>
   </g>
   <g id="patch_124">
    <path clip-path="url(#pd981e96042)" d="M 197.050909 246.865643 
L 203.138182 246.865643 
L 203.138182 198.982188 
L 197.050909 198.982188 
z
" style="fill:#2c7fb8;stroke:#000000;stroke-linejoin:miter;"/>
   </g>
   <g id="patch_125">
    <path clip-path="url(#pd981e96042)" d="M 203.138182 247.609753 
L 209.225455 247.609753 
L 209.225455 205.381531 
L 203.138182 205.381531 
z
" style="fill:#2c7fb8;stroke:#000000;stroke-linejoin:miter;"/>
   </g>
   <g id="patch_126">
    <path clip-path="url(#pd981e96042)" d="M 209.225455 248.688712 
L 215.312727 248.688712 
L 215.312727 218.105806 
L 209.225455 218.105806 
z
" style="fill:#2c7fb8;stroke:#000000;stroke-linejoin:miter;"/>
   </g>
   <g id="patch_127">
    <path clip-path="url(#pd981e96042)" d="M 215.312727 248.465479 
L 221.4 248.465479 
L 221.4 225.695724 
L 215.312727 225.695724 
z
" style="fill:#2c7fb8;stroke:#000000;stroke-linejoin:miter;"/>
   </g>
   <g id="patch_128">
    <path clip-path="url(#pd981e96042)" d="M 221.4 249.284 
L 227.487273 249.284 
L 227.487273 232.281094 
L 221.4 232.281094 
z
" style="fill:#2c7fb8;stroke:#000000;stroke-linejoin:miter;"/>
   </g>
   <g id="patch_129">
    <path clip-path="url(#pd981e96042)" d="M 227.487273 251.107068 
L 233.574545 251.107068 
L 233.574545 239.201314 
L 227.487273 239.201314 
z
" style="fill:#2c7fb8;stroke:#000000;stroke-linejoin:miter;"/>
   </g>
   <g id="patch_130">
    <path clip-path="url(#pd981e96042)" d="M 233.574545 251.404712 
L 239.661818 251.404712 
L 239.661818 240.726739 
L 233.574545 240.726739 
z
" style="fill:#2c7fb8;stroke:#000000;stroke-linejoin:miter;"/>
   </g>
   <g id="patch_131">
    <path clip-path="url(#pd981e96042)" d="M 239.661818 251.739562 
L 245.749091 251.739562 
L 245.749091 242.066136 
L 239.661818 242.066136 
z
" style="fill:#2c7fb8;stroke:#000000;stroke-linejoin:miter;"/>
   </g>
   <g id="patch_132">
    <path clip-path="url(#pd981e96042)" d="M 245.749091 251.739562 
L 251.836364 251.739562 
L 251.836364 246.158739 
L 245.749091 246.158739 
z
" style="fill:#2c7fb8;stroke:#000000;stroke-linejoin:miter;"/>
   </g>
   <g id="patch_133">
    <path clip-path="url(#pd981e96042)" d="M 251.836364 251.813973 
L 257.923636 251.813973 
L 257.923636 249.321205 
L 251.836364 249.321205 
z
" style="fill:#2c7fb8;stroke:#000000;stroke-linejoin:miter;"/>
   </g>
   <g id="patch_134">
    <path clip-path="url(#pd981e96042)" d="M 257.923636 251.888384 
L 264.010909 251.888384 
L 264.010909 250.511781 
L 257.923636 250.511781 
z
" style="fill:#2c7fb8;stroke:#000000;stroke-linejoin:miter;"/>
   </g>
   <g id="patch_135">
    <path clip-path="url(#pd981e96042)" d="M 264.010909 251.925589 
L 270.098182 251.925589 
L 270.098182 251.404712 
L 264.010909 251.404712 
z
" style="fill:#2c7fb8;stroke:#000000;stroke-linejoin:miter;"/>
   </g>
   <g id="patch_136">
    <path clip-path="url(#pd981e96042)" d="M 270.098182 252 
L 276.185455 252 
L 276.185455 251.776767 
L 270.098182 251.776767 
z
" style="fill:#2c7fb8;stroke:#000000;stroke-linejoin:miter;"/>
   </g>
   <g id="patch_137">
    <path clip-path="url(#pd981e96042)" d="M 276.185455 252 
L 282.272727 252 
L 282.272727 251.776767 
L 276.185455 251.776767 
z
" style="fill:#2c7fb8;stroke:#000000;stroke-linejoin:miter;"/>
   </g>
   <g id="patch_138">
    <path clip-path="url(#pd981e96042)" d="M 282.272727 252 
L 288.36 252 
L 288.36 251.776767 
L 282.272727 251.776767 
z
" style="fill:#2c7fb8;stroke:#000000;stroke-linejoin:miter;"/>
   </g>
   <g id="patch_139">
    <path clip-path="url(#pd981e96042)" d="M 288.36 252 
L 294.447273 252 
L 294.447273 251.851178 
L 288.36 251.851178 
z
" style="fill:#2c7fb8;stroke:#000000;stroke-linejoin:miter;"/>
   </g>
   <g id="patch_140">
    <path clip-path="url(#pd981e96042)" d="M 294.447273 252 
L 300.534545 252 
L 300.534545 251.925589 
L 294.447273 251.925589 
z
" style="fill:#2c7fb8;stroke:#000000;stroke-linejoin:miter;"/>
   </g>
   <g id="patch_141">
    <path clip-path="url(#pd981e96042)" d="M 300.534545 252 
L 306.621818 252 
L 306.621818 251.962795 
L 300.534545 251.962795 
z
" style="fill:#2c7fb8;stroke:#000000;stroke-linejoin:miter;"/>
   </g>
   <g id="patch_142">
    <path clip-path="url(#pd981e96042)" d="M 306.621818 252 
L 312.709091 252 
L 312.709091 251.925589 
L 306.621818 251.925589 
z
" style="fill:#2c7fb8;stroke:#000000;stroke-linejoin:miter;"/>
   </g>
   <g id="patch_143">
    <path clip-path="url(#pd981e96042)" d="M 312.709091 251.962795 
L 318.796364 251.962795 
L 318.796364 251.851178 
L 312.709091 251.851178 
z
" style="fill:#2c7fb8;stroke:#000000;stroke-linejoin:miter;"/>
   </g>
   <g id="patch_144">
    <path clip-path="url(#pd981e96042)" d="M 318.796364 252 
L 324.883636 252 
L 324.883636 252 
L 318.796364 252 
z
" style="fill:#2c7fb8;stroke:#000000;stroke-linejoin:miter;"/>
   </g>
   <g id="patch_145">
    <path clip-path="url(#pd981e96042)" d="M 324.883636 252 
L 330.970909 252 
L 330.970909 251.962795 
L 324.883636 251.962795 
z
" style="fill:#2c7fb8;stroke:#000000;stroke-linejoin:miter;"/>
   </g>
   <g id="patch_146">
    <path clip-path="url(#pd981e96042)" d="M 330.970909 252 
L 337.058182 252 
L 337.058182 251.888384 
L 330.970909 251.888384 
z
" style="fill:#2c7fb8;stroke:#000000;stroke-linejoin:miter;"/>
   </g>
   <g id="patch_147">
    <path clip-path="url(#pd981e96042)" d="M 337.058182 252 
L 343.145455 252 
L 343.145455 251.962795 
L 337.058182 251.962795 
z
" style="fill:#2c7fb8;stroke:#000000;stroke-linejoin:miter;"/>
   </g>
   <g id="patch_148">
    <path clip-path="url(#pd981e96042)" d="M 343.145455 252 
L 349.232727 252 
L 349.232727 251.925589 
L 343.145455 251.925589 
z
" style="fill:#2c7fb8;stroke:#000000;stroke-linejoin:miter;"/>
   </g>
   <g id="patch_149">
    <path clip-path="url(#pd981e96042)" d="M 349.232727 252 
L 355.32 252 
L 355.32 252 
L 349.232727 252 
z
" style="fill:#2c7fb8;stroke:#000000;stroke-linejoin:miter;"/>
   </g>
   <g id="patch_150">
    <path clip-path="url(#pd981e96042)" d="M 355.32 252 
L 361.407273 252 
L 361.407273 252 
L 355.32 252 
z
" style="fill:#2c7fb8;stroke:#000000;stroke-linejoin:miter;"/>
   </g>
   <g id="patch_151">
    <path clip-path="url(#pd981e96042)" d="M 361.407273 252 
L 367.494545 252 
L 367.494545 252 
L 361.407273 252 
z
" style="fill:#2c7fb8;stroke:#000000;stroke-linejoin:miter;"/>
   </g>
   <g id="patch_152">
    <path clip-path="url(#pd981e96042)" d="M 367.494545 252 
L 373.581818 252 
L 373.581818 251.888384 
L 367.494545 251.888384 
z
" style="fill:#2c7fb8;stroke:#000000;stroke-linejoin:miter;"/>
   </g>
   <g id="matplotlib.axis_1">
    <g id="xtick_1">
     <g id="line2d_1">
      <defs>
       <path d="M 0 0 
L 0 3.5 
" id="me0a3e7982d" style="stroke:#000000;stroke-width:0.8;"/>
      </defs>
      <g>
       <use style="stroke:#000000;stroke-width:0.8;" x="69.218182" xlink:href="#me0a3e7982d" y="252"/>
      </g>
     </g>
     <g id="text_1">
      <!-- 0 -->
      <defs>
       <path d="M 31.78125 66.40625 
Q 24.171875 66.40625 20.328125 58.90625 
Q 16.5 51.421875 16.5 36.375 
Q 16.5 21.390625 20.328125 13.890625 
Q 24.171875 6.390625 31.78125 6.390625 
Q 39.453125 6.390625 43.28125 13.890625 
Q 47.125 21.390625 47.125 36.375 
Q 47.125 51.421875 43.28125 58.90625 
Q 39.453125 66.40625 31.78125 66.40625 
z
M 31.78125 74.21875 
Q 44.046875 74.21875 50.515625 64.515625 
Q 56.984375 54.828125 56.984375 36.375 
Q 56.984375 17.96875 50.515625 8.265625 
Q 44.046875 -1.421875 31.78125 -1.421875 
Q 19.53125 -1.421875 13.0625 8.265625 
Q 6.59375 17.96875 6.59375 36.375 
Q 6.59375 54.828125 13.0625 64.515625 
Q 19.53125 74.21875 31.78125 74.21875 
z
" id="DejaVuSans-48"/>
      </defs>
      <g transform="translate(66.036932 266.598437)scale(0.1 -0.1)">
       <use xlink:href="#DejaVuSans-48"/>
      </g>
     </g>
    </g>
    <g id="xtick_2">
     <g id="line2d_2">
      <g>
       <use style="stroke:#000000;stroke-width:0.8;" x="137.356307" xlink:href="#me0a3e7982d" y="252"/>
      </g>
     </g>
     <g id="text_2">
      <!-- 500 -->
      <defs>
       <path d="M 10.796875 72.90625 
L 49.515625 72.90625 
L 49.515625 64.59375 
L 19.828125 64.59375 
L 19.828125 46.734375 
Q 21.96875 47.46875 24.109375 47.828125 
Q 26.265625 48.1875 28.421875 48.1875 
Q 40.625 48.1875 47.75 41.5 
Q 54.890625 34.8125 54.890625 23.390625 
Q 54.890625 11.625 47.5625 5.09375 
Q 40.234375 -1.421875 26.90625 -1.421875 
Q 22.3125 -1.421875 17.546875 -0.640625 
Q 12.796875 0.140625 7.71875 1.703125 
L 7.71875 11.625 
Q 12.109375 9.234375 16.796875 8.0625 
Q 21.484375 6.890625 26.703125 6.890625 
Q 35.15625 6.890625 40.078125 11.328125 
Q 45.015625 15.765625 45.015625 23.390625 
Q 45.015625 31 40.078125 35.4375 
Q 35.15625 39.890625 26.703125 39.890625 
Q 22.75 39.890625 18.8125 39.015625 
Q 14.890625 38.140625 10.796875 36.28125 
z
" id="DejaVuSans-53"/>
      </defs>
      <g transform="translate(127.812557 266.598437)scale(0.1 -0.1)">
       <use xlink:href="#DejaVuSans-53"/>
       <use x="63.623047" xlink:href="#DejaVuSans-48"/>
       <use x="127.246094" xlink:href="#DejaVuSans-48"/>
      </g>
     </g>
    </g>
    <g id="xtick_3">
     <g id="line2d_3">
      <g>
       <use style="stroke:#000000;stroke-width:0.8;" x="205.494433" xlink:href="#me0a3e7982d" y="252"/>
      </g>
     </g>
     <g id="text_3">
      <!-- 1.000 -->
      <defs>
       <path d="M 12.40625 8.296875 
L 28.515625 8.296875 
L 28.515625 63.921875 
L 10.984375 60.40625 
L 10.984375 69.390625 
L 28.421875 72.90625 
L 38.28125 72.90625 
L 38.28125 8.296875 
L 54.390625 8.296875 
L 54.390625 0 
L 12.40625 0 
z
" id="DejaVuSans-49"/>
       <path d="M 10.6875 12.40625 
L 21 12.40625 
L 21 0 
L 10.6875 0 
z
" id="DejaVuSans-46"/>
      </defs>
      <g transform="translate(191.18037 266.598437)scale(0.1 -0.1)">
       <use xlink:href="#DejaVuSans-49"/>
       <use x="63.623047" xlink:href="#DejaVuSans-46"/>
       <use x="95.410156" xlink:href="#DejaVuSans-48"/>
       <use x="159.033203" xlink:href="#DejaVuSans-48"/>
       <use x="222.65625" xlink:href="#DejaVuSans-48"/>
      </g>
     </g>
    </g>
    <g id="xtick_4">
     <g id="line2d_4">
      <g>
       <use style="stroke:#000000;stroke-width:0.8;" x="273.632558" xlink:href="#me0a3e7982d" y="252"/>
      </g>
     </g>
     <g id="text_4">
      <!-- 1.500 -->
      <g transform="translate(259.318496 266.598437)scale(0.1 -0.1)">
       <use xlink:href="#DejaVuSans-49"/>
       <use x="63.623047" xlink:href="#DejaVuSans-46"/>
       <use x="95.410156" xlink:href="#DejaVuSans-53"/>
       <use x="159.033203" xlink:href="#DejaVuSans-48"/>
       <use x="222.65625" xlink:href="#DejaVuSans-48"/>
      </g>
     </g>
    </g>
    <g id="xtick_5">
     <g id="line2d_5">
      <g>
       <use style="stroke:#000000;stroke-width:0.8;" x="341.770684" xlink:href="#me0a3e7982d" y="252"/>
      </g>
     </g>
     <g id="text_5">
      <!-- 2.000 -->
      <defs>
       <path d="M 19.1875 8.296875 
L 53.609375 8.296875 
L 53.609375 0 
L 7.328125 0 
L 7.328125 8.296875 
Q 12.9375 14.109375 22.625 23.890625 
Q 32.328125 33.6875 34.8125 36.53125 
Q 39.546875 41.84375 41.421875 45.53125 
Q 43.3125 49.21875 43.3125 52.78125 
Q 43.3125 58.59375 39.234375 62.25 
Q 35.15625 65.921875 28.609375 65.921875 
Q 23.96875 65.921875 18.8125 64.3125 
Q 13.671875 62.703125 7.8125 59.421875 
L 7.8125 69.390625 
Q 13.765625 71.78125 18.9375 73 
Q 24.125 74.21875 28.421875 74.21875 
Q 39.75 74.21875 46.484375 68.546875 
Q 53.21875 62.890625 53.21875 53.421875 
Q 53.21875 48.921875 51.53125 44.890625 
Q 49.859375 40.875 45.40625 35.40625 
Q 44.1875 33.984375 37.640625 27.21875 
Q 31.109375 20.453125 19.1875 8.296875 
z
" id="DejaVuSans-50"/>
      </defs>
      <g transform="translate(327.456621 266.598437)scale(0.1 -0.1)">
       <use xlink:href="#DejaVuSans-50"/>
       <use x="63.623047" xlink:href="#DejaVuSans-46"/>
       <use x="95.410156" xlink:href="#DejaVuSans-48"/>
       <use x="159.033203" xlink:href="#DejaVuSans-48"/>
       <use x="222.65625" xlink:href="#DejaVuSans-48"/>
      </g>
     </g>
    </g>
    <g id="text_6">
     <!-- Population Density [hab/ha] -->
     <defs>
      <path d="M 19.671875 64.796875 
L 19.671875 37.40625 
L 32.078125 37.40625 
Q 38.96875 37.40625 42.71875 40.96875 
Q 46.484375 44.53125 46.484375 51.125 
Q 46.484375 57.671875 42.71875 61.234375 
Q 38.96875 64.796875 32.078125 64.796875 
z
M 9.8125 72.90625 
L 32.078125 72.90625 
Q 44.34375 72.90625 50.609375 67.359375 
Q 56.890625 61.8125 56.890625 51.125 
Q 56.890625 40.328125 50.609375 34.8125 
Q 44.34375 29.296875 32.078125 29.296875 
L 19.671875 29.296875 
L 19.671875 0 
L 9.8125 0 
z
" id="DejaVuSans-80"/>
      <path d="M 30.609375 48.390625 
Q 23.390625 48.390625 19.1875 42.75 
Q 14.984375 37.109375 14.984375 27.296875 
Q 14.984375 17.484375 19.15625 11.84375 
Q 23.34375 6.203125 30.609375 6.203125 
Q 37.796875 6.203125 41.984375 11.859375 
Q 46.1875 17.53125 46.1875 27.296875 
Q 46.1875 37.015625 41.984375 42.703125 
Q 37.796875 48.390625 30.609375 48.390625 
z
M 30.609375 56 
Q 42.328125 56 49.015625 48.375 
Q 55.71875 40.765625 55.71875 27.296875 
Q 55.71875 13.875 49.015625 6.21875 
Q 42.328125 -1.421875 30.609375 -1.421875 
Q 18.84375 -1.421875 12.171875 6.21875 
Q 5.515625 13.875 5.515625 27.296875 
Q 5.515625 40.765625 12.171875 48.375 
Q 18.84375 56 30.609375 56 
z
" id="DejaVuSans-111"/>
      <path d="M 18.109375 8.203125 
L 18.109375 -20.796875 
L 9.078125 -20.796875 
L 9.078125 54.6875 
L 18.109375 54.6875 
L 18.109375 46.390625 
Q 20.953125 51.265625 25.265625 53.625 
Q 29.59375 56 35.59375 56 
Q 45.5625 56 51.78125 48.09375 
Q 58.015625 40.1875 58.015625 27.296875 
Q 58.015625 14.40625 51.78125 6.484375 
Q 45.5625 -1.421875 35.59375 -1.421875 
Q 29.59375 -1.421875 25.265625 0.953125 
Q 20.953125 3.328125 18.109375 8.203125 
z
M 48.6875 27.296875 
Q 48.6875 37.203125 44.609375 42.84375 
Q 40.53125 48.484375 33.40625 48.484375 
Q 26.265625 48.484375 22.1875 42.84375 
Q 18.109375 37.203125 18.109375 27.296875 
Q 18.109375 17.390625 22.1875 11.75 
Q 26.265625 6.109375 33.40625 6.109375 
Q 40.53125 6.109375 44.609375 11.75 
Q 48.6875 17.390625 48.6875 27.296875 
z
" id="DejaVuSans-112"/>
      <path d="M 8.5 21.578125 
L 8.5 54.6875 
L 17.484375 54.6875 
L 17.484375 21.921875 
Q 17.484375 14.15625 20.5 10.265625 
Q 23.53125 6.390625 29.59375 6.390625 
Q 36.859375 6.390625 41.078125 11.03125 
Q 45.3125 15.671875 45.3125 23.6875 
L 45.3125 54.6875 
L 54.296875 54.6875 
L 54.296875 0 
L 45.3125 0 
L 45.3125 8.40625 
Q 42.046875 3.421875 37.71875 1 
Q 33.40625 -1.421875 27.6875 -1.421875 
Q 18.265625 -1.421875 13.375 4.4375 
Q 8.5 10.296875 8.5 21.578125 
z
M 31.109375 56 
z
" id="DejaVuSans-117"/>
      <path d="M 9.421875 75.984375 
L 18.40625 75.984375 
L 18.40625 0 
L 9.421875 0 
z
" id="DejaVuSans-108"/>
      <path d="M 34.28125 27.484375 
Q 23.390625 27.484375 19.1875 25 
Q 14.984375 22.515625 14.984375 16.5 
Q 14.984375 11.71875 18.140625 8.90625 
Q 21.296875 6.109375 26.703125 6.109375 
Q 34.1875 6.109375 38.703125 11.40625 
Q 43.21875 16.703125 43.21875 25.484375 
L 43.21875 27.484375 
z
M 52.203125 31.203125 
L 52.203125 0 
L 43.21875 0 
L 43.21875 8.296875 
Q 40.140625 3.328125 35.546875 0.953125 
Q 30.953125 -1.421875 24.3125 -1.421875 
Q 15.921875 -1.421875 10.953125 3.296875 
Q 6 8.015625 6 15.921875 
Q 6 25.140625 12.171875 29.828125 
Q 18.359375 34.515625 30.609375 34.515625 
L 43.21875 34.515625 
L 43.21875 35.40625 
Q 43.21875 41.609375 39.140625 45 
Q 35.0625 48.390625 27.6875 48.390625 
Q 23 48.390625 18.546875 47.265625 
Q 14.109375 46.140625 10.015625 43.890625 
L 10.015625 52.203125 
Q 14.9375 54.109375 19.578125 55.046875 
Q 24.21875 56 28.609375 56 
Q 40.484375 56 46.34375 49.84375 
Q 52.203125 43.703125 52.203125 31.203125 
z
" id="DejaVuSans-97"/>
      <path d="M 18.3125 70.21875 
L 18.3125 54.6875 
L 36.8125 54.6875 
L 36.8125 47.703125 
L 18.3125 47.703125 
L 18.3125 18.015625 
Q 18.3125 11.328125 20.140625 9.421875 
Q 21.96875 7.515625 27.59375 7.515625 
L 36.8125 7.515625 
L 36.8125 0 
L 27.59375 0 
Q 17.1875 0 13.234375 3.875 
Q 9.28125 7.765625 9.28125 18.015625 
L 9.28125 47.703125 
L 2.6875 47.703125 
L 2.6875 54.6875 
L 9.28125 54.6875 
L 9.28125 70.21875 
z
" id="DejaVuSans-116"/>
      <path d="M 9.421875 54.6875 
L 18.40625 54.6875 
L 18.40625 0 
L 9.421875 0 
z
M 9.421875 75.984375 
L 18.40625 75.984375 
L 18.40625 64.59375 
L 9.421875 64.59375 
z
" id="DejaVuSans-105"/>
      <path d="M 54.890625 33.015625 
L 54.890625 0 
L 45.90625 0 
L 45.90625 32.71875 
Q 45.90625 40.484375 42.875 44.328125 
Q 39.84375 48.1875 33.796875 48.1875 
Q 26.515625 48.1875 22.3125 43.546875 
Q 18.109375 38.921875 18.109375 30.90625 
L 18.109375 0 
L 9.078125 0 
L 9.078125 54.6875 
L 18.109375 54.6875 
L 18.109375 46.1875 
Q 21.34375 51.125 25.703125 53.5625 
Q 30.078125 56 35.796875 56 
Q 45.21875 56 50.046875 50.171875 
Q 54.890625 44.34375 54.890625 33.015625 
z
" id="DejaVuSans-110"/>
      <path id="DejaVuSans-32"/>
      <path d="M 19.671875 64.796875 
L 19.671875 8.109375 
L 31.59375 8.109375 
Q 46.6875 8.109375 53.6875 14.9375 
Q 60.6875 21.78125 60.6875 36.53125 
Q 60.6875 51.171875 53.6875 57.984375 
Q 46.6875 64.796875 31.59375 64.796875 
z
M 9.8125 72.90625 
L 30.078125 72.90625 
Q 51.265625 72.90625 61.171875 64.09375 
Q 71.09375 55.28125 71.09375 36.53125 
Q 71.09375 17.671875 61.125 8.828125 
Q 51.171875 0 30.078125 0 
L 9.8125 0 
z
" id="DejaVuSans-68"/>
      <path d="M 56.203125 29.59375 
L 56.203125 25.203125 
L 14.890625 25.203125 
Q 15.484375 15.921875 20.484375 11.0625 
Q 25.484375 6.203125 34.421875 6.203125 
Q 39.59375 6.203125 44.453125 7.46875 
Q 49.3125 8.734375 54.109375 11.28125 
L 54.109375 2.78125 
Q 49.265625 0.734375 44.1875 -0.34375 
Q 39.109375 -1.421875 33.890625 -1.421875 
Q 20.796875 -1.421875 13.15625 6.1875 
Q 5.515625 13.8125 5.515625 26.8125 
Q 5.515625 40.234375 12.765625 48.109375 
Q 20.015625 56 32.328125 56 
Q 43.359375 56 49.78125 48.890625 
Q 56.203125 41.796875 56.203125 29.59375 
z
M 47.21875 32.234375 
Q 47.125 39.59375 43.09375 43.984375 
Q 39.0625 48.390625 32.421875 48.390625 
Q 24.90625 48.390625 20.390625 44.140625 
Q 15.875 39.890625 15.1875 32.171875 
z
" id="DejaVuSans-101"/>
      <path d="M 44.28125 53.078125 
L 44.28125 44.578125 
Q 40.484375 46.53125 36.375 47.5 
Q 32.28125 48.484375 27.875 48.484375 
Q 21.1875 48.484375 17.84375 46.4375 
Q 14.5 44.390625 14.5 40.28125 
Q 14.5 37.15625 16.890625 35.375 
Q 19.28125 33.59375 26.515625 31.984375 
L 29.59375 31.296875 
Q 39.15625 29.25 43.1875 25.515625 
Q 47.21875 21.78125 47.21875 15.09375 
Q 47.21875 7.46875 41.1875 3.015625 
Q 35.15625 -1.421875 24.609375 -1.421875 
Q 20.21875 -1.421875 15.453125 -0.5625 
Q 10.6875 0.296875 5.421875 2 
L 5.421875 11.28125 
Q 10.40625 8.6875 15.234375 7.390625 
Q 20.0625 6.109375 24.8125 6.109375 
Q 31.15625 6.109375 34.5625 8.28125 
Q 37.984375 10.453125 37.984375 14.40625 
Q 37.984375 18.0625 35.515625 20.015625 
Q 33.0625 21.96875 24.703125 23.78125 
L 21.578125 24.515625 
Q 13.234375 26.265625 9.515625 29.90625 
Q 5.8125 33.546875 5.8125 39.890625 
Q 5.8125 47.609375 11.28125 51.796875 
Q 16.75 56 26.8125 56 
Q 31.78125 56 36.171875 55.265625 
Q 40.578125 54.546875 44.28125 53.078125 
z
" id="DejaVuSans-115"/>
      <path d="M 32.171875 -5.078125 
Q 28.375 -14.84375 24.75 -17.8125 
Q 21.140625 -20.796875 15.09375 -20.796875 
L 7.90625 -20.796875 
L 7.90625 -13.28125 
L 13.1875 -13.28125 
Q 16.890625 -13.28125 18.9375 -11.515625 
Q 21 -9.765625 23.484375 -3.21875 
L 25.09375 0.875 
L 2.984375 54.6875 
L 12.5 54.6875 
L 29.59375 11.921875 
L 46.6875 54.6875 
L 56.203125 54.6875 
z
" id="DejaVuSans-121"/>
      <path d="M 8.59375 75.984375 
L 29.296875 75.984375 
L 29.296875 69 
L 17.578125 69 
L 17.578125 -6.203125 
L 29.296875 -6.203125 
L 29.296875 -13.1875 
L 8.59375 -13.1875 
z
" id="DejaVuSans-91"/>
      <path d="M 54.890625 33.015625 
L 54.890625 0 
L 45.90625 0 
L 45.90625 32.71875 
Q 45.90625 40.484375 42.875 44.328125 
Q 39.84375 48.1875 33.796875 48.1875 
Q 26.515625 48.1875 22.3125 43.546875 
Q 18.109375 38.921875 18.109375 30.90625 
L 18.109375 0 
L 9.078125 0 
L 9.078125 75.984375 
L 18.109375 75.984375 
L 18.109375 46.1875 
Q 21.34375 51.125 25.703125 53.5625 
Q 30.078125 56 35.796875 56 
Q 45.21875 56 50.046875 50.171875 
Q 54.890625 44.34375 54.890625 33.015625 
z
" id="DejaVuSans-104"/>
      <path d="M 48.6875 27.296875 
Q 48.6875 37.203125 44.609375 42.84375 
Q 40.53125 48.484375 33.40625 48.484375 
Q 26.265625 48.484375 22.1875 42.84375 
Q 18.109375 37.203125 18.109375 27.296875 
Q 18.109375 17.390625 22.1875 11.75 
Q 26.265625 6.109375 33.40625 6.109375 
Q 40.53125 6.109375 44.609375 11.75 
Q 48.6875 17.390625 48.6875 27.296875 
z
M 18.109375 46.390625 
Q 20.953125 51.265625 25.265625 53.625 
Q 29.59375 56 35.59375 56 
Q 45.5625 56 51.78125 48.09375 
Q 58.015625 40.1875 58.015625 27.296875 
Q 58.015625 14.40625 51.78125 6.484375 
Q 45.5625 -1.421875 35.59375 -1.421875 
Q 29.59375 -1.421875 25.265625 0.953125 
Q 20.953125 3.328125 18.109375 8.203125 
L 18.109375 0 
L 9.078125 0 
L 9.078125 75.984375 
L 18.109375 75.984375 
z
" id="DejaVuSans-98"/>
      <path d="M 25.390625 72.90625 
L 33.6875 72.90625 
L 8.296875 -9.28125 
L 0 -9.28125 
z
" id="DejaVuSans-47"/>
      <path d="M 30.421875 75.984375 
L 30.421875 -13.1875 
L 9.71875 -13.1875 
L 9.71875 -6.203125 
L 21.390625 -6.203125 
L 21.390625 69 
L 9.71875 69 
L 9.71875 75.984375 
z
" id="DejaVuSans-93"/>
     </defs>
     <g transform="translate(151.542188 280.276563)scale(0.1 -0.1)">
      <use xlink:href="#DejaVuSans-80"/>
      <use x="60.255859" xlink:href="#DejaVuSans-111"/>
      <use x="121.4375" xlink:href="#DejaVuSans-112"/>
      <use x="184.914062" xlink:href="#DejaVuSans-117"/>
      <use x="248.292969" xlink:href="#DejaVuSans-108"/>
      <use x="276.076172" xlink:href="#DejaVuSans-97"/>
      <use x="337.355469" xlink:href="#DejaVuSans-116"/>
      <use x="376.564453" xlink:href="#DejaVuSans-105"/>
      <use x="404.347656" xlink:href="#DejaVuSans-111"/>
      <use x="465.529297" xlink:href="#DejaVuSans-110"/>
      <use x="528.908203" xlink:href="#DejaVuSans-32"/>
      <use x="560.695312" xlink:href="#DejaVuSans-68"/>
      <use x="637.697266" xlink:href="#DejaVuSans-101"/>
      <use x="699.220703" xlink:href="#DejaVuSans-110"/>
      <use x="762.599609" xlink:href="#DejaVuSans-115"/>
      <use x="814.699219" xlink:href="#DejaVuSans-105"/>
      <use x="842.482422" xlink:href="#DejaVuSans-116"/>
      <use x="881.691406" xlink:href="#DejaVuSans-121"/>
      <use x="940.871094" xlink:href="#DejaVuSans-32"/>
      <use x="972.658203" xlink:href="#DejaVuSans-91"/>
      <use x="1011.671875" xlink:href="#DejaVuSans-104"/>
      <use x="1075.050781" xlink:href="#DejaVuSans-97"/>
      <use x="1136.330078" xlink:href="#DejaVuSans-98"/>
      <use x="1199.806641" xlink:href="#DejaVuSans-47"/>
      <use x="1233.498047" xlink:href="#DejaVuSans-104"/>
      <use x="1296.876953" xlink:href="#DejaVuSans-97"/>
      <use x="1358.15625" xlink:href="#DejaVuSans-93"/>
     </g>
    </g>
   </g>
   <g id="matplotlib.axis_2">
    <g id="ytick_1">
     <g id="line2d_6">
      <defs>
       <path d="M 0 0 
L -3.5 0 
" id="me694f8dc75" style="stroke:#000000;stroke-width:0.8;"/>
      </defs>
      <g>
       <use style="stroke:#000000;stroke-width:0.8;" x="54" xlink:href="#me694f8dc75" y="252"/>
      </g>
     </g>
     <g id="text_7">
      <!-- 0 -->
      <g transform="translate(40.6375 255.799219)scale(0.1 -0.1)">
       <use xlink:href="#DejaVuSans-48"/>
      </g>
     </g>
    </g>
    <g id="ytick_2">
     <g id="line2d_7">
      <g>
       <use style="stroke:#000000;stroke-width:0.8;" x="54" xlink:href="#me694f8dc75" y="214.794518"/>
      </g>
     </g>
     <g id="text_8">
      <!-- 1.000 -->
      <g transform="translate(18.371875 218.593736)scale(0.1 -0.1)">
       <use xlink:href="#DejaVuSans-49"/>
       <use x="63.623047" xlink:href="#DejaVuSans-46"/>
       <use x="95.410156" xlink:href="#DejaVuSans-48"/>
       <use x="159.033203" xlink:href="#DejaVuSans-48"/>
       <use x="222.65625" xlink:href="#DejaVuSans-48"/>
      </g>
     </g>
    </g>
    <g id="ytick_3">
     <g id="line2d_8">
      <g>
       <use style="stroke:#000000;stroke-width:0.8;" x="54" xlink:href="#me694f8dc75" y="177.589035"/>
      </g>
     </g>
     <g id="text_9">
      <!-- 2.000 -->
      <g transform="translate(18.371875 181.388254)scale(0.1 -0.1)">
       <use xlink:href="#DejaVuSans-50"/>
       <use x="63.623047" xlink:href="#DejaVuSans-46"/>
       <use x="95.410156" xlink:href="#DejaVuSans-48"/>
       <use x="159.033203" xlink:href="#DejaVuSans-48"/>
       <use x="222.65625" xlink:href="#DejaVuSans-48"/>
      </g>
     </g>
    </g>
    <g id="ytick_4">
     <g id="line2d_9">
      <g>
       <use style="stroke:#000000;stroke-width:0.8;" x="54" xlink:href="#me694f8dc75" y="140.383553"/>
      </g>
     </g>
     <g id="text_10">
      <!-- 3.000 -->
      <defs>
       <path d="M 40.578125 39.3125 
Q 47.65625 37.796875 51.625 33 
Q 55.609375 28.21875 55.609375 21.1875 
Q 55.609375 10.40625 48.1875 4.484375 
Q 40.765625 -1.421875 27.09375 -1.421875 
Q 22.515625 -1.421875 17.65625 -0.515625 
Q 12.796875 0.390625 7.625 2.203125 
L 7.625 11.71875 
Q 11.71875 9.328125 16.59375 8.109375 
Q 21.484375 6.890625 26.8125 6.890625 
Q 36.078125 6.890625 40.9375 10.546875 
Q 45.796875 14.203125 45.796875 21.1875 
Q 45.796875 27.640625 41.28125 31.265625 
Q 36.765625 34.90625 28.71875 34.90625 
L 20.21875 34.90625 
L 20.21875 43.015625 
L 29.109375 43.015625 
Q 36.375 43.015625 40.234375 45.921875 
Q 44.09375 48.828125 44.09375 54.296875 
Q 44.09375 59.90625 40.109375 62.90625 
Q 36.140625 65.921875 28.71875 65.921875 
Q 24.65625 65.921875 20.015625 65.03125 
Q 15.375 64.15625 9.8125 62.3125 
L 9.8125 71.09375 
Q 15.4375 72.65625 20.34375 73.4375 
Q 25.25 74.21875 29.59375 74.21875 
Q 40.828125 74.21875 47.359375 69.109375 
Q 53.90625 64.015625 53.90625 55.328125 
Q 53.90625 49.265625 50.4375 45.09375 
Q 46.96875 40.921875 40.578125 39.3125 
z
" id="DejaVuSans-51"/>
      </defs>
      <g transform="translate(18.371875 144.182772)scale(0.1 -0.1)">
       <use xlink:href="#DejaVuSans-51"/>
       <use x="63.623047" xlink:href="#DejaVuSans-46"/>
       <use x="95.410156" xlink:href="#DejaVuSans-48"/>
       <use x="159.033203" xlink:href="#DejaVuSans-48"/>
       <use x="222.65625" xlink:href="#DejaVuSans-48"/>
      </g>
     </g>
    </g>
    <g id="ytick_5">
     <g id="line2d_10">
      <g>
       <use style="stroke:#000000;stroke-width:0.8;" x="54" xlink:href="#me694f8dc75" y="103.178071"/>
      </g>
     </g>
     <g id="text_11">
      <!-- 4.000 -->
      <defs>
       <path d="M 37.796875 64.3125 
L 12.890625 25.390625 
L 37.796875 25.390625 
z
M 35.203125 72.90625 
L 47.609375 72.90625 
L 47.609375 25.390625 
L 58.015625 25.390625 
L 58.015625 17.1875 
L 47.609375 17.1875 
L 47.609375 0 
L 37.796875 0 
L 37.796875 17.1875 
L 4.890625 17.1875 
L 4.890625 26.703125 
z
" id="DejaVuSans-52"/>
      </defs>
      <g transform="translate(18.371875 106.97729)scale(0.1 -0.1)">
       <use xlink:href="#DejaVuSans-52"/>
       <use x="63.623047" xlink:href="#DejaVuSans-46"/>
       <use x="95.410156" xlink:href="#DejaVuSans-48"/>
       <use x="159.033203" xlink:href="#DejaVuSans-48"/>
       <use x="222.65625" xlink:href="#DejaVuSans-48"/>
      </g>
     </g>
    </g>
    <g id="ytick_6">
     <g id="line2d_11">
      <g>
       <use style="stroke:#000000;stroke-width:0.8;" x="54" xlink:href="#me694f8dc75" y="65.972589"/>
      </g>
     </g>
     <g id="text_12">
      <!-- 5.000 -->
      <g transform="translate(18.371875 69.771807)scale(0.1 -0.1)">
       <use xlink:href="#DejaVuSans-53"/>
       <use x="63.623047" xlink:href="#DejaVuSans-46"/>
       <use x="95.410156" xlink:href="#DejaVuSans-48"/>
       <use x="159.033203" xlink:href="#DejaVuSans-48"/>
       <use x="222.65625" xlink:href="#DejaVuSans-48"/>
      </g>
     </g>
    </g>
    <g id="text_13">
     <!-- Frequency -->
     <defs>
      <path d="M 9.8125 72.90625 
L 51.703125 72.90625 
L 51.703125 64.59375 
L 19.671875 64.59375 
L 19.671875 43.109375 
L 48.578125 43.109375 
L 48.578125 34.8125 
L 19.671875 34.8125 
L 19.671875 0 
L 9.8125 0 
z
" id="DejaVuSans-70"/>
      <path d="M 41.109375 46.296875 
Q 39.59375 47.171875 37.8125 47.578125 
Q 36.03125 48 33.890625 48 
Q 26.265625 48 22.1875 43.046875 
Q 18.109375 38.09375 18.109375 28.8125 
L 18.109375 0 
L 9.078125 0 
L 9.078125 54.6875 
L 18.109375 54.6875 
L 18.109375 46.1875 
Q 20.953125 51.171875 25.484375 53.578125 
Q 30.03125 56 36.53125 56 
Q 37.453125 56 38.578125 55.875 
Q 39.703125 55.765625 41.0625 55.515625 
z
" id="DejaVuSans-114"/>
      <path d="M 14.796875 27.296875 
Q 14.796875 17.390625 18.875 11.75 
Q 22.953125 6.109375 30.078125 6.109375 
Q 37.203125 6.109375 41.296875 11.75 
Q 45.40625 17.390625 45.40625 27.296875 
Q 45.40625 37.203125 41.296875 42.84375 
Q 37.203125 48.484375 30.078125 48.484375 
Q 22.953125 48.484375 18.875 42.84375 
Q 14.796875 37.203125 14.796875 27.296875 
z
M 45.40625 8.203125 
Q 42.578125 3.328125 38.25 0.953125 
Q 33.9375 -1.421875 27.875 -1.421875 
Q 17.96875 -1.421875 11.734375 6.484375 
Q 5.515625 14.40625 5.515625 27.296875 
Q 5.515625 40.1875 11.734375 48.09375 
Q 17.96875 56 27.875 56 
Q 33.9375 56 38.25 53.625 
Q 42.578125 51.265625 45.40625 46.390625 
L 45.40625 54.6875 
L 54.390625 54.6875 
L 54.390625 -20.796875 
L 45.40625 -20.796875 
z
" id="DejaVuSans-113"/>
      <path d="M 48.78125 52.59375 
L 48.78125 44.1875 
Q 44.96875 46.296875 41.140625 47.34375 
Q 37.3125 48.390625 33.40625 48.390625 
Q 24.65625 48.390625 19.8125 42.84375 
Q 14.984375 37.3125 14.984375 27.296875 
Q 14.984375 17.28125 19.8125 11.734375 
Q 24.65625 6.203125 33.40625 6.203125 
Q 37.3125 6.203125 41.140625 7.25 
Q 44.96875 8.296875 48.78125 10.40625 
L 48.78125 2.09375 
Q 45.015625 0.34375 40.984375 -0.53125 
Q 36.96875 -1.421875 32.421875 -1.421875 
Q 20.0625 -1.421875 12.78125 6.34375 
Q 5.515625 14.109375 5.515625 27.296875 
Q 5.515625 40.671875 12.859375 48.328125 
Q 20.21875 56 33.015625 56 
Q 37.15625 56 41.109375 55.140625 
Q 45.0625 54.296875 48.78125 52.59375 
z
" id="DejaVuSans-99"/>
     </defs>
     <g transform="translate(12.292187 169.577656)rotate(-90)scale(0.1 -0.1)">
      <use xlink:href="#DejaVuSans-70"/>
      <use x="57.410156" xlink:href="#DejaVuSans-114"/>
      <use x="98.492188" xlink:href="#DejaVuSans-101"/>
      <use x="160.015625" xlink:href="#DejaVuSans-113"/>
      <use x="223.492188" xlink:href="#DejaVuSans-117"/>
      <use x="286.871094" xlink:href="#DejaVuSans-101"/>
      <use x="348.394531" xlink:href="#DejaVuSans-110"/>
      <use x="411.773438" xlink:href="#DejaVuSans-99"/>
      <use x="466.753906" xlink:href="#DejaVuSans-121"/>
     </g>
    </g>
   </g>
   <g id="patch_153">
    <path d="M 54 252 
L 54 34.56 
" style="fill:none;stroke:#000000;stroke-linecap:square;stroke-linejoin:miter;stroke-width:0.8;"/>
   </g>
   <g id="patch_154">
    <path d="M 388.8 252 
L 388.8 34.56 
" style="fill:none;stroke:#000000;stroke-linecap:square;stroke-linejoin:miter;stroke-width:0.8;"/>
   </g>
   <g id="patch_155">
    <path d="M 54 252 
L 388.8 252 
" style="fill:none;stroke:#000000;stroke-linecap:square;stroke-linejoin:miter;stroke-width:0.8;"/>
   </g>
   <g id="patch_156">
    <path d="M 54 34.56 
L 388.8 34.56 
" style="fill:none;stroke:#000000;stroke-linecap:square;stroke-linejoin:miter;stroke-width:0.8;"/>
   </g>
   <g id="legend_1">
    <g id="patch_157">
     <path d="M 309.814062 86.594375 
L 381.8 86.594375 
Q 383.8 86.594375 383.8 84.594375 
L 383.8 41.56 
Q 383.8 39.56 381.8 39.56 
L 309.814062 39.56 
Q 307.814062 39.56 307.814062 41.56 
L 307.814062 84.594375 
Q 307.814062 86.594375 309.814062 86.594375 
z
" style="fill:#ffffff;opacity:0.8;stroke:#cccccc;stroke-linejoin:miter;"/>
    </g>
    <g id="patch_158">
     <path d="M 311.814062 51.158438 
L 331.814062 51.158438 
L 331.814062 44.158438 
L 311.814062 44.158438 
z
" style="fill:#edf8b1;stroke:#000000;stroke-linejoin:miter;"/>
    </g>
    <g id="text_14">
     <!-- High -->
     <defs>
      <path d="M 9.8125 72.90625 
L 19.671875 72.90625 
L 19.671875 43.015625 
L 55.515625 43.015625 
L 55.515625 72.90625 
L 65.375 72.90625 
L 65.375 0 
L 55.515625 0 
L 55.515625 34.71875 
L 19.671875 34.71875 
L 19.671875 0 
L 9.8125 0 
z
" id="DejaVuSans-72"/>
      <path d="M 45.40625 27.984375 
Q 45.40625 37.75 41.375 43.109375 
Q 37.359375 48.484375 30.078125 48.484375 
Q 22.859375 48.484375 18.828125 43.109375 
Q 14.796875 37.75 14.796875 27.984375 
Q 14.796875 18.265625 18.828125 12.890625 
Q 22.859375 7.515625 30.078125 7.515625 
Q 37.359375 7.515625 41.375 12.890625 
Q 45.40625 18.265625 45.40625 27.984375 
z
M 54.390625 6.78125 
Q 54.390625 -7.171875 48.1875 -13.984375 
Q 42 -20.796875 29.203125 -20.796875 
Q 24.46875 -20.796875 20.265625 -20.09375 
Q 16.0625 -19.390625 12.109375 -17.921875 
L 12.109375 -9.1875 
Q 16.0625 -11.328125 19.921875 -12.34375 
Q 23.78125 -13.375 27.78125 -13.375 
Q 36.625 -13.375 41.015625 -8.765625 
Q 45.40625 -4.15625 45.40625 5.171875 
L 45.40625 9.625 
Q 42.625 4.78125 38.28125 2.390625 
Q 33.9375 0 27.875 0 
Q 17.828125 0 11.671875 7.65625 
Q 5.515625 15.328125 5.515625 27.984375 
Q 5.515625 40.671875 11.671875 48.328125 
Q 17.828125 56 27.875 56 
Q 33.9375 56 38.28125 53.609375 
Q 42.625 51.21875 45.40625 46.390625 
L 45.40625 54.6875 
L 54.390625 54.6875 
z
" id="DejaVuSans-103"/>
     </defs>
     <g transform="translate(339.814062 51.158438)scale(0.1 -0.1)">
      <use xlink:href="#DejaVuSans-72"/>
      <use x="75.195312" xlink:href="#DejaVuSans-105"/>
      <use x="102.978516" xlink:href="#DejaVuSans-103"/>
      <use x="166.455078" xlink:href="#DejaVuSans-104"/>
     </g>
    </g>
    <g id="patch_159">
     <path d="M 311.814062 65.836563 
L 331.814062 65.836563 
L 331.814062 58.836563 
L 311.814062 58.836563 
z
" style="fill:#7fcdbb;stroke:#000000;stroke-linejoin:miter;"/>
    </g>
    <g id="text_15">
     <!-- Medium -->
     <defs>
      <path d="M 9.8125 72.90625 
L 24.515625 72.90625 
L 43.109375 23.296875 
L 61.8125 72.90625 
L 76.515625 72.90625 
L 76.515625 0 
L 66.890625 0 
L 66.890625 64.015625 
L 48.09375 14.015625 
L 38.1875 14.015625 
L 19.390625 64.015625 
L 19.390625 0 
L 9.8125 0 
z
" id="DejaVuSans-77"/>
      <path d="M 45.40625 46.390625 
L 45.40625 75.984375 
L 54.390625 75.984375 
L 54.390625 0 
L 45.40625 0 
L 45.40625 8.203125 
Q 42.578125 3.328125 38.25 0.953125 
Q 33.9375 -1.421875 27.875 -1.421875 
Q 17.96875 -1.421875 11.734375 6.484375 
Q 5.515625 14.40625 5.515625 27.296875 
Q 5.515625 40.1875 11.734375 48.09375 
Q 17.96875 56 27.875 56 
Q 33.9375 56 38.25 53.625 
Q 42.578125 51.265625 45.40625 46.390625 
z
M 14.796875 27.296875 
Q 14.796875 17.390625 18.875 11.75 
Q 22.953125 6.109375 30.078125 6.109375 
Q 37.203125 6.109375 41.296875 11.75 
Q 45.40625 17.390625 45.40625 27.296875 
Q 45.40625 37.203125 41.296875 42.84375 
Q 37.203125 48.484375 30.078125 48.484375 
Q 22.953125 48.484375 18.875 42.84375 
Q 14.796875 37.203125 14.796875 27.296875 
z
" id="DejaVuSans-100"/>
      <path d="M 52 44.1875 
Q 55.375 50.25 60.0625 53.125 
Q 64.75 56 71.09375 56 
Q 79.640625 56 84.28125 50.015625 
Q 88.921875 44.046875 88.921875 33.015625 
L 88.921875 0 
L 79.890625 0 
L 79.890625 32.71875 
Q 79.890625 40.578125 77.09375 44.375 
Q 74.3125 48.1875 68.609375 48.1875 
Q 61.625 48.1875 57.5625 43.546875 
Q 53.515625 38.921875 53.515625 30.90625 
L 53.515625 0 
L 44.484375 0 
L 44.484375 32.71875 
Q 44.484375 40.625 41.703125 44.40625 
Q 38.921875 48.1875 33.109375 48.1875 
Q 26.21875 48.1875 22.15625 43.53125 
Q 18.109375 38.875 18.109375 30.90625 
L 18.109375 0 
L 9.078125 0 
L 9.078125 54.6875 
L 18.109375 54.6875 
L 18.109375 46.1875 
Q 21.1875 51.21875 25.484375 53.609375 
Q 29.78125 56 35.6875 56 
Q 41.65625 56 45.828125 52.96875 
Q 50 49.953125 52 44.1875 
z
" id="DejaVuSans-109"/>
     </defs>
     <g transform="translate(339.814062 65.836563)scale(0.1 -0.1)">
      <use xlink:href="#DejaVuSans-77"/>
      <use x="86.279297" xlink:href="#DejaVuSans-101"/>
      <use x="147.802734" xlink:href="#DejaVuSans-100"/>
      <use x="211.279297" xlink:href="#DejaVuSans-105"/>
      <use x="239.0625" xlink:href="#DejaVuSans-117"/>
      <use x="302.441406" xlink:href="#DejaVuSans-109"/>
     </g>
    </g>
    <g id="patch_160">
     <path d="M 311.814062 80.514688 
L 331.814062 80.514688 
L 331.814062 73.514688 
L 311.814062 73.514688 
z
" style="fill:#2c7fb8;stroke:#000000;stroke-linejoin:miter;"/>
    </g>
    <g id="text_16">
     <!-- Low -->
     <defs>
      <path d="M 9.8125 72.90625 
L 19.671875 72.90625 
L 19.671875 8.296875 
L 55.171875 8.296875 
L 55.171875 0 
L 9.8125 0 
z
" id="DejaVuSans-76"/>
      <path d="M 4.203125 54.6875 
L 13.1875 54.6875 
L 24.421875 12.015625 
L 35.59375 54.6875 
L 46.1875 54.6875 
L 57.421875 12.015625 
L 68.609375 54.6875 
L 77.59375 54.6875 
L 63.28125 0 
L 52.6875 0 
L 40.921875 44.828125 
L 29.109375 0 
L 18.5 0 
z
" id="DejaVuSans-119"/>
     </defs>
     <g transform="translate(339.814062 80.514688)scale(0.1 -0.1)">
      <use xlink:href="#DejaVuSans-76"/>
      <use x="55.697266" xlink:href="#DejaVuSans-111"/>
      <use x="116.878906" xlink:href="#DejaVuSans-119"/>
     </g>
    </g>
   </g>
  </g>
 </g>
 <defs>
  <clipPath id="pd981e96042">
   <rect height="217.44" width="334.8" x="54" y="34.56"/>
  </clipPath>
 </defs>
</svg>
