<?xml version="1.0" encoding="utf-8" standalone="no"?>
<!DOCTYPE svg PUBLIC "-//W3C//DTD SVG 1.1//EN"
  "http://www.w3.org/Graphics/SVG/1.1/DTD/svg11.dtd">
<!-- Created with matplotlib (https://matplotlib.org/) -->
<svg height="272.125984pt" version="1.1" viewBox="0 0 362.834646 272.125984" width="362.834646pt" xmlns="http://www.w3.org/2000/svg" xmlns:xlink="http://www.w3.org/1999/xlink">
 <defs>
  <style type="text/css">
*{stroke-linecap:butt;stroke-linejoin:round;}
  </style>
 </defs>
 <g id="figure_1">
  <g id="patch_1">
   <path d="M 0 272.125984 
L 362.834646 272.125984 
L 362.834646 0 
L 0 0 
z
" style="fill:#ffffff;"/>
  </g>
  <g id="axes_1">
   <g id="patch_2">
    <path d="M 45.354331 238.110236 
L 326.551181 238.110236 
L 326.551181 32.655118 
L 45.354331 32.655118 
z
" style="fill:#ffffff;"/>
   </g>
   <g id="patch_3">
    <path clip-path="url(#pbf2ea6edbb)" d="M 58.136006 238.110236 
L 63.248676 238.110236 
L 63.248676 237.828998 
L 58.136006 237.828998 
z
" style="fill:#edf8b1;stroke:#000000;stroke-linejoin:miter;"/>
   </g>
   <g id="patch_4">
    <path clip-path="url(#pbf2ea6edbb)" d="M 63.248676 238.110236 
L 68.361346 238.110236 
L 68.361346 232.661244 
L 63.248676 232.661244 
z
" style="fill:#edf8b1;stroke:#000000;stroke-linejoin:miter;"/>
   </g>
   <g id="patch_5">
    <path clip-path="url(#pbf2ea6edbb)" d="M 68.361346 238.110236 
L 73.474016 238.110236 
L 73.474016 223.907703 
L 68.361346 223.907703 
z
" style="fill:#edf8b1;stroke:#000000;stroke-linejoin:miter;"/>
   </g>
   <g id="patch_6">
    <path clip-path="url(#pbf2ea6edbb)" d="M 73.474016 238.110236 
L 78.586686 238.110236 
L 78.586686 204.221022 
L 73.474016 204.221022 
z
" style="fill:#edf8b1;stroke:#000000;stroke-linejoin:miter;"/>
   </g>
   <g id="patch_7">
    <path clip-path="url(#pbf2ea6edbb)" d="M 78.586686 238.110236 
L 83.699356 238.110236 
L 83.699356 194.834694 
L 78.586686 194.834694 
z
" style="fill:#edf8b1;stroke:#000000;stroke-linejoin:miter;"/>
   </g>
   <g id="patch_8">
    <path clip-path="url(#pbf2ea6edbb)" d="M 83.699356 238.110236 
L 88.812026 238.110236 
L 88.812026 195.46748 
L 83.699356 195.46748 
z
" style="fill:#edf8b1;stroke:#000000;stroke-linejoin:miter;"/>
   </g>
   <g id="patch_9">
    <path clip-path="url(#pbf2ea6edbb)" d="M 88.812026 238.110236 
L 93.924696 238.110236 
L 93.924696 205.099892 
L 88.812026 205.099892 
z
" style="fill:#edf8b1;stroke:#000000;stroke-linejoin:miter;"/>
   </g>
   <g id="patch_10">
    <path clip-path="url(#pbf2ea6edbb)" d="M 93.924696 238.110236 
L 99.037366 238.110236 
L 99.037366 205.838142 
L 93.924696 205.838142 
z
" style="fill:#edf8b1;stroke:#000000;stroke-linejoin:miter;"/>
   </g>
   <g id="patch_11">
    <path clip-path="url(#pbf2ea6edbb)" d="M 99.037366 238.110236 
L 104.150036 238.110236 
L 104.150036 218.950878 
L 99.037366 218.950878 
z
" style="fill:#edf8b1;stroke:#000000;stroke-linejoin:miter;"/>
   </g>
   <g id="patch_12">
    <path clip-path="url(#pbf2ea6edbb)" d="M 104.150036 238.110236 
L 109.262706 238.110236 
L 109.262706 212.658171 
L 104.150036 212.658171 
z
" style="fill:#edf8b1;stroke:#000000;stroke-linejoin:miter;"/>
   </g>
   <g id="patch_13">
    <path clip-path="url(#pbf2ea6edbb)" d="M 109.262706 238.110236 
L 114.375376 238.110236 
L 114.375376 216.630662 
L 109.262706 216.630662 
z
" style="fill:#edf8b1;stroke:#000000;stroke-linejoin:miter;"/>
   </g>
   <g id="patch_14">
    <path clip-path="url(#pbf2ea6edbb)" d="M 114.375376 238.110236 
L 119.488046 238.110236 
L 119.488046 232.239387 
L 114.375376 232.239387 
z
" style="fill:#edf8b1;stroke:#000000;stroke-linejoin:miter;"/>
   </g>
   <g id="patch_15">
    <path clip-path="url(#pbf2ea6edbb)" d="M 119.488046 238.110236 
L 124.600716 238.110236 
L 124.600716 234.770532 
L 119.488046 234.770532 
z
" style="fill:#edf8b1;stroke:#000000;stroke-linejoin:miter;"/>
   </g>
   <g id="patch_16">
    <path clip-path="url(#pbf2ea6edbb)" d="M 124.600716 238.110236 
L 129.713386 238.110236 
L 129.713386 236.7392 
L 124.600716 236.7392 
z
" style="fill:#edf8b1;stroke:#000000;stroke-linejoin:miter;"/>
   </g>
   <g id="patch_17">
    <path clip-path="url(#pbf2ea6edbb)" d="M 129.713386 238.110236 
L 134.826056 238.110236 
L 134.826056 237.442295 
L 129.713386 237.442295 
z
" style="fill:#edf8b1;stroke:#000000;stroke-linejoin:miter;"/>
   </g>
   <g id="patch_18">
    <path clip-path="url(#pbf2ea6edbb)" d="M 134.826056 238.110236 
L 139.938726 238.110236 
L 139.938726 237.582914 
L 134.826056 237.582914 
z
" style="fill:#edf8b1;stroke:#000000;stroke-linejoin:miter;"/>
   </g>
   <g id="patch_19">
    <path clip-path="url(#pbf2ea6edbb)" d="M 139.938726 238.110236 
L 145.051396 238.110236 
L 145.051396 237.758688 
L 139.938726 237.758688 
z
" style="fill:#edf8b1;stroke:#000000;stroke-linejoin:miter;"/>
   </g>
   <g id="patch_20">
    <path clip-path="url(#pbf2ea6edbb)" d="M 145.051396 238.110236 
L 150.164066 238.110236 
L 150.164066 237.934462 
L 145.051396 237.934462 
z
" style="fill:#edf8b1;stroke:#000000;stroke-linejoin:miter;"/>
   </g>
   <g id="patch_21">
    <path clip-path="url(#pbf2ea6edbb)" d="M 150.164066 238.110236 
L 155.276736 238.110236 
L 155.276736 237.934462 
L 150.164066 237.934462 
z
" style="fill:#edf8b1;stroke:#000000;stroke-linejoin:miter;"/>
   </g>
   <g id="patch_22">
    <path clip-path="url(#pbf2ea6edbb)" d="M 155.276736 238.110236 
L 160.389406 238.110236 
L 160.389406 237.899308 
L 155.276736 237.899308 
z
" style="fill:#edf8b1;stroke:#000000;stroke-linejoin:miter;"/>
   </g>
   <g id="patch_23">
    <path clip-path="url(#pbf2ea6edbb)" d="M 160.389406 238.110236 
L 165.502076 238.110236 
L 165.502076 237.934462 
L 160.389406 237.934462 
z
" style="fill:#edf8b1;stroke:#000000;stroke-linejoin:miter;"/>
   </g>
   <g id="patch_24">
    <path clip-path="url(#pbf2ea6edbb)" d="M 165.502076 238.110236 
L 170.614746 238.110236 
L 170.614746 238.110236 
L 165.502076 238.110236 
z
" style="fill:#edf8b1;stroke:#000000;stroke-linejoin:miter;"/>
   </g>
   <g id="patch_25">
    <path clip-path="url(#pbf2ea6edbb)" d="M 170.614746 238.110236 
L 175.727416 238.110236 
L 175.727416 238.110236 
L 170.614746 238.110236 
z
" style="fill:#edf8b1;stroke:#000000;stroke-linejoin:miter;"/>
   </g>
   <g id="patch_26">
    <path clip-path="url(#pbf2ea6edbb)" d="M 175.727416 238.110236 
L 180.840086 238.110236 
L 180.840086 238.110236 
L 175.727416 238.110236 
z
" style="fill:#edf8b1;stroke:#000000;stroke-linejoin:miter;"/>
   </g>
   <g id="patch_27">
    <path clip-path="url(#pbf2ea6edbb)" d="M 180.840086 238.110236 
L 185.952756 238.110236 
L 185.952756 238.110236 
L 180.840086 238.110236 
z
" style="fill:#edf8b1;stroke:#000000;stroke-linejoin:miter;"/>
   </g>
   <g id="patch_28">
    <path clip-path="url(#pbf2ea6edbb)" d="M 185.952756 238.110236 
L 191.065426 238.110236 
L 191.065426 238.110236 
L 185.952756 238.110236 
z
" style="fill:#edf8b1;stroke:#000000;stroke-linejoin:miter;"/>
   </g>
   <g id="patch_29">
    <path clip-path="url(#pbf2ea6edbb)" d="M 191.065426 238.110236 
L 196.178096 238.110236 
L 196.178096 238.110236 
L 191.065426 238.110236 
z
" style="fill:#edf8b1;stroke:#000000;stroke-linejoin:miter;"/>
   </g>
   <g id="patch_30">
    <path clip-path="url(#pbf2ea6edbb)" d="M 196.178096 238.110236 
L 201.290766 238.110236 
L 201.290766 238.110236 
L 196.178096 238.110236 
z
" style="fill:#edf8b1;stroke:#000000;stroke-linejoin:miter;"/>
   </g>
   <g id="patch_31">
    <path clip-path="url(#pbf2ea6edbb)" d="M 201.290766 238.110236 
L 206.403436 238.110236 
L 206.403436 238.110236 
L 201.290766 238.110236 
z
" style="fill:#edf8b1;stroke:#000000;stroke-linejoin:miter;"/>
   </g>
   <g id="patch_32">
    <path clip-path="url(#pbf2ea6edbb)" d="M 206.403436 238.110236 
L 211.516106 238.110236 
L 211.516106 238.110236 
L 206.403436 238.110236 
z
" style="fill:#edf8b1;stroke:#000000;stroke-linejoin:miter;"/>
   </g>
   <g id="patch_33">
    <path clip-path="url(#pbf2ea6edbb)" d="M 211.516106 238.110236 
L 216.628776 238.110236 
L 216.628776 238.110236 
L 211.516106 238.110236 
z
" style="fill:#edf8b1;stroke:#000000;stroke-linejoin:miter;"/>
   </g>
   <g id="patch_34">
    <path clip-path="url(#pbf2ea6edbb)" d="M 216.628776 238.110236 
L 221.741446 238.110236 
L 221.741446 238.110236 
L 216.628776 238.110236 
z
" style="fill:#edf8b1;stroke:#000000;stroke-linejoin:miter;"/>
   </g>
   <g id="patch_35">
    <path clip-path="url(#pbf2ea6edbb)" d="M 221.741446 238.110236 
L 226.854116 238.110236 
L 226.854116 238.110236 
L 221.741446 238.110236 
z
" style="fill:#edf8b1;stroke:#000000;stroke-linejoin:miter;"/>
   </g>
   <g id="patch_36">
    <path clip-path="url(#pbf2ea6edbb)" d="M 226.854116 238.110236 
L 231.966786 238.110236 
L 231.966786 238.110236 
L 226.854116 238.110236 
z
" style="fill:#edf8b1;stroke:#000000;stroke-linejoin:miter;"/>
   </g>
   <g id="patch_37">
    <path clip-path="url(#pbf2ea6edbb)" d="M 231.966786 238.110236 
L 237.079456 238.110236 
L 237.079456 238.110236 
L 231.966786 238.110236 
z
" style="fill:#edf8b1;stroke:#000000;stroke-linejoin:miter;"/>
   </g>
   <g id="patch_38">
    <path clip-path="url(#pbf2ea6edbb)" d="M 237.079456 238.110236 
L 242.192126 238.110236 
L 242.192126 238.110236 
L 237.079456 238.110236 
z
" style="fill:#edf8b1;stroke:#000000;stroke-linejoin:miter;"/>
   </g>
   <g id="patch_39">
    <path clip-path="url(#pbf2ea6edbb)" d="M 242.192126 238.110236 
L 247.304796 238.110236 
L 247.304796 238.110236 
L 242.192126 238.110236 
z
" style="fill:#edf8b1;stroke:#000000;stroke-linejoin:miter;"/>
   </g>
   <g id="patch_40">
    <path clip-path="url(#pbf2ea6edbb)" d="M 247.304796 238.110236 
L 252.417466 238.110236 
L 252.417466 238.110236 
L 247.304796 238.110236 
z
" style="fill:#edf8b1;stroke:#000000;stroke-linejoin:miter;"/>
   </g>
   <g id="patch_41">
    <path clip-path="url(#pbf2ea6edbb)" d="M 252.417466 238.110236 
L 257.530136 238.110236 
L 257.530136 238.110236 
L 252.417466 238.110236 
z
" style="fill:#edf8b1;stroke:#000000;stroke-linejoin:miter;"/>
   </g>
   <g id="patch_42">
    <path clip-path="url(#pbf2ea6edbb)" d="M 257.530136 238.110236 
L 262.642806 238.110236 
L 262.642806 238.110236 
L 257.530136 238.110236 
z
" style="fill:#edf8b1;stroke:#000000;stroke-linejoin:miter;"/>
   </g>
   <g id="patch_43">
    <path clip-path="url(#pbf2ea6edbb)" d="M 262.642806 238.110236 
L 267.755476 238.110236 
L 267.755476 238.110236 
L 262.642806 238.110236 
z
" style="fill:#edf8b1;stroke:#000000;stroke-linejoin:miter;"/>
   </g>
   <g id="patch_44">
    <path clip-path="url(#pbf2ea6edbb)" d="M 267.755476 238.110236 
L 272.868146 238.110236 
L 272.868146 238.110236 
L 267.755476 238.110236 
z
" style="fill:#edf8b1;stroke:#000000;stroke-linejoin:miter;"/>
   </g>
   <g id="patch_45">
    <path clip-path="url(#pbf2ea6edbb)" d="M 272.868146 238.110236 
L 277.980816 238.110236 
L 277.980816 238.110236 
L 272.868146 238.110236 
z
" style="fill:#edf8b1;stroke:#000000;stroke-linejoin:miter;"/>
   </g>
   <g id="patch_46">
    <path clip-path="url(#pbf2ea6edbb)" d="M 277.980816 238.110236 
L 283.093486 238.110236 
L 283.093486 238.110236 
L 277.980816 238.110236 
z
" style="fill:#edf8b1;stroke:#000000;stroke-linejoin:miter;"/>
   </g>
   <g id="patch_47">
    <path clip-path="url(#pbf2ea6edbb)" d="M 283.093486 238.110236 
L 288.206156 238.110236 
L 288.206156 238.110236 
L 283.093486 238.110236 
z
" style="fill:#edf8b1;stroke:#000000;stroke-linejoin:miter;"/>
   </g>
   <g id="patch_48">
    <path clip-path="url(#pbf2ea6edbb)" d="M 288.206156 238.110236 
L 293.318826 238.110236 
L 293.318826 238.110236 
L 288.206156 238.110236 
z
" style="fill:#edf8b1;stroke:#000000;stroke-linejoin:miter;"/>
   </g>
   <g id="patch_49">
    <path clip-path="url(#pbf2ea6edbb)" d="M 293.318826 238.110236 
L 298.431496 238.110236 
L 298.431496 238.110236 
L 293.318826 238.110236 
z
" style="fill:#edf8b1;stroke:#000000;stroke-linejoin:miter;"/>
   </g>
   <g id="patch_50">
    <path clip-path="url(#pbf2ea6edbb)" d="M 298.431496 238.110236 
L 303.544166 238.110236 
L 303.544166 238.110236 
L 298.431496 238.110236 
z
" style="fill:#edf8b1;stroke:#000000;stroke-linejoin:miter;"/>
   </g>
   <g id="patch_51">
    <path clip-path="url(#pbf2ea6edbb)" d="M 303.544166 238.110236 
L 308.656836 238.110236 
L 308.656836 238.110236 
L 303.544166 238.110236 
z
" style="fill:#edf8b1;stroke:#000000;stroke-linejoin:miter;"/>
   </g>
   <g id="patch_52">
    <path clip-path="url(#pbf2ea6edbb)" d="M 308.656836 238.110236 
L 313.769506 238.110236 
L 313.769506 238.110236 
L 308.656836 238.110236 
z
" style="fill:#edf8b1;stroke:#000000;stroke-linejoin:miter;"/>
   </g>
   <g id="patch_53">
    <path clip-path="url(#pbf2ea6edbb)" d="M 58.136006 237.828998 
L 63.248676 237.828998 
L 63.248676 237.793843 
L 58.136006 237.793843 
z
" style="fill:#7fcdbb;stroke:#000000;stroke-linejoin:miter;"/>
   </g>
   <g id="patch_54">
    <path clip-path="url(#pbf2ea6edbb)" d="M 63.248676 232.661244 
L 68.361346 232.661244 
L 68.361346 232.450316 
L 63.248676 232.450316 
z
" style="fill:#7fcdbb;stroke:#000000;stroke-linejoin:miter;"/>
   </g>
   <g id="patch_55">
    <path clip-path="url(#pbf2ea6edbb)" d="M 68.361346 223.907703 
L 73.474016 223.907703 
L 73.474016 222.677285 
L 68.361346 222.677285 
z
" style="fill:#7fcdbb;stroke:#000000;stroke-linejoin:miter;"/>
   </g>
   <g id="patch_56">
    <path clip-path="url(#pbf2ea6edbb)" d="M 73.474016 204.221022 
L 78.586686 204.221022 
L 78.586686 196.733053 
L 73.474016 196.733053 
z
" style="fill:#7fcdbb;stroke:#000000;stroke-linejoin:miter;"/>
   </g>
   <g id="patch_57">
    <path clip-path="url(#pbf2ea6edbb)" d="M 78.586686 194.834694 
L 83.699356 194.834694 
L 83.699356 179.929065 
L 78.586686 179.929065 
z
" style="fill:#7fcdbb;stroke:#000000;stroke-linejoin:miter;"/>
   </g>
   <g id="patch_58">
    <path clip-path="url(#pbf2ea6edbb)" d="M 83.699356 195.46748 
L 88.812026 195.46748 
L 88.812026 166.499936 
L 83.699356 166.499936 
z
" style="fill:#7fcdbb;stroke:#000000;stroke-linejoin:miter;"/>
   </g>
   <g id="patch_59">
    <path clip-path="url(#pbf2ea6edbb)" d="M 88.812026 205.099892 
L 93.924696 205.099892 
L 93.924696 158.414335 
L 88.812026 158.414335 
z
" style="fill:#7fcdbb;stroke:#000000;stroke-linejoin:miter;"/>
   </g>
   <g id="patch_60">
    <path clip-path="url(#pbf2ea6edbb)" d="M 93.924696 205.838142 
L 99.037366 205.838142 
L 99.037366 141.504883 
L 93.924696 141.504883 
z
" style="fill:#7fcdbb;stroke:#000000;stroke-linejoin:miter;"/>
   </g>
   <g id="patch_61">
    <path clip-path="url(#pbf2ea6edbb)" d="M 99.037366 218.950878 
L 104.150036 218.950878 
L 104.150036 123.822026 
L 99.037366 123.822026 
z
" style="fill:#7fcdbb;stroke:#000000;stroke-linejoin:miter;"/>
   </g>
   <g id="patch_62">
    <path clip-path="url(#pbf2ea6edbb)" d="M 104.150036 212.658171 
L 109.262706 212.658171 
L 109.262706 88.983632 
L 104.150036 88.983632 
z
" style="fill:#7fcdbb;stroke:#000000;stroke-linejoin:miter;"/>
   </g>
   <g id="patch_63">
    <path clip-path="url(#pbf2ea6edbb)" d="M 109.262706 216.630662 
L 114.375376 216.630662 
L 114.375376 96.717685 
L 109.262706 96.717685 
z
" style="fill:#7fcdbb;stroke:#000000;stroke-linejoin:miter;"/>
   </g>
   <g id="patch_64">
    <path clip-path="url(#pbf2ea6edbb)" d="M 114.375376 232.239387 
L 119.488046 232.239387 
L 119.488046 144.56335 
L 114.375376 144.56335 
z
" style="fill:#7fcdbb;stroke:#000000;stroke-linejoin:miter;"/>
   </g>
   <g id="patch_65">
    <path clip-path="url(#pbf2ea6edbb)" d="M 119.488046 234.770532 
L 124.600716 234.770532 
L 124.600716 168.36314 
L 119.488046 168.36314 
z
" style="fill:#7fcdbb;stroke:#000000;stroke-linejoin:miter;"/>
   </g>
   <g id="patch_66">
    <path clip-path="url(#pbf2ea6edbb)" d="M 124.600716 236.7392 
L 129.713386 236.7392 
L 129.713386 183.444543 
L 124.600716 183.444543 
z
" style="fill:#7fcdbb;stroke:#000000;stroke-linejoin:miter;"/>
   </g>
   <g id="patch_67">
    <path clip-path="url(#pbf2ea6edbb)" d="M 129.713386 237.442295 
L 134.826056 237.442295 
L 134.826056 190.018488 
L 129.713386 190.018488 
z
" style="fill:#7fcdbb;stroke:#000000;stroke-linejoin:miter;"/>
   </g>
   <g id="patch_68">
    <path clip-path="url(#pbf2ea6edbb)" d="M 134.826056 237.582914 
L 139.938726 237.582914 
L 139.938726 193.252729 
L 134.826056 193.252729 
z
" style="fill:#7fcdbb;stroke:#000000;stroke-linejoin:miter;"/>
   </g>
   <g id="patch_69">
    <path clip-path="url(#pbf2ea6edbb)" d="M 139.938726 237.758688 
L 145.051396 237.758688 
L 145.051396 185.764759 
L 139.938726 185.764759 
z
" style="fill:#7fcdbb;stroke:#000000;stroke-linejoin:miter;"/>
   </g>
   <g id="patch_70">
    <path clip-path="url(#pbf2ea6edbb)" d="M 145.051396 237.934462 
L 150.164066 237.934462 
L 150.164066 187.452189 
L 145.051396 187.452189 
z
" style="fill:#7fcdbb;stroke:#000000;stroke-linejoin:miter;"/>
   </g>
   <g id="patch_71">
    <path clip-path="url(#pbf2ea6edbb)" d="M 150.164066 237.934462 
L 155.276736 237.934462 
L 155.276736 200.494615 
L 150.164066 200.494615 
z
" style="fill:#7fcdbb;stroke:#000000;stroke-linejoin:miter;"/>
   </g>
   <g id="patch_72">
    <path clip-path="url(#pbf2ea6edbb)" d="M 155.276736 237.899308 
L 160.389406 237.899308 
L 160.389406 218.52902 
L 155.276736 218.52902 
z
" style="fill:#7fcdbb;stroke:#000000;stroke-linejoin:miter;"/>
   </g>
   <g id="patch_73">
    <path clip-path="url(#pbf2ea6edbb)" d="M 160.389406 237.934462 
L 165.502076 237.934462 
L 165.502076 228.196586 
L 160.389406 228.196586 
z
" style="fill:#7fcdbb;stroke:#000000;stroke-linejoin:miter;"/>
   </g>
   <g id="patch_74">
    <path clip-path="url(#pbf2ea6edbb)" d="M 165.502076 238.110236 
L 170.614746 238.110236 
L 170.614746 233.258876 
L 165.502076 233.258876 
z
" style="fill:#7fcdbb;stroke:#000000;stroke-linejoin:miter;"/>
   </g>
   <g id="patch_75">
    <path clip-path="url(#pbf2ea6edbb)" d="M 170.614746 238.110236 
L 175.727416 238.110236 
L 175.727416 233.961971 
L 170.614746 233.961971 
z
" style="fill:#7fcdbb;stroke:#000000;stroke-linejoin:miter;"/>
   </g>
   <g id="patch_76">
    <path clip-path="url(#pbf2ea6edbb)" d="M 175.727416 238.110236 
L 180.840086 238.110236 
L 180.840086 234.98146 
L 175.727416 234.98146 
z
" style="fill:#7fcdbb;stroke:#000000;stroke-linejoin:miter;"/>
   </g>
   <g id="patch_77">
    <path clip-path="url(#pbf2ea6edbb)" d="M 180.840086 238.110236 
L 185.952756 238.110236 
L 185.952756 234.770532 
L 180.840086 234.770532 
z
" style="fill:#7fcdbb;stroke:#000000;stroke-linejoin:miter;"/>
   </g>
   <g id="patch_78">
    <path clip-path="url(#pbf2ea6edbb)" d="M 185.952756 238.110236 
L 191.065426 238.110236 
L 191.065426 235.543937 
L 185.952756 235.543937 
z
" style="fill:#7fcdbb;stroke:#000000;stroke-linejoin:miter;"/>
   </g>
   <g id="patch_79">
    <path clip-path="url(#pbf2ea6edbb)" d="M 191.065426 238.110236 
L 196.178096 238.110236 
L 196.178096 237.266521 
L 191.065426 237.266521 
z
" style="fill:#7fcdbb;stroke:#000000;stroke-linejoin:miter;"/>
   </g>
   <g id="patch_80">
    <path clip-path="url(#pbf2ea6edbb)" d="M 196.178096 238.110236 
L 201.290766 238.110236 
L 201.290766 237.54776 
L 196.178096 237.54776 
z
" style="fill:#7fcdbb;stroke:#000000;stroke-linejoin:miter;"/>
   </g>
   <g id="patch_81">
    <path clip-path="url(#pbf2ea6edbb)" d="M 201.290766 238.110236 
L 206.403436 238.110236 
L 206.403436 237.864153 
L 201.290766 237.864153 
z
" style="fill:#7fcdbb;stroke:#000000;stroke-linejoin:miter;"/>
   </g>
   <g id="patch_82">
    <path clip-path="url(#pbf2ea6edbb)" d="M 206.403436 238.110236 
L 211.516106 238.110236 
L 211.516106 237.864153 
L 206.403436 237.864153 
z
" style="fill:#7fcdbb;stroke:#000000;stroke-linejoin:miter;"/>
   </g>
   <g id="patch_83">
    <path clip-path="url(#pbf2ea6edbb)" d="M 211.516106 238.110236 
L 216.628776 238.110236 
L 216.628776 237.934462 
L 211.516106 237.934462 
z
" style="fill:#7fcdbb;stroke:#000000;stroke-linejoin:miter;"/>
   </g>
   <g id="patch_84">
    <path clip-path="url(#pbf2ea6edbb)" d="M 216.628776 238.110236 
L 221.741446 238.110236 
L 221.741446 238.004772 
L 216.628776 238.004772 
z
" style="fill:#7fcdbb;stroke:#000000;stroke-linejoin:miter;"/>
   </g>
   <g id="patch_85">
    <path clip-path="url(#pbf2ea6edbb)" d="M 221.741446 238.110236 
L 226.854116 238.110236 
L 226.854116 238.039927 
L 221.741446 238.039927 
z
" style="fill:#7fcdbb;stroke:#000000;stroke-linejoin:miter;"/>
   </g>
   <g id="patch_86">
    <path clip-path="url(#pbf2ea6edbb)" d="M 226.854116 238.110236 
L 231.966786 238.110236 
L 231.966786 238.110236 
L 226.854116 238.110236 
z
" style="fill:#7fcdbb;stroke:#000000;stroke-linejoin:miter;"/>
   </g>
   <g id="patch_87">
    <path clip-path="url(#pbf2ea6edbb)" d="M 231.966786 238.110236 
L 237.079456 238.110236 
L 237.079456 238.110236 
L 231.966786 238.110236 
z
" style="fill:#7fcdbb;stroke:#000000;stroke-linejoin:miter;"/>
   </g>
   <g id="patch_88">
    <path clip-path="url(#pbf2ea6edbb)" d="M 237.079456 238.110236 
L 242.192126 238.110236 
L 242.192126 238.110236 
L 237.079456 238.110236 
z
" style="fill:#7fcdbb;stroke:#000000;stroke-linejoin:miter;"/>
   </g>
   <g id="patch_89">
    <path clip-path="url(#pbf2ea6edbb)" d="M 242.192126 238.110236 
L 247.304796 238.110236 
L 247.304796 238.110236 
L 242.192126 238.110236 
z
" style="fill:#7fcdbb;stroke:#000000;stroke-linejoin:miter;"/>
   </g>
   <g id="patch_90">
    <path clip-path="url(#pbf2ea6edbb)" d="M 247.304796 238.110236 
L 252.417466 238.110236 
L 252.417466 238.110236 
L 247.304796 238.110236 
z
" style="fill:#7fcdbb;stroke:#000000;stroke-linejoin:miter;"/>
   </g>
   <g id="patch_91">
    <path clip-path="url(#pbf2ea6edbb)" d="M 252.417466 238.110236 
L 257.530136 238.110236 
L 257.530136 238.110236 
L 252.417466 238.110236 
z
" style="fill:#7fcdbb;stroke:#000000;stroke-linejoin:miter;"/>
   </g>
   <g id="patch_92">
    <path clip-path="url(#pbf2ea6edbb)" d="M 257.530136 238.110236 
L 262.642806 238.110236 
L 262.642806 238.110236 
L 257.530136 238.110236 
z
" style="fill:#7fcdbb;stroke:#000000;stroke-linejoin:miter;"/>
   </g>
   <g id="patch_93">
    <path clip-path="url(#pbf2ea6edbb)" d="M 262.642806 238.110236 
L 267.755476 238.110236 
L 267.755476 238.075081 
L 262.642806 238.075081 
z
" style="fill:#7fcdbb;stroke:#000000;stroke-linejoin:miter;"/>
   </g>
   <g id="patch_94">
    <path clip-path="url(#pbf2ea6edbb)" d="M 267.755476 238.110236 
L 272.868146 238.110236 
L 272.868146 238.110236 
L 267.755476 238.110236 
z
" style="fill:#7fcdbb;stroke:#000000;stroke-linejoin:miter;"/>
   </g>
   <g id="patch_95">
    <path clip-path="url(#pbf2ea6edbb)" d="M 272.868146 238.110236 
L 277.980816 238.110236 
L 277.980816 238.110236 
L 272.868146 238.110236 
z
" style="fill:#7fcdbb;stroke:#000000;stroke-linejoin:miter;"/>
   </g>
   <g id="patch_96">
    <path clip-path="url(#pbf2ea6edbb)" d="M 277.980816 238.110236 
L 283.093486 238.110236 
L 283.093486 238.110236 
L 277.980816 238.110236 
z
" style="fill:#7fcdbb;stroke:#000000;stroke-linejoin:miter;"/>
   </g>
   <g id="patch_97">
    <path clip-path="url(#pbf2ea6edbb)" d="M 283.093486 238.110236 
L 288.206156 238.110236 
L 288.206156 238.110236 
L 283.093486 238.110236 
z
" style="fill:#7fcdbb;stroke:#000000;stroke-linejoin:miter;"/>
   </g>
   <g id="patch_98">
    <path clip-path="url(#pbf2ea6edbb)" d="M 288.206156 238.110236 
L 293.318826 238.110236 
L 293.318826 238.110236 
L 288.206156 238.110236 
z
" style="fill:#7fcdbb;stroke:#000000;stroke-linejoin:miter;"/>
   </g>
   <g id="patch_99">
    <path clip-path="url(#pbf2ea6edbb)" d="M 293.318826 238.110236 
L 298.431496 238.110236 
L 298.431496 238.110236 
L 293.318826 238.110236 
z
" style="fill:#7fcdbb;stroke:#000000;stroke-linejoin:miter;"/>
   </g>
   <g id="patch_100">
    <path clip-path="url(#pbf2ea6edbb)" d="M 298.431496 238.110236 
L 303.544166 238.110236 
L 303.544166 238.110236 
L 298.431496 238.110236 
z
" style="fill:#7fcdbb;stroke:#000000;stroke-linejoin:miter;"/>
   </g>
   <g id="patch_101">
    <path clip-path="url(#pbf2ea6edbb)" d="M 303.544166 238.110236 
L 308.656836 238.110236 
L 308.656836 238.110236 
L 303.544166 238.110236 
z
" style="fill:#7fcdbb;stroke:#000000;stroke-linejoin:miter;"/>
   </g>
   <g id="patch_102">
    <path clip-path="url(#pbf2ea6edbb)" d="M 308.656836 238.110236 
L 313.769506 238.110236 
L 313.769506 238.110236 
L 308.656836 238.110236 
z
" style="fill:#7fcdbb;stroke:#000000;stroke-linejoin:miter;"/>
   </g>
   <g id="patch_103">
    <path clip-path="url(#pbf2ea6edbb)" d="M 58.136006 237.793843 
L 63.248676 237.793843 
L 63.248676 237.758688 
L 58.136006 237.758688 
z
" style="fill:#2c7fb8;stroke:#000000;stroke-linejoin:miter;"/>
   </g>
   <g id="patch_104">
    <path clip-path="url(#pbf2ea6edbb)" d="M 63.248676 232.450316 
L 68.361346 232.450316 
L 68.361346 232.098768 
L 63.248676 232.098768 
z
" style="fill:#2c7fb8;stroke:#000000;stroke-linejoin:miter;"/>
   </g>
   <g id="patch_105">
    <path clip-path="url(#pbf2ea6edbb)" d="M 68.361346 222.677285 
L 73.474016 222.677285 
L 73.474016 221.90388 
L 68.361346 221.90388 
z
" style="fill:#2c7fb8;stroke:#000000;stroke-linejoin:miter;"/>
   </g>
   <g id="patch_106">
    <path clip-path="url(#pbf2ea6edbb)" d="M 73.474016 196.733053 
L 78.586686 196.733053 
L 78.586686 192.514478 
L 73.474016 192.514478 
z
" style="fill:#2c7fb8;stroke:#000000;stroke-linejoin:miter;"/>
   </g>
   <g id="patch_107">
    <path clip-path="url(#pbf2ea6edbb)" d="M 78.586686 179.929065 
L 83.699356 179.929065 
L 83.699356 171.773154 
L 78.586686 171.773154 
z
" style="fill:#2c7fb8;stroke:#000000;stroke-linejoin:miter;"/>
   </g>
   <g id="patch_108">
    <path clip-path="url(#pbf2ea6edbb)" d="M 83.699356 166.499936 
L 88.812026 166.499936 
L 88.812026 141.293954 
L 83.699356 141.293954 
z
" style="fill:#2c7fb8;stroke:#000000;stroke-linejoin:miter;"/>
   </g>
   <g id="patch_109">
    <path clip-path="url(#pbf2ea6edbb)" d="M 88.812026 158.414335 
L 93.924696 158.414335 
L 93.924696 102.764309 
L 88.812026 102.764309 
z
" style="fill:#2c7fb8;stroke:#000000;stroke-linejoin:miter;"/>
   </g>
   <g id="patch_110">
    <path clip-path="url(#pbf2ea6edbb)" d="M 93.924696 141.504883 
L 99.037366 141.504883 
L 99.037366 50.313367 
L 93.924696 50.313367 
z
" style="fill:#2c7fb8;stroke:#000000;stroke-linejoin:miter;"/>
   </g>
   <g id="patch_111">
    <path clip-path="url(#pbf2ea6edbb)" d="M 99.037366 123.822026 
L 104.150036 123.822026 
L 104.150036 59.277838 
L 99.037366 59.277838 
z
" style="fill:#2c7fb8;stroke:#000000;stroke-linejoin:miter;"/>
   </g>
   <g id="patch_112">
    <path clip-path="url(#pbf2ea6edbb)" d="M 104.150036 88.983632 
L 109.262706 88.983632 
L 109.262706 42.438695 
L 104.150036 42.438695 
z
" style="fill:#2c7fb8;stroke:#000000;stroke-linejoin:miter;"/>
   </g>
   <g id="patch_113">
    <path clip-path="url(#pbf2ea6edbb)" d="M 109.262706 96.717685 
L 114.375376 96.717685 
L 114.375376 57.23886 
L 109.262706 57.23886 
z
" style="fill:#2c7fb8;stroke:#000000;stroke-linejoin:miter;"/>
   </g>
   <g id="patch_114">
    <path clip-path="url(#pbf2ea6edbb)" d="M 114.375376 144.56335 
L 119.488046 144.56335 
L 119.488046 108.705468 
L 114.375376 108.705468 
z
" style="fill:#2c7fb8;stroke:#000000;stroke-linejoin:miter;"/>
   </g>
   <g id="patch_115">
    <path clip-path="url(#pbf2ea6edbb)" d="M 119.488046 168.36314 
L 124.600716 168.36314 
L 124.600716 133.102889 
L 119.488046 133.102889 
z
" style="fill:#2c7fb8;stroke:#000000;stroke-linejoin:miter;"/>
   </g>
   <g id="patch_116">
    <path clip-path="url(#pbf2ea6edbb)" d="M 124.600716 183.444543 
L 129.713386 183.444543 
L 129.713386 147.8679 
L 124.600716 147.8679 
z
" style="fill:#2c7fb8;stroke:#000000;stroke-linejoin:miter;"/>
   </g>
   <g id="patch_117">
    <path clip-path="url(#pbf2ea6edbb)" d="M 129.713386 190.018488 
L 134.826056 190.018488 
L 134.826056 150.539663 
L 129.713386 150.539663 
z
" style="fill:#2c7fb8;stroke:#000000;stroke-linejoin:miter;"/>
   </g>
   <g id="patch_118">
    <path clip-path="url(#pbf2ea6edbb)" d="M 134.826056 193.252729 
L 139.938726 193.252729 
L 139.938726 145.125826 
L 134.826056 145.125826 
z
" style="fill:#2c7fb8;stroke:#000000;stroke-linejoin:miter;"/>
   </g>
   <g id="patch_119">
    <path clip-path="url(#pbf2ea6edbb)" d="M 139.938726 185.764759 
L 145.051396 185.764759 
L 145.051396 133.84114 
L 139.938726 133.84114 
z
" style="fill:#2c7fb8;stroke:#000000;stroke-linejoin:miter;"/>
   </g>
   <g id="patch_120">
    <path clip-path="url(#pbf2ea6edbb)" d="M 145.051396 187.452189 
L 150.164066 187.452189 
L 150.164066 135.52857 
L 145.051396 135.52857 
z
" style="fill:#2c7fb8;stroke:#000000;stroke-linejoin:miter;"/>
   </g>
   <g id="patch_121">
    <path clip-path="url(#pbf2ea6edbb)" d="M 150.164066 200.494615 
L 155.276736 200.494615 
L 155.276736 148.078828 
L 150.164066 148.078828 
z
" style="fill:#2c7fb8;stroke:#000000;stroke-linejoin:miter;"/>
   </g>
   <g id="patch_122">
    <path clip-path="url(#pbf2ea6edbb)" d="M 155.276736 218.52902 
L 160.389406 218.52902 
L 160.389406 165.199209 
L 155.276736 165.199209 
z
" style="fill:#2c7fb8;stroke:#000000;stroke-linejoin:miter;"/>
   </g>
   <g id="patch_123">
    <path clip-path="url(#pbf2ea6edbb)" d="M 160.389406 228.196586 
L 165.502076 228.196586 
L 165.502076 178.030706 
L 160.389406 178.030706 
z
" style="fill:#2c7fb8;stroke:#000000;stroke-linejoin:miter;"/>
   </g>
   <g id="patch_124">
    <path clip-path="url(#pbf2ea6edbb)" d="M 165.502076 233.258876 
L 170.614746 233.258876 
L 170.614746 188.014666 
L 165.502076 188.014666 
z
" style="fill:#2c7fb8;stroke:#000000;stroke-linejoin:miter;"/>
   </g>
   <g id="patch_125">
    <path clip-path="url(#pbf2ea6edbb)" d="M 170.614746 233.961971 
L 175.727416 233.961971 
L 175.727416 194.061289 
L 170.614746 194.061289 
z
" style="fill:#2c7fb8;stroke:#000000;stroke-linejoin:miter;"/>
   </g>
   <g id="patch_126">
    <path clip-path="url(#pbf2ea6edbb)" d="M 175.727416 234.98146 
L 180.840086 234.98146 
L 180.840086 206.084226 
L 175.727416 206.084226 
z
" style="fill:#2c7fb8;stroke:#000000;stroke-linejoin:miter;"/>
   </g>
   <g id="patch_127">
    <path clip-path="url(#pbf2ea6edbb)" d="M 180.840086 234.770532 
L 185.952756 234.770532 
L 185.952756 213.255802 
L 180.840086 213.255802 
z
" style="fill:#2c7fb8;stroke:#000000;stroke-linejoin:miter;"/>
   </g>
   <g id="patch_128">
    <path clip-path="url(#pbf2ea6edbb)" d="M 185.952756 235.543937 
L 191.065426 235.543937 
L 191.065426 219.478199 
L 185.952756 219.478199 
z
" style="fill:#2c7fb8;stroke:#000000;stroke-linejoin:miter;"/>
   </g>
   <g id="patch_129">
    <path clip-path="url(#pbf2ea6edbb)" d="M 191.065426 237.266521 
L 196.178096 237.266521 
L 196.178096 226.01699 
L 191.065426 226.01699 
z
" style="fill:#2c7fb8;stroke:#000000;stroke-linejoin:miter;"/>
   </g>
   <g id="patch_130">
    <path clip-path="url(#pbf2ea6edbb)" d="M 196.178096 237.54776 
L 201.290766 237.54776 
L 201.290766 227.458336 
L 196.178096 227.458336 
z
" style="fill:#2c7fb8;stroke:#000000;stroke-linejoin:miter;"/>
   </g>
   <g id="patch_131">
    <path clip-path="url(#pbf2ea6edbb)" d="M 201.290766 237.864153 
L 206.403436 237.864153 
L 206.403436 228.723908 
L 201.290766 228.723908 
z
" style="fill:#2c7fb8;stroke:#000000;stroke-linejoin:miter;"/>
   </g>
   <g id="patch_132">
    <path clip-path="url(#pbf2ea6edbb)" d="M 206.403436 237.864153 
L 211.516106 237.864153 
L 211.516106 232.590935 
L 206.403436 232.590935 
z
" style="fill:#2c7fb8;stroke:#000000;stroke-linejoin:miter;"/>
   </g>
   <g id="patch_133">
    <path clip-path="url(#pbf2ea6edbb)" d="M 211.516106 237.934462 
L 216.628776 237.934462 
L 216.628776 235.579092 
L 211.516106 235.579092 
z
" style="fill:#2c7fb8;stroke:#000000;stroke-linejoin:miter;"/>
   </g>
   <g id="patch_134">
    <path clip-path="url(#pbf2ea6edbb)" d="M 216.628776 238.004772 
L 221.741446 238.004772 
L 221.741446 236.704045 
L 216.628776 236.704045 
z
" style="fill:#2c7fb8;stroke:#000000;stroke-linejoin:miter;"/>
   </g>
   <g id="patch_135">
    <path clip-path="url(#pbf2ea6edbb)" d="M 221.741446 238.039927 
L 226.854116 238.039927 
L 226.854116 237.54776 
L 221.741446 237.54776 
z
" style="fill:#2c7fb8;stroke:#000000;stroke-linejoin:miter;"/>
   </g>
   <g id="patch_136">
    <path clip-path="url(#pbf2ea6edbb)" d="M 226.854116 238.110236 
L 231.966786 238.110236 
L 231.966786 237.899308 
L 226.854116 237.899308 
z
" style="fill:#2c7fb8;stroke:#000000;stroke-linejoin:miter;"/>
   </g>
   <g id="patch_137">
    <path clip-path="url(#pbf2ea6edbb)" d="M 231.966786 238.110236 
L 237.079456 238.110236 
L 237.079456 237.899308 
L 231.966786 237.899308 
z
" style="fill:#2c7fb8;stroke:#000000;stroke-linejoin:miter;"/>
   </g>
   <g id="patch_138">
    <path clip-path="url(#pbf2ea6edbb)" d="M 237.079456 238.110236 
L 242.192126 238.110236 
L 242.192126 237.899308 
L 237.079456 237.899308 
z
" style="fill:#2c7fb8;stroke:#000000;stroke-linejoin:miter;"/>
   </g>
   <g id="patch_139">
    <path clip-path="url(#pbf2ea6edbb)" d="M 242.192126 238.110236 
L 247.304796 238.110236 
L 247.304796 237.969617 
L 242.192126 237.969617 
z
" style="fill:#2c7fb8;stroke:#000000;stroke-linejoin:miter;"/>
   </g>
   <g id="patch_140">
    <path clip-path="url(#pbf2ea6edbb)" d="M 247.304796 238.110236 
L 252.417466 238.110236 
L 252.417466 238.039927 
L 247.304796 238.039927 
z
" style="fill:#2c7fb8;stroke:#000000;stroke-linejoin:miter;"/>
   </g>
   <g id="patch_141">
    <path clip-path="url(#pbf2ea6edbb)" d="M 252.417466 238.110236 
L 257.530136 238.110236 
L 257.530136 238.075081 
L 252.417466 238.075081 
z
" style="fill:#2c7fb8;stroke:#000000;stroke-linejoin:miter;"/>
   </g>
   <g id="patch_142">
    <path clip-path="url(#pbf2ea6edbb)" d="M 257.530136 238.110236 
L 262.642806 238.110236 
L 262.642806 238.039927 
L 257.530136 238.039927 
z
" style="fill:#2c7fb8;stroke:#000000;stroke-linejoin:miter;"/>
   </g>
   <g id="patch_143">
    <path clip-path="url(#pbf2ea6edbb)" d="M 262.642806 238.075081 
L 267.755476 238.075081 
L 267.755476 237.969617 
L 262.642806 237.969617 
z
" style="fill:#2c7fb8;stroke:#000000;stroke-linejoin:miter;"/>
   </g>
   <g id="patch_144">
    <path clip-path="url(#pbf2ea6edbb)" d="M 267.755476 238.110236 
L 272.868146 238.110236 
L 272.868146 238.110236 
L 267.755476 238.110236 
z
" style="fill:#2c7fb8;stroke:#000000;stroke-linejoin:miter;"/>
   </g>
   <g id="patch_145">
    <path clip-path="url(#pbf2ea6edbb)" d="M 272.868146 238.110236 
L 277.980816 238.110236 
L 277.980816 238.075081 
L 272.868146 238.075081 
z
" style="fill:#2c7fb8;stroke:#000000;stroke-linejoin:miter;"/>
   </g>
   <g id="patch_146">
    <path clip-path="url(#pbf2ea6edbb)" d="M 277.980816 238.110236 
L 283.093486 238.110236 
L 283.093486 238.004772 
L 277.980816 238.004772 
z
" style="fill:#2c7fb8;stroke:#000000;stroke-linejoin:miter;"/>
   </g>
   <g id="patch_147">
    <path clip-path="url(#pbf2ea6edbb)" d="M 283.093486 238.110236 
L 288.206156 238.110236 
L 288.206156 238.075081 
L 283.093486 238.075081 
z
" style="fill:#2c7fb8;stroke:#000000;stroke-linejoin:miter;"/>
   </g>
   <g id="patch_148">
    <path clip-path="url(#pbf2ea6edbb)" d="M 288.206156 238.110236 
L 293.318826 238.110236 
L 293.318826 238.039927 
L 288.206156 238.039927 
z
" style="fill:#2c7fb8;stroke:#000000;stroke-linejoin:miter;"/>
   </g>
   <g id="patch_149">
    <path clip-path="url(#pbf2ea6edbb)" d="M 293.318826 238.110236 
L 298.431496 238.110236 
L 298.431496 238.110236 
L 293.318826 238.110236 
z
" style="fill:#2c7fb8;stroke:#000000;stroke-linejoin:miter;"/>
   </g>
   <g id="patch_150">
    <path clip-path="url(#pbf2ea6edbb)" d="M 298.431496 238.110236 
L 303.544166 238.110236 
L 303.544166 238.110236 
L 298.431496 238.110236 
z
" style="fill:#2c7fb8;stroke:#000000;stroke-linejoin:miter;"/>
   </g>
   <g id="patch_151">
    <path clip-path="url(#pbf2ea6edbb)" d="M 303.544166 238.110236 
L 308.656836 238.110236 
L 308.656836 238.110236 
L 303.544166 238.110236 
z
" style="fill:#2c7fb8;stroke:#000000;stroke-linejoin:miter;"/>
   </g>
   <g id="patch_152">
    <path clip-path="url(#pbf2ea6edbb)" d="M 308.656836 238.110236 
L 313.769506 238.110236 
L 313.769506 238.004772 
L 308.656836 238.004772 
z
" style="fill:#2c7fb8;stroke:#000000;stroke-linejoin:miter;"/>
   </g>
   <g id="matplotlib.axis_1">
    <g id="xtick_1">
     <g id="line2d_1">
      <defs>
       <path d="M 0 0 
L 0 3.5 
" id="m540f813f39" style="stroke:#000000;stroke-width:0.8;"/>
      </defs>
      <g>
       <use style="stroke:#000000;stroke-width:0.8;" x="58.136006" xlink:href="#m540f813f39" y="238.110236"/>
      </g>
     </g>
     <g id="text_1">
      <!-- 0 -->
      <defs>
       <path d="M 31.78125 66.40625 
Q 24.171875 66.40625 20.328125 58.90625 
Q 16.5 51.421875 16.5 36.375 
Q 16.5 21.390625 20.328125 13.890625 
Q 24.171875 6.390625 31.78125 6.390625 
Q 39.453125 6.390625 43.28125 13.890625 
Q 47.125 21.390625 47.125 36.375 
Q 47.125 51.421875 43.28125 58.90625 
Q 39.453125 66.40625 31.78125 66.40625 
z
M 31.78125 74.21875 
Q 44.046875 74.21875 50.515625 64.515625 
Q 56.984375 54.828125 56.984375 36.375 
Q 56.984375 17.96875 50.515625 8.265625 
Q 44.046875 -1.421875 31.78125 -1.421875 
Q 19.53125 -1.421875 13.0625 8.265625 
Q 6.59375 17.96875 6.59375 36.375 
Q 6.59375 54.828125 13.0625 64.515625 
Q 19.53125 74.21875 31.78125 74.21875 
z
" id="DejaVuSans-48"/>
      </defs>
      <g transform="translate(55.591006 251.188986)scale(0.08 -0.08)">
       <use xlink:href="#DejaVuSans-48"/>
      </g>
     </g>
    </g>
    <g id="xtick_2">
     <g id="line2d_2">
      <g>
       <use style="stroke:#000000;stroke-width:0.8;" x="115.364877" xlink:href="#m540f813f39" y="238.110236"/>
      </g>
     </g>
     <g id="text_2">
      <!-- 500 -->
      <defs>
       <path d="M 10.796875 72.90625 
L 49.515625 72.90625 
L 49.515625 64.59375 
L 19.828125 64.59375 
L 19.828125 46.734375 
Q 21.96875 47.46875 24.109375 47.828125 
Q 26.265625 48.1875 28.421875 48.1875 
Q 40.625 48.1875 47.75 41.5 
Q 54.890625 34.8125 54.890625 23.390625 
Q 54.890625 11.625 47.5625 5.09375 
Q 40.234375 -1.421875 26.90625 -1.421875 
Q 22.3125 -1.421875 17.546875 -0.640625 
Q 12.796875 0.140625 7.71875 1.703125 
L 7.71875 11.625 
Q 12.109375 9.234375 16.796875 8.0625 
Q 21.484375 6.890625 26.703125 6.890625 
Q 35.15625 6.890625 40.078125 11.328125 
Q 45.015625 15.765625 45.015625 23.390625 
Q 45.015625 31 40.078125 35.4375 
Q 35.15625 39.890625 26.703125 39.890625 
Q 22.75 39.890625 18.8125 39.015625 
Q 14.890625 38.140625 10.796875 36.28125 
z
" id="DejaVuSans-53"/>
      </defs>
      <g transform="translate(107.729877 251.188986)scale(0.08 -0.08)">
       <use xlink:href="#DejaVuSans-53"/>
       <use x="63.623047" xlink:href="#DejaVuSans-48"/>
       <use x="127.246094" xlink:href="#DejaVuSans-48"/>
      </g>
     </g>
    </g>
    <g id="xtick_3">
     <g id="line2d_3">
      <g>
       <use style="stroke:#000000;stroke-width:0.8;" x="172.593749" xlink:href="#m540f813f39" y="238.110236"/>
      </g>
     </g>
     <g id="text_3">
      <!-- 1000 -->
      <defs>
       <path d="M 12.40625 8.296875 
L 28.515625 8.296875 
L 28.515625 63.921875 
L 10.984375 60.40625 
L 10.984375 69.390625 
L 28.421875 72.90625 
L 38.28125 72.90625 
L 38.28125 8.296875 
L 54.390625 8.296875 
L 54.390625 0 
L 12.40625 0 
z
" id="DejaVuSans-49"/>
      </defs>
      <g transform="translate(162.413749 251.188986)scale(0.08 -0.08)">
       <use xlink:href="#DejaVuSans-49"/>
       <use x="63.623047" xlink:href="#DejaVuSans-48"/>
       <use x="127.246094" xlink:href="#DejaVuSans-48"/>
       <use x="190.869141" xlink:href="#DejaVuSans-48"/>
      </g>
     </g>
    </g>
    <g id="xtick_4">
     <g id="line2d_4">
      <g>
       <use style="stroke:#000000;stroke-width:0.8;" x="229.822621" xlink:href="#m540f813f39" y="238.110236"/>
      </g>
     </g>
     <g id="text_4">
      <!-- 1500 -->
      <g transform="translate(219.642621 251.188986)scale(0.08 -0.08)">
       <use xlink:href="#DejaVuSans-49"/>
       <use x="63.623047" xlink:href="#DejaVuSans-53"/>
       <use x="127.246094" xlink:href="#DejaVuSans-48"/>
       <use x="190.869141" xlink:href="#DejaVuSans-48"/>
      </g>
     </g>
    </g>
    <g id="xtick_5">
     <g id="line2d_5">
      <g>
       <use style="stroke:#000000;stroke-width:0.8;" x="287.051493" xlink:href="#m540f813f39" y="238.110236"/>
      </g>
     </g>
     <g id="text_5">
      <!-- 2000 -->
      <defs>
       <path d="M 19.1875 8.296875 
L 53.609375 8.296875 
L 53.609375 0 
L 7.328125 0 
L 7.328125 8.296875 
Q 12.9375 14.109375 22.625 23.890625 
Q 32.328125 33.6875 34.8125 36.53125 
Q 39.546875 41.84375 41.421875 45.53125 
Q 43.3125 49.21875 43.3125 52.78125 
Q 43.3125 58.59375 39.234375 62.25 
Q 35.15625 65.921875 28.609375 65.921875 
Q 23.96875 65.921875 18.8125 64.3125 
Q 13.671875 62.703125 7.8125 59.421875 
L 7.8125 69.390625 
Q 13.765625 71.78125 18.9375 73 
Q 24.125 74.21875 28.421875 74.21875 
Q 39.75 74.21875 46.484375 68.546875 
Q 53.21875 62.890625 53.21875 53.421875 
Q 53.21875 48.921875 51.53125 44.890625 
Q 49.859375 40.875 45.40625 35.40625 
Q 44.1875 33.984375 37.640625 27.21875 
Q 31.109375 20.453125 19.1875 8.296875 
z
" id="DejaVuSans-50"/>
      </defs>
      <g transform="translate(276.871493 251.188986)scale(0.08 -0.08)">
       <use xlink:href="#DejaVuSans-50"/>
       <use x="63.623047" xlink:href="#DejaVuSans-48"/>
       <use x="127.246094" xlink:href="#DejaVuSans-48"/>
       <use x="190.869141" xlink:href="#DejaVuSans-48"/>
      </g>
     </g>
    </g>
    <g id="text_6">
     <!-- Population Density [hab/ha] -->
     <defs>
      <path d="M 19.671875 64.796875 
L 19.671875 37.40625 
L 32.078125 37.40625 
Q 38.96875 37.40625 42.71875 40.96875 
Q 46.484375 44.53125 46.484375 51.125 
Q 46.484375 57.671875 42.71875 61.234375 
Q 38.96875 64.796875 32.078125 64.796875 
z
M 9.8125 72.90625 
L 32.078125 72.90625 
Q 44.34375 72.90625 50.609375 67.359375 
Q 56.890625 61.8125 56.890625 51.125 
Q 56.890625 40.328125 50.609375 34.8125 
Q 44.34375 29.296875 32.078125 29.296875 
L 19.671875 29.296875 
L 19.671875 0 
L 9.8125 0 
z
" id="DejaVuSans-80"/>
      <path d="M 30.609375 48.390625 
Q 23.390625 48.390625 19.1875 42.75 
Q 14.984375 37.109375 14.984375 27.296875 
Q 14.984375 17.484375 19.15625 11.84375 
Q 23.34375 6.203125 30.609375 6.203125 
Q 37.796875 6.203125 41.984375 11.859375 
Q 46.1875 17.53125 46.1875 27.296875 
Q 46.1875 37.015625 41.984375 42.703125 
Q 37.796875 48.390625 30.609375 48.390625 
z
M 30.609375 56 
Q 42.328125 56 49.015625 48.375 
Q 55.71875 40.765625 55.71875 27.296875 
Q 55.71875 13.875 49.015625 6.21875 
Q 42.328125 -1.421875 30.609375 -1.421875 
Q 18.84375 -1.421875 12.171875 6.21875 
Q 5.515625 13.875 5.515625 27.296875 
Q 5.515625 40.765625 12.171875 48.375 
Q 18.84375 56 30.609375 56 
z
" id="DejaVuSans-111"/>
      <path d="M 18.109375 8.203125 
L 18.109375 -20.796875 
L 9.078125 -20.796875 
L 9.078125 54.6875 
L 18.109375 54.6875 
L 18.109375 46.390625 
Q 20.953125 51.265625 25.265625 53.625 
Q 29.59375 56 35.59375 56 
Q 45.5625 56 51.78125 48.09375 
Q 58.015625 40.1875 58.015625 27.296875 
Q 58.015625 14.40625 51.78125 6.484375 
Q 45.5625 -1.421875 35.59375 -1.421875 
Q 29.59375 -1.421875 25.265625 0.953125 
Q 20.953125 3.328125 18.109375 8.203125 
z
M 48.6875 27.296875 
Q 48.6875 37.203125 44.609375 42.84375 
Q 40.53125 48.484375 33.40625 48.484375 
Q 26.265625 48.484375 22.1875 42.84375 
Q 18.109375 37.203125 18.109375 27.296875 
Q 18.109375 17.390625 22.1875 11.75 
Q 26.265625 6.109375 33.40625 6.109375 
Q 40.53125 6.109375 44.609375 11.75 
Q 48.6875 17.390625 48.6875 27.296875 
z
" id="DejaVuSans-112"/>
      <path d="M 8.5 21.578125 
L 8.5 54.6875 
L 17.484375 54.6875 
L 17.484375 21.921875 
Q 17.484375 14.15625 20.5 10.265625 
Q 23.53125 6.390625 29.59375 6.390625 
Q 36.859375 6.390625 41.078125 11.03125 
Q 45.3125 15.671875 45.3125 23.6875 
L 45.3125 54.6875 
L 54.296875 54.6875 
L 54.296875 0 
L 45.3125 0 
L 45.3125 8.40625 
Q 42.046875 3.421875 37.71875 1 
Q 33.40625 -1.421875 27.6875 -1.421875 
Q 18.265625 -1.421875 13.375 4.4375 
Q 8.5 10.296875 8.5 21.578125 
z
M 31.109375 56 
z
" id="DejaVuSans-117"/>
      <path d="M 9.421875 75.984375 
L 18.40625 75.984375 
L 18.40625 0 
L 9.421875 0 
z
" id="DejaVuSans-108"/>
      <path d="M 34.28125 27.484375 
Q 23.390625 27.484375 19.1875 25 
Q 14.984375 22.515625 14.984375 16.5 
Q 14.984375 11.71875 18.140625 8.90625 
Q 21.296875 6.109375 26.703125 6.109375 
Q 34.1875 6.109375 38.703125 11.40625 
Q 43.21875 16.703125 43.21875 25.484375 
L 43.21875 27.484375 
z
M 52.203125 31.203125 
L 52.203125 0 
L 43.21875 0 
L 43.21875 8.296875 
Q 40.140625 3.328125 35.546875 0.953125 
Q 30.953125 -1.421875 24.3125 -1.421875 
Q 15.921875 -1.421875 10.953125 3.296875 
Q 6 8.015625 6 15.921875 
Q 6 25.140625 12.171875 29.828125 
Q 18.359375 34.515625 30.609375 34.515625 
L 43.21875 34.515625 
L 43.21875 35.40625 
Q 43.21875 41.609375 39.140625 45 
Q 35.0625 48.390625 27.6875 48.390625 
Q 23 48.390625 18.546875 47.265625 
Q 14.109375 46.140625 10.015625 43.890625 
L 10.015625 52.203125 
Q 14.9375 54.109375 19.578125 55.046875 
Q 24.21875 56 28.609375 56 
Q 40.484375 56 46.34375 49.84375 
Q 52.203125 43.703125 52.203125 31.203125 
z
" id="DejaVuSans-97"/>
      <path d="M 18.3125 70.21875 
L 18.3125 54.6875 
L 36.8125 54.6875 
L 36.8125 47.703125 
L 18.3125 47.703125 
L 18.3125 18.015625 
Q 18.3125 11.328125 20.140625 9.421875 
Q 21.96875 7.515625 27.59375 7.515625 
L 36.8125 7.515625 
L 36.8125 0 
L 27.59375 0 
Q 17.1875 0 13.234375 3.875 
Q 9.28125 7.765625 9.28125 18.015625 
L 9.28125 47.703125 
L 2.6875 47.703125 
L 2.6875 54.6875 
L 9.28125 54.6875 
L 9.28125 70.21875 
z
" id="DejaVuSans-116"/>
      <path d="M 9.421875 54.6875 
L 18.40625 54.6875 
L 18.40625 0 
L 9.421875 0 
z
M 9.421875 75.984375 
L 18.40625 75.984375 
L 18.40625 64.59375 
L 9.421875 64.59375 
z
" id="DejaVuSans-105"/>
      <path d="M 54.890625 33.015625 
L 54.890625 0 
L 45.90625 0 
L 45.90625 32.71875 
Q 45.90625 40.484375 42.875 44.328125 
Q 39.84375 48.1875 33.796875 48.1875 
Q 26.515625 48.1875 22.3125 43.546875 
Q 18.109375 38.921875 18.109375 30.90625 
L 18.109375 0 
L 9.078125 0 
L 9.078125 54.6875 
L 18.109375 54.6875 
L 18.109375 46.1875 
Q 21.34375 51.125 25.703125 53.5625 
Q 30.078125 56 35.796875 56 
Q 45.21875 56 50.046875 50.171875 
Q 54.890625 44.34375 54.890625 33.015625 
z
" id="DejaVuSans-110"/>
      <path id="DejaVuSans-32"/>
      <path d="M 19.671875 64.796875 
L 19.671875 8.109375 
L 31.59375 8.109375 
Q 46.6875 8.109375 53.6875 14.9375 
Q 60.6875 21.78125 60.6875 36.53125 
Q 60.6875 51.171875 53.6875 57.984375 
Q 46.6875 64.796875 31.59375 64.796875 
z
M 9.8125 72.90625 
L 30.078125 72.90625 
Q 51.265625 72.90625 61.171875 64.09375 
Q 71.09375 55.28125 71.09375 36.53125 
Q 71.09375 17.671875 61.125 8.828125 
Q 51.171875 0 30.078125 0 
L 9.8125 0 
z
" id="DejaVuSans-68"/>
      <path d="M 56.203125 29.59375 
L 56.203125 25.203125 
L 14.890625 25.203125 
Q 15.484375 15.921875 20.484375 11.0625 
Q 25.484375 6.203125 34.421875 6.203125 
Q 39.59375 6.203125 44.453125 7.46875 
Q 49.3125 8.734375 54.109375 11.28125 
L 54.109375 2.78125 
Q 49.265625 0.734375 44.1875 -0.34375 
Q 39.109375 -1.421875 33.890625 -1.421875 
Q 20.796875 -1.421875 13.15625 6.1875 
Q 5.515625 13.8125 5.515625 26.8125 
Q 5.515625 40.234375 12.765625 48.109375 
Q 20.015625 56 32.328125 56 
Q 43.359375 56 49.78125 48.890625 
Q 56.203125 41.796875 56.203125 29.59375 
z
M 47.21875 32.234375 
Q 47.125 39.59375 43.09375 43.984375 
Q 39.0625 48.390625 32.421875 48.390625 
Q 24.90625 48.390625 20.390625 44.140625 
Q 15.875 39.890625 15.1875 32.171875 
z
" id="DejaVuSans-101"/>
      <path d="M 44.28125 53.078125 
L 44.28125 44.578125 
Q 40.484375 46.53125 36.375 47.5 
Q 32.28125 48.484375 27.875 48.484375 
Q 21.1875 48.484375 17.84375 46.4375 
Q 14.5 44.390625 14.5 40.28125 
Q 14.5 37.15625 16.890625 35.375 
Q 19.28125 33.59375 26.515625 31.984375 
L 29.59375 31.296875 
Q 39.15625 29.25 43.1875 25.515625 
Q 47.21875 21.78125 47.21875 15.09375 
Q 47.21875 7.46875 41.1875 3.015625 
Q 35.15625 -1.421875 24.609375 -1.421875 
Q 20.21875 -1.421875 15.453125 -0.5625 
Q 10.6875 0.296875 5.421875 2 
L 5.421875 11.28125 
Q 10.40625 8.6875 15.234375 7.390625 
Q 20.0625 6.109375 24.8125 6.109375 
Q 31.15625 6.109375 34.5625 8.28125 
Q 37.984375 10.453125 37.984375 14.40625 
Q 37.984375 18.0625 35.515625 20.015625 
Q 33.0625 21.96875 24.703125 23.78125 
L 21.578125 24.515625 
Q 13.234375 26.265625 9.515625 29.90625 
Q 5.8125 33.546875 5.8125 39.890625 
Q 5.8125 47.609375 11.28125 51.796875 
Q 16.75 56 26.8125 56 
Q 31.78125 56 36.171875 55.265625 
Q 40.578125 54.546875 44.28125 53.078125 
z
" id="DejaVuSans-115"/>
      <path d="M 32.171875 -5.078125 
Q 28.375 -14.84375 24.75 -17.8125 
Q 21.140625 -20.796875 15.09375 -20.796875 
L 7.90625 -20.796875 
L 7.90625 -13.28125 
L 13.1875 -13.28125 
Q 16.890625 -13.28125 18.9375 -11.515625 
Q 21 -9.765625 23.484375 -3.21875 
L 25.09375 0.875 
L 2.984375 54.6875 
L 12.5 54.6875 
L 29.59375 11.921875 
L 46.6875 54.6875 
L 56.203125 54.6875 
z
" id="DejaVuSans-121"/>
      <path d="M 8.59375 75.984375 
L 29.296875 75.984375 
L 29.296875 69 
L 17.578125 69 
L 17.578125 -6.203125 
L 29.296875 -6.203125 
L 29.296875 -13.1875 
L 8.59375 -13.1875 
z
" id="DejaVuSans-91"/>
      <path d="M 54.890625 33.015625 
L 54.890625 0 
L 45.90625 0 
L 45.90625 32.71875 
Q 45.90625 40.484375 42.875 44.328125 
Q 39.84375 48.1875 33.796875 48.1875 
Q 26.515625 48.1875 22.3125 43.546875 
Q 18.109375 38.921875 18.109375 30.90625 
L 18.109375 0 
L 9.078125 0 
L 9.078125 75.984375 
L 18.109375 75.984375 
L 18.109375 46.1875 
Q 21.34375 51.125 25.703125 53.5625 
Q 30.078125 56 35.796875 56 
Q 45.21875 56 50.046875 50.171875 
Q 54.890625 44.34375 54.890625 33.015625 
z
" id="DejaVuSans-104"/>
      <path d="M 48.6875 27.296875 
Q 48.6875 37.203125 44.609375 42.84375 
Q 40.53125 48.484375 33.40625 48.484375 
Q 26.265625 48.484375 22.1875 42.84375 
Q 18.109375 37.203125 18.109375 27.296875 
Q 18.109375 17.390625 22.1875 11.75 
Q 26.265625 6.109375 33.40625 6.109375 
Q 40.53125 6.109375 44.609375 11.75 
Q 48.6875 17.390625 48.6875 27.296875 
z
M 18.109375 46.390625 
Q 20.953125 51.265625 25.265625 53.625 
Q 29.59375 56 35.59375 56 
Q 45.5625 56 51.78125 48.09375 
Q 58.015625 40.1875 58.015625 27.296875 
Q 58.015625 14.40625 51.78125 6.484375 
Q 45.5625 -1.421875 35.59375 -1.421875 
Q 29.59375 -1.421875 25.265625 0.953125 
Q 20.953125 3.328125 18.109375 8.203125 
L 18.109375 0 
L 9.078125 0 
L 9.078125 75.984375 
L 18.109375 75.984375 
z
" id="DejaVuSans-98"/>
      <path d="M 25.390625 72.90625 
L 33.6875 72.90625 
L 8.296875 -9.28125 
L 0 -9.28125 
z
" id="DejaVuSans-47"/>
      <path d="M 30.421875 75.984375 
L 30.421875 -13.1875 
L 9.71875 -13.1875 
L 9.71875 -6.203125 
L 21.390625 -6.203125 
L 21.390625 69 
L 9.71875 69 
L 9.71875 75.984375 
z
" id="DejaVuSans-93"/>
     </defs>
     <g transform="translate(116.094943 264.451174)scale(0.1 -0.1)">
      <use xlink:href="#DejaVuSans-80"/>
      <use x="60.255859" xlink:href="#DejaVuSans-111"/>
      <use x="121.4375" xlink:href="#DejaVuSans-112"/>
      <use x="184.914062" xlink:href="#DejaVuSans-117"/>
      <use x="248.292969" xlink:href="#DejaVuSans-108"/>
      <use x="276.076172" xlink:href="#DejaVuSans-97"/>
      <use x="337.355469" xlink:href="#DejaVuSans-116"/>
      <use x="376.564453" xlink:href="#DejaVuSans-105"/>
      <use x="404.347656" xlink:href="#DejaVuSans-111"/>
      <use x="465.529297" xlink:href="#DejaVuSans-110"/>
      <use x="528.908203" xlink:href="#DejaVuSans-32"/>
      <use x="560.695312" xlink:href="#DejaVuSans-68"/>
      <use x="637.697266" xlink:href="#DejaVuSans-101"/>
      <use x="699.220703" xlink:href="#DejaVuSans-110"/>
      <use x="762.599609" xlink:href="#DejaVuSans-115"/>
      <use x="814.699219" xlink:href="#DejaVuSans-105"/>
      <use x="842.482422" xlink:href="#DejaVuSans-116"/>
      <use x="881.691406" xlink:href="#DejaVuSans-121"/>
      <use x="940.871094" xlink:href="#DejaVuSans-32"/>
      <use x="972.658203" xlink:href="#DejaVuSans-91"/>
      <use x="1011.671875" xlink:href="#DejaVuSans-104"/>
      <use x="1075.050781" xlink:href="#DejaVuSans-97"/>
      <use x="1136.330078" xlink:href="#DejaVuSans-98"/>
      <use x="1199.806641" xlink:href="#DejaVuSans-47"/>
      <use x="1233.498047" xlink:href="#DejaVuSans-104"/>
      <use x="1296.876953" xlink:href="#DejaVuSans-97"/>
      <use x="1358.15625" xlink:href="#DejaVuSans-93"/>
     </g>
    </g>
   </g>
   <g id="matplotlib.axis_2">
    <g id="ytick_1">
     <g id="line2d_6">
      <defs>
       <path d="M 0 0 
L -3.5 0 
" id="m6e257bb192" style="stroke:#000000;stroke-width:0.8;"/>
      </defs>
      <g>
       <use style="stroke:#000000;stroke-width:0.8;" x="45.354331" xlink:href="#m6e257bb192" y="238.110236"/>
      </g>
     </g>
     <g id="text_7">
      <!-- 0 -->
      <g transform="translate(33.264331 241.149611)scale(0.08 -0.08)">
       <use xlink:href="#DejaVuSans-48"/>
      </g>
     </g>
    </g>
    <g id="ytick_2">
     <g id="line2d_7">
      <g>
       <use style="stroke:#000000;stroke-width:0.8;" x="45.354331" xlink:href="#m6e257bb192" y="202.95545"/>
      </g>
     </g>
     <g id="text_8">
      <!-- 1000 -->
      <g transform="translate(17.994331 205.994825)scale(0.08 -0.08)">
       <use xlink:href="#DejaVuSans-49"/>
       <use x="63.623047" xlink:href="#DejaVuSans-48"/>
       <use x="127.246094" xlink:href="#DejaVuSans-48"/>
       <use x="190.869141" xlink:href="#DejaVuSans-48"/>
      </g>
     </g>
    </g>
    <g id="ytick_3">
     <g id="line2d_8">
      <g>
       <use style="stroke:#000000;stroke-width:0.8;" x="45.354331" xlink:href="#m6e257bb192" y="167.800663"/>
      </g>
     </g>
     <g id="text_9">
      <!-- 2000 -->
      <g transform="translate(17.994331 170.840038)scale(0.08 -0.08)">
       <use xlink:href="#DejaVuSans-50"/>
       <use x="63.623047" xlink:href="#DejaVuSans-48"/>
       <use x="127.246094" xlink:href="#DejaVuSans-48"/>
       <use x="190.869141" xlink:href="#DejaVuSans-48"/>
      </g>
     </g>
    </g>
    <g id="ytick_4">
     <g id="line2d_9">
      <g>
       <use style="stroke:#000000;stroke-width:0.8;" x="45.354331" xlink:href="#m6e257bb192" y="132.645877"/>
      </g>
     </g>
     <g id="text_10">
      <!-- 3000 -->
      <defs>
       <path d="M 40.578125 39.3125 
Q 47.65625 37.796875 51.625 33 
Q 55.609375 28.21875 55.609375 21.1875 
Q 55.609375 10.40625 48.1875 4.484375 
Q 40.765625 -1.421875 27.09375 -1.421875 
Q 22.515625 -1.421875 17.65625 -0.515625 
Q 12.796875 0.390625 7.625 2.203125 
L 7.625 11.71875 
Q 11.71875 9.328125 16.59375 8.109375 
Q 21.484375 6.890625 26.8125 6.890625 
Q 36.078125 6.890625 40.9375 10.546875 
Q 45.796875 14.203125 45.796875 21.1875 
Q 45.796875 27.640625 41.28125 31.265625 
Q 36.765625 34.90625 28.71875 34.90625 
L 20.21875 34.90625 
L 20.21875 43.015625 
L 29.109375 43.015625 
Q 36.375 43.015625 40.234375 45.921875 
Q 44.09375 48.828125 44.09375 54.296875 
Q 44.09375 59.90625 40.109375 62.90625 
Q 36.140625 65.921875 28.71875 65.921875 
Q 24.65625 65.921875 20.015625 65.03125 
Q 15.375 64.15625 9.8125 62.3125 
L 9.8125 71.09375 
Q 15.4375 72.65625 20.34375 73.4375 
Q 25.25 74.21875 29.59375 74.21875 
Q 40.828125 74.21875 47.359375 69.109375 
Q 53.90625 64.015625 53.90625 55.328125 
Q 53.90625 49.265625 50.4375 45.09375 
Q 46.96875 40.921875 40.578125 39.3125 
z
" id="DejaVuSans-51"/>
      </defs>
      <g transform="translate(17.994331 135.685252)scale(0.08 -0.08)">
       <use xlink:href="#DejaVuSans-51"/>
       <use x="63.623047" xlink:href="#DejaVuSans-48"/>
       <use x="127.246094" xlink:href="#DejaVuSans-48"/>
       <use x="190.869141" xlink:href="#DejaVuSans-48"/>
      </g>
     </g>
    </g>
    <g id="ytick_5">
     <g id="line2d_10">
      <g>
       <use style="stroke:#000000;stroke-width:0.8;" x="45.354331" xlink:href="#m6e257bb192" y="97.491091"/>
      </g>
     </g>
     <g id="text_11">
      <!-- 4000 -->
      <defs>
       <path d="M 37.796875 64.3125 
L 12.890625 25.390625 
L 37.796875 25.390625 
z
M 35.203125 72.90625 
L 47.609375 72.90625 
L 47.609375 25.390625 
L 58.015625 25.390625 
L 58.015625 17.1875 
L 47.609375 17.1875 
L 47.609375 0 
L 37.796875 0 
L 37.796875 17.1875 
L 4.890625 17.1875 
L 4.890625 26.703125 
z
" id="DejaVuSans-52"/>
      </defs>
      <g transform="translate(17.994331 100.530466)scale(0.08 -0.08)">
       <use xlink:href="#DejaVuSans-52"/>
       <use x="63.623047" xlink:href="#DejaVuSans-48"/>
       <use x="127.246094" xlink:href="#DejaVuSans-48"/>
       <use x="190.869141" xlink:href="#DejaVuSans-48"/>
      </g>
     </g>
    </g>
    <g id="ytick_6">
     <g id="line2d_11">
      <g>
       <use style="stroke:#000000;stroke-width:0.8;" x="45.354331" xlink:href="#m6e257bb192" y="62.336304"/>
      </g>
     </g>
     <g id="text_12">
      <!-- 5000 -->
      <g transform="translate(17.994331 65.375679)scale(0.08 -0.08)">
       <use xlink:href="#DejaVuSans-53"/>
       <use x="63.623047" xlink:href="#DejaVuSans-48"/>
       <use x="127.246094" xlink:href="#DejaVuSans-48"/>
       <use x="190.869141" xlink:href="#DejaVuSans-48"/>
      </g>
     </g>
    </g>
    <g id="text_13">
     <!-- Frequency -->
     <defs>
      <path d="M 9.8125 72.90625 
L 51.703125 72.90625 
L 51.703125 64.59375 
L 19.671875 64.59375 
L 19.671875 43.109375 
L 48.578125 43.109375 
L 48.578125 34.8125 
L 19.671875 34.8125 
L 19.671875 0 
L 9.8125 0 
z
" id="DejaVuSans-70"/>
      <path d="M 41.109375 46.296875 
Q 39.59375 47.171875 37.8125 47.578125 
Q 36.03125 48 33.890625 48 
Q 26.265625 48 22.1875 43.046875 
Q 18.109375 38.09375 18.109375 28.8125 
L 18.109375 0 
L 9.078125 0 
L 9.078125 54.6875 
L 18.109375 54.6875 
L 18.109375 46.1875 
Q 20.953125 51.171875 25.484375 53.578125 
Q 30.03125 56 36.53125 56 
Q 37.453125 56 38.578125 55.875 
Q 39.703125 55.765625 41.0625 55.515625 
z
" id="DejaVuSans-114"/>
      <path d="M 14.796875 27.296875 
Q 14.796875 17.390625 18.875 11.75 
Q 22.953125 6.109375 30.078125 6.109375 
Q 37.203125 6.109375 41.296875 11.75 
Q 45.40625 17.390625 45.40625 27.296875 
Q 45.40625 37.203125 41.296875 42.84375 
Q 37.203125 48.484375 30.078125 48.484375 
Q 22.953125 48.484375 18.875 42.84375 
Q 14.796875 37.203125 14.796875 27.296875 
z
M 45.40625 8.203125 
Q 42.578125 3.328125 38.25 0.953125 
Q 33.9375 -1.421875 27.875 -1.421875 
Q 17.96875 -1.421875 11.734375 6.484375 
Q 5.515625 14.40625 5.515625 27.296875 
Q 5.515625 40.1875 11.734375 48.09375 
Q 17.96875 56 27.875 56 
Q 33.9375 56 38.25 53.625 
Q 42.578125 51.265625 45.40625 46.390625 
L 45.40625 54.6875 
L 54.390625 54.6875 
L 54.390625 -20.796875 
L 45.40625 -20.796875 
z
" id="DejaVuSans-113"/>
      <path d="M 48.78125 52.59375 
L 48.78125 44.1875 
Q 44.96875 46.296875 41.140625 47.34375 
Q 37.3125 48.390625 33.40625 48.390625 
Q 24.65625 48.390625 19.8125 42.84375 
Q 14.984375 37.3125 14.984375 27.296875 
Q 14.984375 17.28125 19.8125 11.734375 
Q 24.65625 6.203125 33.40625 6.203125 
Q 37.3125 6.203125 41.140625 7.25 
Q 44.96875 8.296875 48.78125 10.40625 
L 48.78125 2.09375 
Q 45.015625 0.34375 40.984375 -0.53125 
Q 36.96875 -1.421875 32.421875 -1.421875 
Q 20.0625 -1.421875 12.78125 6.34375 
Q 5.515625 14.109375 5.515625 27.296875 
Q 5.515625 40.671875 12.859375 48.328125 
Q 20.21875 56 33.015625 56 
Q 37.15625 56 41.109375 55.140625 
Q 45.0625 54.296875 48.78125 52.59375 
z
" id="DejaVuSans-99"/>
     </defs>
     <g transform="translate(11.914643 161.680333)rotate(-90)scale(0.1 -0.1)">
      <use xlink:href="#DejaVuSans-70"/>
      <use x="57.410156" xlink:href="#DejaVuSans-114"/>
      <use x="98.492188" xlink:href="#DejaVuSans-101"/>
      <use x="160.015625" xlink:href="#DejaVuSans-113"/>
      <use x="223.492188" xlink:href="#DejaVuSans-117"/>
      <use x="286.871094" xlink:href="#DejaVuSans-101"/>
      <use x="348.394531" xlink:href="#DejaVuSans-110"/>
      <use x="411.773438" xlink:href="#DejaVuSans-99"/>
      <use x="466.753906" xlink:href="#DejaVuSans-121"/>
     </g>
    </g>
   </g>
   <g id="patch_153">
    <path d="M 45.354331 238.110236 
L 45.354331 32.655118 
" style="fill:none;stroke:#000000;stroke-linecap:square;stroke-linejoin:miter;stroke-width:0.8;"/>
   </g>
   <g id="patch_154">
    <path d="M 326.551181 238.110236 
L 326.551181 32.655118 
" style="fill:none;stroke:#000000;stroke-linecap:square;stroke-linejoin:miter;stroke-width:0.8;"/>
   </g>
   <g id="patch_155">
    <path d="M 45.354331 238.110236 
L 326.551181 238.110236 
" style="fill:none;stroke:#000000;stroke-linecap:square;stroke-linejoin:miter;stroke-width:0.8;"/>
   </g>
   <g id="patch_156">
    <path d="M 45.354331 32.655118 
L 326.551181 32.655118 
" style="fill:none;stroke:#000000;stroke-linecap:square;stroke-linejoin:miter;stroke-width:0.8;"/>
   </g>
   <g id="legend_1">
    <g id="patch_157">
     <path d="M 263.362431 74.282618 
L 320.951181 74.282618 
Q 322.551181 74.282618 322.551181 72.682618 
L 322.551181 38.255118 
Q 322.551181 36.655118 320.951181 36.655118 
L 263.362431 36.655118 
Q 261.762431 36.655118 261.762431 38.255118 
L 261.762431 72.682618 
Q 261.762431 74.282618 263.362431 74.282618 
z
" style="fill:#ffffff;opacity:0.8;stroke:#cccccc;stroke-linejoin:miter;"/>
    </g>
    <g id="patch_158">
     <path d="M 264.962431 45.933868 
L 280.962431 45.933868 
L 280.962431 40.333868 
L 264.962431 40.333868 
z
" style="fill:#edf8b1;stroke:#000000;stroke-linejoin:miter;"/>
    </g>
    <g id="text_14">
     <!-- High -->
     <defs>
      <path d="M 9.8125 72.90625 
L 19.671875 72.90625 
L 19.671875 43.015625 
L 55.515625 43.015625 
L 55.515625 72.90625 
L 65.375 72.90625 
L 65.375 0 
L 55.515625 0 
L 55.515625 34.71875 
L 19.671875 34.71875 
L 19.671875 0 
L 9.8125 0 
z
" id="DejaVuSans-72"/>
      <path d="M 45.40625 27.984375 
Q 45.40625 37.75 41.375 43.109375 
Q 37.359375 48.484375 30.078125 48.484375 
Q 22.859375 48.484375 18.828125 43.109375 
Q 14.796875 37.75 14.796875 27.984375 
Q 14.796875 18.265625 18.828125 12.890625 
Q 22.859375 7.515625 30.078125 7.515625 
Q 37.359375 7.515625 41.375 12.890625 
Q 45.40625 18.265625 45.40625 27.984375 
z
M 54.390625 6.78125 
Q 54.390625 -7.171875 48.1875 -13.984375 
Q 42 -20.796875 29.203125 -20.796875 
Q 24.46875 -20.796875 20.265625 -20.09375 
Q 16.0625 -19.390625 12.109375 -17.921875 
L 12.109375 -9.1875 
Q 16.0625 -11.328125 19.921875 -12.34375 
Q 23.78125 -13.375 27.78125 -13.375 
Q 36.625 -13.375 41.015625 -8.765625 
Q 45.40625 -4.15625 45.40625 5.171875 
L 45.40625 9.625 
Q 42.625 4.78125 38.28125 2.390625 
Q 33.9375 0 27.875 0 
Q 17.828125 0 11.671875 7.65625 
Q 5.515625 15.328125 5.515625 27.984375 
Q 5.515625 40.671875 11.671875 48.328125 
Q 17.828125 56 27.875 56 
Q 33.9375 56 38.28125 53.609375 
Q 42.625 51.21875 45.40625 46.390625 
L 45.40625 54.6875 
L 54.390625 54.6875 
z
" id="DejaVuSans-103"/>
     </defs>
     <g transform="translate(287.362431 45.933868)scale(0.08 -0.08)">
      <use xlink:href="#DejaVuSans-72"/>
      <use x="75.195312" xlink:href="#DejaVuSans-105"/>
      <use x="102.978516" xlink:href="#DejaVuSans-103"/>
      <use x="166.455078" xlink:href="#DejaVuSans-104"/>
     </g>
    </g>
    <g id="patch_159">
     <path d="M 264.962431 57.676368 
L 280.962431 57.676368 
L 280.962431 52.076368 
L 264.962431 52.076368 
z
" style="fill:#7fcdbb;stroke:#000000;stroke-linejoin:miter;"/>
    </g>
    <g id="text_15">
     <!-- Medium -->
     <defs>
      <path d="M 9.8125 72.90625 
L 24.515625 72.90625 
L 43.109375 23.296875 
L 61.8125 72.90625 
L 76.515625 72.90625 
L 76.515625 0 
L 66.890625 0 
L 66.890625 64.015625 
L 48.09375 14.015625 
L 38.1875 14.015625 
L 19.390625 64.015625 
L 19.390625 0 
L 9.8125 0 
z
" id="DejaVuSans-77"/>
      <path d="M 45.40625 46.390625 
L 45.40625 75.984375 
L 54.390625 75.984375 
L 54.390625 0 
L 45.40625 0 
L 45.40625 8.203125 
Q 42.578125 3.328125 38.25 0.953125 
Q 33.9375 -1.421875 27.875 -1.421875 
Q 17.96875 -1.421875 11.734375 6.484375 
Q 5.515625 14.40625 5.515625 27.296875 
Q 5.515625 40.1875 11.734375 48.09375 
Q 17.96875 56 27.875 56 
Q 33.9375 56 38.25 53.625 
Q 42.578125 51.265625 45.40625 46.390625 
z
M 14.796875 27.296875 
Q 14.796875 17.390625 18.875 11.75 
Q 22.953125 6.109375 30.078125 6.109375 
Q 37.203125 6.109375 41.296875 11.75 
Q 45.40625 17.390625 45.40625 27.296875 
Q 45.40625 37.203125 41.296875 42.84375 
Q 37.203125 48.484375 30.078125 48.484375 
Q 22.953125 48.484375 18.875 42.84375 
Q 14.796875 37.203125 14.796875 27.296875 
z
" id="DejaVuSans-100"/>
      <path d="M 52 44.1875 
Q 55.375 50.25 60.0625 53.125 
Q 64.75 56 71.09375 56 
Q 79.640625 56 84.28125 50.015625 
Q 88.921875 44.046875 88.921875 33.015625 
L 88.921875 0 
L 79.890625 0 
L 79.890625 32.71875 
Q 79.890625 40.578125 77.09375 44.375 
Q 74.3125 48.1875 68.609375 48.1875 
Q 61.625 48.1875 57.5625 43.546875 
Q 53.515625 38.921875 53.515625 30.90625 
L 53.515625 0 
L 44.484375 0 
L 44.484375 32.71875 
Q 44.484375 40.625 41.703125 44.40625 
Q 38.921875 48.1875 33.109375 48.1875 
Q 26.21875 48.1875 22.15625 43.53125 
Q 18.109375 38.875 18.109375 30.90625 
L 18.109375 0 
L 9.078125 0 
L 9.078125 54.6875 
L 18.109375 54.6875 
L 18.109375 46.1875 
Q 21.1875 51.21875 25.484375 53.609375 
Q 29.78125 56 35.6875 56 
Q 41.65625 56 45.828125 52.96875 
Q 50 49.953125 52 44.1875 
z
" id="DejaVuSans-109"/>
     </defs>
     <g transform="translate(287.362431 57.676368)scale(0.08 -0.08)">
      <use xlink:href="#DejaVuSans-77"/>
      <use x="86.279297" xlink:href="#DejaVuSans-101"/>
      <use x="147.802734" xlink:href="#DejaVuSans-100"/>
      <use x="211.279297" xlink:href="#DejaVuSans-105"/>
      <use x="239.0625" xlink:href="#DejaVuSans-117"/>
      <use x="302.441406" xlink:href="#DejaVuSans-109"/>
     </g>
    </g>
    <g id="patch_160">
     <path d="M 264.962431 69.418868 
L 280.962431 69.418868 
L 280.962431 63.818868 
L 264.962431 63.818868 
z
" style="fill:#2c7fb8;stroke:#000000;stroke-linejoin:miter;"/>
    </g>
    <g id="text_16">
     <!-- Low -->
     <defs>
      <path d="M 9.8125 72.90625 
L 19.671875 72.90625 
L 19.671875 8.296875 
L 55.171875 8.296875 
L 55.171875 0 
L 9.8125 0 
z
" id="DejaVuSans-76"/>
      <path d="M 4.203125 54.6875 
L 13.1875 54.6875 
L 24.421875 12.015625 
L 35.59375 54.6875 
L 46.1875 54.6875 
L 57.421875 12.015625 
L 68.609375 54.6875 
L 77.59375 54.6875 
L 63.28125 0 
L 52.6875 0 
L 40.921875 44.828125 
L 29.109375 0 
L 18.5 0 
z
" id="DejaVuSans-119"/>
     </defs>
     <g transform="translate(287.362431 69.418868)scale(0.08 -0.08)">
      <use xlink:href="#DejaVuSans-76"/>
      <use x="55.697266" xlink:href="#DejaVuSans-111"/>
      <use x="116.878906" xlink:href="#DejaVuSans-119"/>
     </g>
    </g>
   </g>
  </g>
 </g>
 <defs>
  <clipPath id="pbf2ea6edbb">
   <rect height="205.455118" width="281.19685" x="45.354331" y="32.655118"/>
  </clipPath>
 </defs>
</svg>
